<?xml version="1.0" encoding="UTF-8" standalone="no"?>
<!DOCTYPE svg PUBLIC "-//W3C//DTD SVG 1.1//EN"
 "http://www.w3.org/Graphics/SVG/1.1/DTD/svg11.dtd">
<!-- Generated by graphviz version 2.40.1 (20161225.0304)
 -->
<!-- Title: /tmp/tmp.RKK8zw89sg/src/main/cpp/include/GlobalTypes.h Pages: 1 -->
<svg width="254pt" height="284pt"
 viewBox="0.00 0.00 253.50 284.00" xmlns="http://www.w3.org/2000/svg" xmlns:xlink="http://www.w3.org/1999/xlink">
<g id="graph0" class="graph" transform="scale(1 1) rotate(0) translate(4 280)">
<title>/tmp/tmp.RKK8zw89sg/src/main/cpp/include/GlobalTypes.h</title>
<polygon fill="#ffffff" stroke="transparent" points="-4,4 -4,-280 249.5,-280 249.5,4 -4,4"/>
<!-- Node1 -->
<g id="node1" class="node">
<title>Node1</title>
<polygon fill="#bfbfbf" stroke="#000000" points="120.5,-234.5 120.5,-275.5 239.5,-275.5 239.5,-234.5 120.5,-234.5"/>
<text text-anchor="start" x="128.5" y="-263.5" font-family="Helvetica,sans-Serif" font-size="10.00" fill="#000000">/tmp/tmp.RKK8zw89sg</text>
<text text-anchor="start" x="128.5" y="-252.5" font-family="Helvetica,sans-Serif" font-size="10.00" fill="#000000">/src/main/cpp/include</text>
<text text-anchor="middle" x="180" y="-241.5" font-family="Helvetica,sans-Serif" font-size="10.00" fill="#000000">/GlobalTypes.h</text>
</g>
<!-- Node2 -->
<g id="node2" class="node">
<title>Node2</title>
<g id="a_node2"><a xlink:href="_i_bio_signal_processor_8h.html" target="_top" xlink:title="/tmp/tmp.RKK8zw89sg\l/src/main/cpp/include\l/IBioSignalProcessor.h">
<polygon fill="#ffffff" stroke="#000000" points="76.5,-156.5 76.5,-197.5 195.5,-197.5 195.5,-156.5 76.5,-156.5"/>
<text text-anchor="start" x="84.5" y="-185.5" font-family="Helvetica,sans-Serif" font-size="10.00" fill="#000000">/tmp/tmp.RKK8zw89sg</text>
<text text-anchor="start" x="84.5" y="-174.5" font-family="Helvetica,sans-Serif" font-size="10.00" fill="#000000">/src/main/cpp/include</text>
<text text-anchor="middle" x="136" y="-163.5" font-family="Helvetica,sans-Serif" font-size="10.00" fill="#000000">/IBioSignalProcessor.h</text>
</a>
</g>
</g>
<!-- Node1&#45;&gt;Node2 -->
<g id="edge1" class="edge">
<title>Node1&#45;&gt;Node2</title>
<path fill="none" stroke="#191970" d="M163.2073,-225.2312C158.0234,-216.0415 152.4302,-206.1263 147.6712,-197.6898"/>
<polygon fill="#191970" stroke="#191970" points="160.2471,-227.1073 168.2088,-234.0974 166.344,-223.668 160.2471,-227.1073"/>
</g>
<!-- Node4 -->
<g id="node4" class="node">
<title>Node4</title>
<g id="a_node4"><a xlink:href="lib_maple_muse_8h.html" target="_top" xlink:title="/tmp/tmp.RKK8zw89sg\l/src/main/cpp/include\l/libMapleMuse.h">
<polygon fill="#ffffff" stroke="#000000" points="126.5,-.5 126.5,-41.5 245.5,-41.5 245.5,-.5 126.5,-.5"/>
<text text-anchor="start" x="134.5" y="-29.5" font-family="Helvetica,sans-Serif" font-size="10.00" fill="#000000">/tmp/tmp.RKK8zw89sg</text>
<text text-anchor="start" x="134.5" y="-18.5" font-family="Helvetica,sans-Serif" font-size="10.00" fill="#000000">/src/main/cpp/include</text>
<text text-anchor="middle" x="186" y="-7.5" font-family="Helvetica,sans-Serif" font-size="10.00" fill="#000000">/libMapleMuse.h</text>
</a>
</g>
</g>
<!-- Node1&#45;&gt;Node4 -->
<g id="edge5" class="edge">
<title>Node1&#45;&gt;Node4</title>
<path fill="none" stroke="#191970" d="M195.2185,-225.087C198.8284,-216.5548 202.1624,-207.0998 204,-198 215.2804,-142.1399 200.9518,-74.8608 192.0679,-41.6366"/>
<polygon fill="#191970" stroke="#191970" points="192.0026,-223.7044 191.0905,-234.2599 198.386,-226.577 192.0026,-223.7044"/>
</g>
<!-- Node3 -->
<g id="node3" class="node">
<title>Node3</title>
<g id="a_node3"><a xlink:href="_generic_bio_signal_processor_8hpp.html" target="_top" xlink:title="/tmp/tmp.RKK8zw89sg\l/src/main/cpp/include\l/GenericBioSignalProcessor.hpp">
<polygon fill="#ffffff" stroke="#000000" points="0,-78.5 0,-119.5 158,-119.5 158,-78.5 0,-78.5"/>
<text text-anchor="start" x="8" y="-107.5" font-family="Helvetica,sans-Serif" font-size="10.00" fill="#000000">/tmp/tmp.RKK8zw89sg</text>
<text text-anchor="start" x="8" y="-96.5" font-family="Helvetica,sans-Serif" font-size="10.00" fill="#000000">/src/main/cpp/include</text>
<text text-anchor="middle" x="79" y="-85.5" font-family="Helvetica,sans-Serif" font-size="10.00" fill="#000000">/GenericBioSignalProcessor.hpp</text>
</a>
</g>
</g>
<!-- Node2&#45;&gt;Node3 -->
<g id="edge2" class="edge">
<title>Node2&#45;&gt;Node3</title>
<path fill="none" stroke="#191970" d="M114.6649,-147.8046C107.8327,-138.4552 100.413,-128.302 94.1195,-119.6898"/>
<polygon fill="#191970" stroke="#191970" points="111.999,-150.0886 120.725,-156.0974 117.6507,-145.9584 111.999,-150.0886"/>
</g>
<!-- Node2&#45;&gt;Node4 -->
<g id="edge4" class="edge">
<title>Node2&#45;&gt;Node4</title>
<path fill="none" stroke="#191970" d="M154.3098,-147.4533C159.0158,-138.8507 163.6812,-129.268 167,-120 176.3812,-93.8022 181.4386,-61.957 183.9243,-41.5855"/>
<polygon fill="#191970" stroke="#191970" points="151.1553,-145.9201 149.2493,-156.3421 157.2385,-149.3834 151.1553,-145.9201"/>
</g>
<!-- Node3&#45;&gt;Node4 -->
<g id="edge3" class="edge">
<title>Node3&#45;&gt;Node4</title>
<path fill="none" stroke="#191970" d="M115.7268,-72.2272C129.5148,-62.1761 144.9564,-50.9196 157.8455,-41.5239"/>
<polygon fill="#191970" stroke="#191970" points="113.4122,-69.5832 107.3931,-78.3022 117.5357,-75.2398 113.4122,-69.5832"/>
</g>
</g>
</svg>
