<?xml version="1.0" encoding="UTF-8" standalone="no"?>
<!DOCTYPE svg PUBLIC "-//W3C//DTD SVG 1.1//EN"
 "http://www.w3.org/Graphics/SVG/1.1/DTD/svg11.dtd">
<!-- Generated by graphviz version 2.40.1 (20161225.0304)
 -->
<!-- Title: /tmp/tmp.RKK8zw89sg/src/main/cpp/include/MessagingQueueListener.h Pages: 1 -->
<svg width="146pt" height="128pt"
 viewBox="0.00 0.00 146.00 128.00" xmlns="http://www.w3.org/2000/svg" xmlns:xlink="http://www.w3.org/1999/xlink">
<g id="graph0" class="graph" transform="scale(1 1) rotate(0) translate(4 124)">
<title>/tmp/tmp.RKK8zw89sg/src/main/cpp/include/MessagingQueueListener.h</title>
<polygon fill="#ffffff" stroke="transparent" points="-4,4 -4,-124 142,-124 142,4 -4,4"/>
<!-- Node1 -->
<g id="node1" class="node">
<title>Node1</title>
<polygon fill="#bfbfbf" stroke="#000000" points="0,-78.5 0,-119.5 138,-119.5 138,-78.5 0,-78.5"/>
<text text-anchor="start" x="8" y="-107.5" font-family="Helvetica,sans-Serif" font-size="10.00" fill="#000000">/tmp/tmp.RKK8zw89sg</text>
<text text-anchor="start" x="8" y="-96.5" font-family="Helvetica,sans-Serif" font-size="10.00" fill="#000000">/src/main/cpp/include</text>
<text text-anchor="middle" x="69" y="-85.5" font-family="Helvetica,sans-Serif" font-size="10.00" fill="#000000">/MessagingQueueListener.h</text>
</g>
<!-- Node2 -->
<g id="node2" class="node">
<title>Node2</title>
<g id="a_node2"><a xlink:href="lib_maple_muse_8h.html" target="_top" xlink:title="/tmp/tmp.RKK8zw89sg\l/src/main/cpp/include\l/libMapleMuse.h">
<polygon fill="#ffffff" stroke="#000000" points="9.5,-.5 9.5,-41.5 128.5,-41.5 128.5,-.5 9.5,-.5"/>
<text text-anchor="start" x="17.5" y="-29.5" font-family="Helvetica,sans-Serif" font-size="10.00" fill="#000000">/tmp/tmp.RKK8zw89sg</text>
<text text-anchor="start" x="17.5" y="-18.5" font-family="Helvetica,sans-Serif" font-size="10.00" fill="#000000">/src/main/cpp/include</text>
<text text-anchor="middle" x="69" y="-7.5" font-family="Helvetica,sans-Serif" font-size="10.00" fill="#000000">/libMapleMuse.h</text>
</a>
</g>
</g>
<!-- Node1&#45;&gt;Node2 -->
<g id="edge1" class="edge">
<title>Node1&#45;&gt;Node2</title>
<path fill="none" stroke="#191970" d="M69,-68.0789C69,-59.2178 69,-49.7747 69,-41.6898"/>
<polygon fill="#191970" stroke="#191970" points="65.5001,-68.0974 69,-78.0974 72.5001,-68.0975 65.5001,-68.0974"/>
</g>
</g>
</svg>
