<?xml version="1.0" encoding="UTF-8" standalone="no"?>
<!DOCTYPE svg PUBLIC "-//W3C//DTD SVG 1.1//EN"
 "http://www.w3.org/Graphics/SVG/1.1/DTD/svg11.dtd">
<!-- Generated by graphviz version 2.40.1 (20161225.0304)
 -->
<!-- Title: Graphical Class Hierarchy Pages: 1 -->
<svg width="536pt" height="180pt"
 viewBox="0.00 0.00 536.00 180.00" xmlns="http://www.w3.org/2000/svg" xmlns:xlink="http://www.w3.org/1999/xlink">
<g id="graph0" class="graph" transform="scale(1 1) rotate(0) translate(4 176)">
<title>Graphical Class Hierarchy</title>
<polygon fill="#ffffff" stroke="transparent" points="-4,4 -4,-176 532,-176 532,4 -4,4"/>
<!-- Node0 -->
<g id="node1" class="node">
<title>Node0</title>
<g id="a_node1"><a xlink:href="class_messaging_queue_listener.html" target="_top" xlink:title="An interface for a message listener. ">
<polygon fill="#ffffff" stroke="#000000" points="0,-76.5 0,-95.5 127,-95.5 127,-76.5 0,-76.5"/>
<text text-anchor="middle" x="63.5" y="-83.5" font-family="Helvetica,sans-Serif" font-size="10.00" fill="#000000">MessagingQueueListener</text>
</a>
</g>
</g>
<!-- Node1 -->
<g id="node2" class="node">
<title>Node1</title>
<g id="a_node2"><a xlink:href="class_i_maple_object.html" target="_top" xlink:title="The base object for all factory generated objects. ">
<polygon fill="#ffffff" stroke="#000000" points="163,-76.5 163,-95.5 237,-95.5 237,-76.5 163,-76.5"/>
<text text-anchor="middle" x="200" y="-83.5" font-family="Helvetica,sans-Serif" font-size="10.00" fill="#000000">IMapleObject</text>
</a>
</g>
</g>
<!-- Node0&#45;&gt;Node1 -->
<g id="edge1" class="edge">
<title>Node0&#45;&gt;Node1</title>
<path fill="none" stroke="#191970" d="M137.3815,-86C146.2437,-86 154.9784,-86 162.9824,-86"/>
<polygon fill="#191970" stroke="#191970" points="137.3538,-82.5001 127.3538,-86 137.3537,-89.5001 137.3538,-82.5001"/>
</g>
<!-- Node2 -->
<g id="node3" class="node">
<title>Node2</title>
<g id="a_node3"><a xlink:href="class_i_bio_signal_processor.html" target="_top" xlink:title="IBioSignalProcessor\&lt; T \&gt;">
<polygon fill="#ffffff" stroke="#000000" points="273,-152.5 273,-171.5 402,-171.5 402,-152.5 273,-152.5"/>
<text text-anchor="middle" x="337.5" y="-159.5" font-family="Helvetica,sans-Serif" font-size="10.00" fill="#000000">IBioSignalProcessor&lt; T &gt;</text>
</a>
</g>
</g>
<!-- Node1&#45;&gt;Node2 -->
<g id="edge2" class="edge">
<title>Node1&#45;&gt;Node2</title>
<path fill="none" stroke="#191970" d="M217.444,-102.7269C231.4683,-115.3665 252.198,-132.3099 273,-143 280.268,-146.735 288.3839,-149.848 296.3405,-152.4"/>
<polygon fill="#191970" stroke="#191970" points="219.7325,-100.076 210.0118,-95.8619 214.9829,-105.2182 219.7325,-100.076"/>
</g>
<!-- Node3 -->
<g id="node4" class="node">
<title>Node3</title>
<g id="a_node4"><a xlink:href="class_i_input_signal.html" target="_top" xlink:title="Public interface for a real time biometric input signal. ">
<polygon fill="#ffffff" stroke="#000000" points="291.5,-114.5 291.5,-133.5 383.5,-133.5 383.5,-114.5 291.5,-114.5"/>
<text text-anchor="middle" x="337.5" y="-121.5" font-family="Helvetica,sans-Serif" font-size="10.00" fill="#000000">IInputSignal&lt; T &gt;</text>
</a>
</g>
</g>
<!-- Node1&#45;&gt;Node3 -->
<g id="edge3" class="edge">
<title>Node1&#45;&gt;Node3</title>
<path fill="none" stroke="#191970" d="M244.5729,-98.3183C263.4645,-103.5393 285.1472,-109.5316 302.814,-114.4141"/>
<polygon fill="#191970" stroke="#191970" points="245.2681,-94.8793 234.6971,-95.589 243.4034,-101.6264 245.2681,-94.8793"/>
</g>
<!-- Node5 -->
<g id="node6" class="node">
<title>Node5</title>
<g id="a_node6"><a xlink:href="class_i_looping_transport.html" target="_top" xlink:title="A looping transport allows play / pause, looping , seeking capabilities for a sequence or track...">
<polygon fill="#ffffff" stroke="#000000" points="290,-76.5 290,-95.5 385,-95.5 385,-76.5 290,-76.5"/>
<text text-anchor="middle" x="337.5" y="-83.5" font-family="Helvetica,sans-Serif" font-size="10.00" fill="#000000">ILoopingTransport</text>
</a>
</g>
</g>
<!-- Node1&#45;&gt;Node5 -->
<g id="edge5" class="edge">
<title>Node1&#45;&gt;Node5</title>
<path fill="none" stroke="#191970" d="M247.4253,-86C261.1601,-86 276.1551,-86 289.9005,-86"/>
<polygon fill="#191970" stroke="#191970" points="247.2095,-82.5001 237.2095,-86 247.2094,-89.5001 247.2095,-82.5001"/>
</g>
<!-- Node6 -->
<g id="node7" class="node">
<title>Node6</title>
<g id="a_node7"><a xlink:href="class_i_maple_model.html" target="_top" xlink:title="Class IMapleModel base class and interface file for MapleModel. ">
<polygon fill="#ffffff" stroke="#000000" points="301.5,-38.5 301.5,-57.5 373.5,-57.5 373.5,-38.5 301.5,-38.5"/>
<text text-anchor="middle" x="337.5" y="-45.5" font-family="Helvetica,sans-Serif" font-size="10.00" fill="#000000">IMapleModel</text>
</a>
</g>
</g>
<!-- Node1&#45;&gt;Node6 -->
<g id="edge6" class="edge">
<title>Node1&#45;&gt;Node6</title>
<path fill="none" stroke="#191970" d="M244.5729,-73.6817C263.4645,-68.4607 285.1472,-62.4684 302.814,-57.5859"/>
<polygon fill="#191970" stroke="#191970" points="243.4034,-70.3736 234.6971,-76.411 245.2681,-77.1207 243.4034,-70.3736"/>
</g>
<!-- Node7 -->
<g id="node8" class="node">
<title>Node7</title>
<g id="a_node8"><a xlink:href="class_i_sequence_channel.html" target="_top" xlink:title="ISequenceChannel">
<polygon fill="#ffffff" stroke="#000000" points="288,-.5 288,-19.5 387,-19.5 387,-.5 288,-.5"/>
<text text-anchor="middle" x="337.5" y="-7.5" font-family="Helvetica,sans-Serif" font-size="10.00" fill="#000000">ISequenceChannel</text>
</a>
</g>
</g>
<!-- Node1&#45;&gt;Node7 -->
<g id="edge7" class="edge">
<title>Node1&#45;&gt;Node7</title>
<path fill="none" stroke="#191970" d="M217.444,-69.2731C231.4683,-56.6335 252.198,-39.6901 273,-29 280.268,-25.265 288.3839,-22.152 296.3405,-19.6"/>
<polygon fill="#191970" stroke="#191970" points="214.9829,-66.7818 210.0118,-76.1381 219.7325,-71.924 214.9829,-66.7818"/>
</g>
<!-- Node4 -->
<g id="node5" class="node">
<title>Node4</title>
<g id="a_node5"><a xlink:href="class_i_input_track.html" target="_top" xlink:title="Public interface for an input track of biometric data. ">
<polygon fill="#ffffff" stroke="#000000" points="438,-114.5 438,-133.5 528,-133.5 528,-114.5 438,-114.5"/>
<text text-anchor="middle" x="483" y="-121.5" font-family="Helvetica,sans-Serif" font-size="10.00" fill="#000000">IInputTrack&lt; T &gt;</text>
</a>
</g>
</g>
<!-- Node3&#45;&gt;Node4 -->
<g id="edge4" class="edge">
<title>Node3&#45;&gt;Node4</title>
<path fill="none" stroke="#191970" d="M393.9168,-124C408.4426,-124 423.8845,-124 437.7605,-124"/>
<polygon fill="#191970" stroke="#191970" points="393.5371,-120.5001 383.5371,-124 393.5371,-127.5001 393.5371,-120.5001"/>
</g>
</g>
</svg>
