<?xml version="1.0" encoding="UTF-8" standalone="no"?>
<!DOCTYPE svg PUBLIC "-//W3C//DTD SVG 1.1//EN"
 "http://www.w3.org/Graphics/SVG/1.1/DTD/svg11.dtd">
<!-- Generated by graphviz version 2.40.1 (20161225.0304)
 -->
<!-- Title: Graphical Class Hierarchy Pages: 1 -->
<svg width="705pt" height="180pt"
 viewBox="0.00 0.00 705.00 180.00" xmlns="http://www.w3.org/2000/svg" xmlns:xlink="http://www.w3.org/1999/xlink">
<g id="graph0" class="graph" transform="scale(1 1) rotate(0) translate(4 176)">
<title>Graphical Class Hierarchy</title>
<polygon fill="#ffffff" stroke="transparent" points="-4,4 -4,-176 701,-176 701,4 -4,4"/>
<!-- Node0 -->
<g id="node1" class="node">
<title>Node0</title>
<g id="a_node1"><a xlink:href="classmedimuse_1_1_messaging_queue_listener.html" target="_top" xlink:title="An interface for a message listener. ">
<polygon fill="#ffffff" stroke="#000000" points="0,-71 0,-101 143,-101 143,-71 0,-71"/>
<text text-anchor="start" x="8" y="-89" font-family="Helvetica,sans-Serif" font-size="10.00" fill="#000000">medimuse::MessagingQueue</text>
<text text-anchor="middle" x="71.5" y="-78" font-family="Helvetica,sans-Serif" font-size="10.00" fill="#000000">Listener</text>
</a>
</g>
</g>
<!-- Node1 -->
<g id="node2" class="node">
<title>Node1</title>
<g id="a_node2"><a xlink:href="classmedimuse_1_1_i_maple_object.html" target="_top" xlink:title="The base object for all factory generated objects. ">
<polygon fill="#ffffff" stroke="#000000" points="179,-76.5 179,-95.5 304,-95.5 304,-76.5 179,-76.5"/>
<text text-anchor="middle" x="241.5" y="-83.5" font-family="Helvetica,sans-Serif" font-size="10.00" fill="#000000">medimuse::IMapleObject</text>
</a>
</g>
</g>
<!-- Node0&#45;&gt;Node1 -->
<g id="edge1" class="edge">
<title>Node0&#45;&gt;Node1</title>
<path fill="none" stroke="#191970" d="M153.1961,-86C161.8303,-86 170.5101,-86 178.8782,-86"/>
<polygon fill="#191970" stroke="#191970" points="153.1026,-82.5001 143.1026,-86 153.1026,-89.5001 153.1026,-82.5001"/>
</g>
<!-- Node2 -->
<g id="node3" class="node">
<title>Node2</title>
<g id="a_node3"><a xlink:href="classmedimuse_1_1_i_bio_signal_processor.html" target="_top" xlink:title="medimuse::IBioSignalProcessor\&lt; T \&gt;">
<polygon fill="#ffffff" stroke="#000000" points="340,-152.5 340,-171.5 520,-171.5 520,-152.5 340,-152.5"/>
<text text-anchor="middle" x="430" y="-159.5" font-family="Helvetica,sans-Serif" font-size="10.00" fill="#000000">medimuse::IBioSignalProcessor&lt; T &gt;</text>
</a>
</g>
</g>
<!-- Node1&#45;&gt;Node2 -->
<g id="edge2" class="edge">
<title>Node1&#45;&gt;Node2</title>
<path fill="none" stroke="#191970" d="M263.2021,-101.2683C282.5175,-114.1802 311.9726,-132.2475 340,-143 349.9896,-146.8324 360.9149,-149.9603 371.602,-152.4898"/>
<polygon fill="#191970" stroke="#191970" points="265.0698,-98.3058 254.8339,-95.5712 261.1304,-104.0921 265.0698,-98.3058"/>
</g>
<!-- Node3 -->
<g id="node4" class="node">
<title>Node3</title>
<g id="a_node4"><a xlink:href="classmedimuse_1_1_i_input_signal.html" target="_top" xlink:title="medimuse::IInputSignal\&lt; T \&gt;">
<polygon fill="#ffffff" stroke="#000000" points="358.5,-114.5 358.5,-133.5 501.5,-133.5 501.5,-114.5 358.5,-114.5"/>
<text text-anchor="middle" x="430" y="-121.5" font-family="Helvetica,sans-Serif" font-size="10.00" fill="#000000">medimuse::IInputSignal&lt; T &gt;</text>
</a>
</g>
</g>
<!-- Node1&#45;&gt;Node3 -->
<g id="edge3" class="edge">
<title>Node1&#45;&gt;Node3</title>
<path fill="none" stroke="#191970" d="M299.0893,-97.6095C325.8983,-103.014 357.3954,-109.3635 382.7755,-114.4799"/>
<polygon fill="#191970" stroke="#191970" points="299.561,-94.1343 289.0665,-95.589 298.1776,-100.9962 299.561,-94.1343"/>
</g>
<!-- Node5 -->
<g id="node6" class="node">
<title>Node5</title>
<g id="a_node6"><a xlink:href="classmedimuse_1_1_i_looping_transport.html" target="_top" xlink:title="A looping transport allows play / pause, looping , seeking capabilities for a sequence or track...">
<polygon fill="#ffffff" stroke="#000000" points="357,-76.5 357,-95.5 503,-95.5 503,-76.5 357,-76.5"/>
<text text-anchor="middle" x="430" y="-83.5" font-family="Helvetica,sans-Serif" font-size="10.00" fill="#000000">medimuse::ILoopingTransport</text>
</a>
</g>
</g>
<!-- Node1&#45;&gt;Node5 -->
<g id="edge5" class="edge">
<title>Node1&#45;&gt;Node5</title>
<path fill="none" stroke="#191970" d="M314.0855,-86C328.1187,-86 342.8294,-86 356.8796,-86"/>
<polygon fill="#191970" stroke="#191970" points="314.006,-82.5001 304.0059,-86 314.0059,-89.5001 314.006,-82.5001"/>
</g>
<!-- Node6 -->
<g id="node7" class="node">
<title>Node6</title>
<g id="a_node7"><a xlink:href="classmedimuse_1_1_i_maple_model.html" target="_top" xlink:title="Class IMapleModel base class and interface file for MapleModel. ">
<polygon fill="#ffffff" stroke="#000000" points="368.5,-38.5 368.5,-57.5 491.5,-57.5 491.5,-38.5 368.5,-38.5"/>
<text text-anchor="middle" x="430" y="-45.5" font-family="Helvetica,sans-Serif" font-size="10.00" fill="#000000">medimuse::IMapleModel</text>
</a>
</g>
</g>
<!-- Node1&#45;&gt;Node6 -->
<g id="edge6" class="edge">
<title>Node1&#45;&gt;Node6</title>
<path fill="none" stroke="#191970" d="M299.0893,-74.3905C325.8983,-68.986 357.3954,-62.6365 382.7755,-57.5201"/>
<polygon fill="#191970" stroke="#191970" points="298.1776,-71.0038 289.0665,-76.411 299.561,-77.8657 298.1776,-71.0038"/>
</g>
<!-- Node7 -->
<g id="node8" class="node">
<title>Node7</title>
<g id="a_node8"><a xlink:href="classmedimuse_1_1_i_sequence_channel.html" target="_top" xlink:title="medimuse::ISequenceChannel">
<polygon fill="#ffffff" stroke="#000000" points="355,-.5 355,-19.5 505,-19.5 505,-.5 355,-.5"/>
<text text-anchor="middle" x="430" y="-7.5" font-family="Helvetica,sans-Serif" font-size="10.00" fill="#000000">medimuse::ISequenceChannel</text>
</a>
</g>
</g>
<!-- Node1&#45;&gt;Node7 -->
<g id="edge7" class="edge">
<title>Node1&#45;&gt;Node7</title>
<path fill="none" stroke="#191970" d="M263.2021,-70.7317C282.5175,-57.8198 311.9726,-39.7525 340,-29 349.9896,-25.1676 360.9149,-22.0397 371.602,-19.5102"/>
<polygon fill="#191970" stroke="#191970" points="261.1304,-67.9079 254.8339,-76.4288 265.0698,-73.6942 261.1304,-67.9079"/>
</g>
<!-- Node4 -->
<g id="node5" class="node">
<title>Node4</title>
<g id="a_node5"><a xlink:href="classmedimuse_1_1_i_input_track.html" target="_top" xlink:title="medimuse::IInputTrack\&lt; T \&gt;">
<polygon fill="#ffffff" stroke="#000000" points="556,-114.5 556,-133.5 697,-133.5 697,-114.5 556,-114.5"/>
<text text-anchor="middle" x="626.5" y="-121.5" font-family="Helvetica,sans-Serif" font-size="10.00" fill="#000000">medimuse::IInputTrack&lt; T &gt;</text>
</a>
</g>
</g>
<!-- Node3&#45;&gt;Node4 -->
<g id="edge4" class="edge">
<title>Node3&#45;&gt;Node4</title>
<path fill="none" stroke="#191970" d="M511.8172,-124C526.4622,-124 541.6085,-124 555.9044,-124"/>
<polygon fill="#191970" stroke="#191970" points="511.7752,-120.5001 501.7751,-124 511.7751,-127.5001 511.7752,-120.5001"/>
</g>
</g>
</svg>
