<?xml version="1.0" encoding="UTF-8" standalone="no"?>
<!DOCTYPE svg PUBLIC "-//W3C//DTD SVG 1.1//EN"
 "http://www.w3.org/Graphics/SVG/1.1/DTD/svg11.dtd">
<!-- Generated by graphviz version 2.40.1 (20161225.0304)
 -->
<!-- Title: /tmp/tmp.RKK8zw89sg/src/main/cpp/include/libMapleMuse.h Pages: 1 -->
<svg width="3303pt" height="218pt"
 viewBox="0.00 0.00 3303.00 218.00" xmlns="http://www.w3.org/2000/svg" xmlns:xlink="http://www.w3.org/1999/xlink">
<g id="graph0" class="graph" transform="scale(1 1) rotate(0) translate(4 214)">
<title>/tmp/tmp.RKK8zw89sg/src/main/cpp/include/libMapleMuse.h</title>
<polygon fill="#ffffff" stroke="transparent" points="-4,4 -4,-214 3299,-214 3299,4 -4,4"/>
<!-- Node0 -->
<g id="node1" class="node">
<title>Node0</title>
<polygon fill="#bfbfbf" stroke="#000000" points="1407,-168.5 1407,-209.5 1526,-209.5 1526,-168.5 1407,-168.5"/>
<text text-anchor="start" x="1415" y="-197.5" font-family="Helvetica,sans-Serif" font-size="10.00" fill="#000000">/tmp/tmp.RKK8zw89sg</text>
<text text-anchor="start" x="1415" y="-186.5" font-family="Helvetica,sans-Serif" font-size="10.00" fill="#000000">/src/main/cpp/include</text>
<text text-anchor="middle" x="1466.5" y="-175.5" font-family="Helvetica,sans-Serif" font-size="10.00" fill="#000000">/libMapleMuse.h</text>
</g>
<!-- Node1 -->
<g id="node2" class="node">
<title>Node1</title>
<polygon fill="#ffffff" stroke="#bfbfbf" points="0,-112.5 0,-131.5 49,-131.5 49,-112.5 0,-112.5"/>
<text text-anchor="middle" x="24.5" y="-119.5" font-family="Helvetica,sans-Serif" font-size="10.00" fill="#000000">stdint.h</text>
</g>
<!-- Node0&#45;&gt;Node1 -->
<g id="edge1" class="edge">
<title>Node0&#45;&gt;Node1</title>
<path fill="none" stroke="#191970" d="M1406.9502,-188.5339C1176.7193,-186.4345 344.0144,-176.012 59.1206,-131.6266"/>
<polygon fill="#191970" stroke="#191970" points="59.6481,-128.1665 49.219,-130.0333 58.5359,-135.0776 59.6481,-128.1665"/>
</g>
<!-- Node2 -->
<g id="node3" class="node">
<title>Node2</title>
<g id="a_node3"><a xlink:href="_maple_platform_8h.html" target="_top" xlink:title="MaplePlatform.h">
<polygon fill="#ffffff" stroke="#000000" points="67.5,-112.5 67.5,-131.5 155.5,-131.5 155.5,-112.5 67.5,-112.5"/>
<text text-anchor="middle" x="111.5" y="-119.5" font-family="Helvetica,sans-Serif" font-size="10.00" fill="#000000">MaplePlatform.h</text>
</a>
</g>
</g>
<!-- Node0&#45;&gt;Node2 -->
<g id="edge2" class="edge">
<title>Node0&#45;&gt;Node2</title>
<path fill="none" stroke="#191970" d="M1406.629,-187.5456C1187.6262,-182.0468 429.5414,-161.3954 165.9822,-132.1306"/>
<polygon fill="#191970" stroke="#191970" points="166.0192,-128.6121 155.6862,-130.9531 165.2237,-135.5668 166.0192,-128.6121"/>
</g>
<!-- Node4 -->
<g id="node5" class="node">
<title>Node4</title>
<g id="a_node5"><a xlink:href="_plugin_headers_8h.html" target="_top" xlink:title="PluginHeaders.h">
<polygon fill="#ffffff" stroke="#000000" points="173,-112.5 173,-131.5 262,-131.5 262,-112.5 173,-112.5"/>
<text text-anchor="middle" x="217.5" y="-119.5" font-family="Helvetica,sans-Serif" font-size="10.00" fill="#000000">PluginHeaders.h</text>
</a>
</g>
</g>
<!-- Node0&#45;&gt;Node4 -->
<g id="edge4" class="edge">
<title>Node0&#45;&gt;Node4</title>
<path fill="none" stroke="#191970" d="M1406.972,-187.2298C1200.4952,-180.9251 515.0188,-158.5758 272.3964,-131.915"/>
<polygon fill="#191970" stroke="#191970" points="272.5486,-128.4099 262.2185,-130.7635 271.7616,-135.3656 272.5486,-128.4099"/>
</g>
<!-- Node5 -->
<g id="node6" class="node">
<title>Node5</title>
<polygon fill="#ffffff" stroke="#bfbfbf" points="280.5,-112.5 280.5,-131.5 326.5,-131.5 326.5,-112.5 280.5,-112.5"/>
<text text-anchor="middle" x="303.5" y="-119.5" font-family="Helvetica,sans-Serif" font-size="10.00" fill="#000000">atomic</text>
</g>
<!-- Node0&#45;&gt;Node5 -->
<g id="edge5" class="edge">
<title>Node0&#45;&gt;Node5</title>
<path fill="none" stroke="#191970" d="M1406.8998,-187.9795C1207.5298,-184.2602 564.1675,-169.7139 336.9288,-131.7771"/>
<polygon fill="#191970" stroke="#191970" points="337.2004,-128.272 326.7493,-130.0113 336.0039,-135.169 337.2004,-128.272"/>
</g>
<!-- Node6 -->
<g id="node7" class="node">
<title>Node6</title>
<polygon fill="#ffffff" stroke="#bfbfbf" points="344.5,-112.5 344.5,-131.5 390.5,-131.5 390.5,-112.5 344.5,-112.5"/>
<text text-anchor="middle" x="367.5" y="-119.5" font-family="Helvetica,sans-Serif" font-size="10.00" fill="#000000">chrono</text>
</g>
<!-- Node0&#45;&gt;Node6 -->
<g id="edge6" class="edge">
<title>Node0&#45;&gt;Node6</title>
<path fill="none" stroke="#191970" d="M1406.9078,-187.7711C1215.1277,-183.5145 614.4796,-167.7557 400.6382,-131.7336"/>
<polygon fill="#191970" stroke="#191970" points="401.2046,-128.2796 390.7508,-130.0029 399.9976,-135.1748 401.2046,-128.2796"/>
</g>
<!-- Node7 -->
<g id="node8" class="node">
<title>Node7</title>
<polygon fill="#ffffff" stroke="#bfbfbf" points="409,-112.5 409,-131.5 504,-131.5 504,-112.5 409,-112.5"/>
<text text-anchor="middle" x="456.5" y="-119.5" font-family="Helvetica,sans-Serif" font-size="10.00" fill="#000000">condition_variable</text>
</g>
<!-- Node0&#45;&gt;Node7 -->
<g id="edge7" class="edge">
<title>Node0&#45;&gt;Node7</title>
<path fill="none" stroke="#191970" d="M1406.9104,-187.793C1258.0529,-184.272 857.8591,-171.6928 514.1776,-131.9392"/>
<polygon fill="#191970" stroke="#191970" points="514.3645,-128.4374 504.0263,-130.7552 513.5534,-135.3903 514.3645,-128.4374"/>
</g>
<!-- Node8 -->
<g id="node9" class="node">
<title>Node8</title>
<polygon fill="#ffffff" stroke="#bfbfbf" points="522.5,-112.5 522.5,-131.5 574.5,-131.5 574.5,-112.5 522.5,-112.5"/>
<text text-anchor="middle" x="548.5" y="-119.5" font-family="Helvetica,sans-Serif" font-size="10.00" fill="#000000">memory</text>
</g>
<!-- Node0&#45;&gt;Node8 -->
<g id="edge8" class="edge">
<title>Node0&#45;&gt;Node8</title>
<path fill="none" stroke="#191970" d="M1406.9173,-186.8165C1238.652,-180.3913 761.1845,-160.3097 584.6687,-131.8155"/>
<polygon fill="#191970" stroke="#191970" points="585.1751,-128.3516 574.7334,-130.1466 584.0154,-135.2549 585.1751,-128.3516"/>
</g>
<!-- Node9 -->
<g id="node10" class="node">
<title>Node9</title>
<polygon fill="#ffffff" stroke="#bfbfbf" points="592.5,-112.5 592.5,-131.5 636.5,-131.5 636.5,-112.5 592.5,-112.5"/>
<text text-anchor="middle" x="614.5" y="-119.5" font-family="Helvetica,sans-Serif" font-size="10.00" fill="#000000">mutex</text>
</g>
<!-- Node0&#45;&gt;Node9 -->
<g id="edge9" class="edge">
<title>Node0&#45;&gt;Node9</title>
<path fill="none" stroke="#191970" d="M1406.7116,-186.7334C1246.6363,-180.3711 809.9811,-161.0124 646.581,-131.721"/>
<polygon fill="#191970" stroke="#191970" points="647.1553,-128.2678 636.682,-129.8681 645.8674,-135.1483 647.1553,-128.2678"/>
</g>
<!-- Node10 -->
<g id="node11" class="node">
<title>Node10</title>
<polygon fill="#ffffff" stroke="#bfbfbf" points="655,-112.5 655,-131.5 704,-131.5 704,-112.5 655,-112.5"/>
<text text-anchor="middle" x="679.5" y="-119.5" font-family="Helvetica,sans-Serif" font-size="10.00" fill="#000000">random</text>
</g>
<!-- Node0&#45;&gt;Node10 -->
<g id="edge10" class="edge">
<title>Node0&#45;&gt;Node10</title>
<path fill="none" stroke="#191970" d="M1406.7483,-186.1051C1256.4267,-178.5671 864.4745,-157.2681 714.2064,-131.6991"/>
<polygon fill="#191970" stroke="#191970" points="714.6947,-128.2312 704.237,-129.93 713.4716,-135.1235 714.6947,-128.2312"/>
</g>
<!-- Node11 -->
<g id="node12" class="node">
<title>Node11</title>
<polygon fill="#ffffff" stroke="#bfbfbf" points="722.5,-112.5 722.5,-131.5 766.5,-131.5 766.5,-112.5 722.5,-112.5"/>
<text text-anchor="middle" x="744.5" y="-119.5" font-family="Helvetica,sans-Serif" font-size="10.00" fill="#000000">thread</text>
</g>
<!-- Node0&#45;&gt;Node11 -->
<g id="edge11" class="edge">
<title>Node0&#45;&gt;Node11</title>
<path fill="none" stroke="#191970" d="M1406.9227,-185.848C1265.8356,-178.1068 913.5194,-157.0834 776.56,-131.7428"/>
<polygon fill="#191970" stroke="#191970" points="777.1719,-128.2964 766.689,-129.8324 775.8418,-135.1689 777.1719,-128.2964"/>
</g>
<!-- Node12 -->
<g id="node13" class="node">
<title>Node12</title>
<polygon fill="#ffffff" stroke="#bfbfbf" points="784.5,-112.5 784.5,-131.5 838.5,-131.5 838.5,-112.5 784.5,-112.5"/>
<text text-anchor="middle" x="811.5" y="-119.5" font-family="Helvetica,sans-Serif" font-size="10.00" fill="#000000">iostream</text>
</g>
<!-- Node0&#45;&gt;Node12 -->
<g id="edge12" class="edge">
<title>Node0&#45;&gt;Node12</title>
<path fill="none" stroke="#191970" d="M1406.6951,-187.0508C1297.4024,-182.7157 1058.1393,-169.6495 848.4672,-131.8782"/>
<polygon fill="#191970" stroke="#191970" points="848.9717,-128.4125 838.5059,-130.0608 847.7153,-135.2988 848.9717,-128.4125"/>
</g>
<!-- Node13 -->
<g id="node14" class="node">
<title>Node13</title>
<polygon fill="#ffffff" stroke="#bfbfbf" points="857,-112.5 857,-131.5 898,-131.5 898,-112.5 857,-112.5"/>
<text text-anchor="middle" x="877.5" y="-119.5" font-family="Helvetica,sans-Serif" font-size="10.00" fill="#000000">future</text>
</g>
<!-- Node0&#45;&gt;Node13 -->
<g id="edge13" class="edge">
<title>Node0&#45;&gt;Node13</title>
<path fill="none" stroke="#191970" d="M1406.934,-187.4345C1305.6428,-183.7955 1093.5487,-171.9373 908.1686,-131.9679"/>
<polygon fill="#191970" stroke="#191970" points="908.7614,-128.5148 898.2443,-129.7953 907.2644,-135.3529 908.7614,-128.5148"/>
</g>
<!-- Node14 -->
<g id="node15" class="node">
<title>Node14</title>
<polygon fill="#ffffff" stroke="#bfbfbf" points="916,-112.5 916,-131.5 945,-131.5 945,-112.5 916,-112.5"/>
<text text-anchor="middle" x="930.5" y="-119.5" font-family="Helvetica,sans-Serif" font-size="10.00" fill="#000000">list</text>
</g>
<!-- Node0&#45;&gt;Node14 -->
<g id="edge14" class="edge">
<title>Node0&#45;&gt;Node14</title>
<path fill="none" stroke="#191970" d="M1406.9332,-184.6306C1294.5928,-176.0329 1054.4614,-155.8644 955.0915,-131.7274"/>
<polygon fill="#191970" stroke="#191970" points="955.9188,-128.3263 945.3623,-129.2268 954.1762,-135.106 955.9188,-128.3263"/>
</g>
<!-- Node15 -->
<g id="node16" class="node">
<title>Node15</title>
<polygon fill="#ffffff" stroke="#bfbfbf" points="963,-112.5 963,-131.5 1004,-131.5 1004,-112.5 963,-112.5"/>
<text text-anchor="middle" x="983.5" y="-119.5" font-family="Helvetica,sans-Serif" font-size="10.00" fill="#000000">string</text>
</g>
<!-- Node0&#45;&gt;Node15 -->
<g id="edge15" class="edge">
<title>Node0&#45;&gt;Node15</title>
<path fill="none" stroke="#191970" d="M1406.678,-185.4495C1321.143,-179.5042 1159.0678,-165.0119 1014.2144,-132.0373"/>
<polygon fill="#191970" stroke="#191970" points="1014.7894,-128.5779 1004.2579,-129.7349 1013.2123,-135.398 1014.7894,-128.5779"/>
</g>
<!-- Node16 -->
<g id="node17" class="node">
<title>Node16</title>
<polygon fill="#ffffff" stroke="#bfbfbf" points="1022,-112.5 1022,-131.5 1071,-131.5 1071,-112.5 1022,-112.5"/>
<text text-anchor="middle" x="1046.5" y="-119.5" font-family="Helvetica,sans-Serif" font-size="10.00" fill="#000000">cassert</text>
</g>
<!-- Node0&#45;&gt;Node16 -->
<g id="edge16" class="edge">
<title>Node0&#45;&gt;Node16</title>
<path fill="none" stroke="#191970" d="M1406.8489,-182.8058C1332.6158,-174.5168 1201.9148,-158.018 1081.0734,-131.8677"/>
<polygon fill="#191970" stroke="#191970" points="1081.7962,-128.4431 1071.2788,-129.7219 1080.2981,-135.2809 1081.7962,-128.4431"/>
</g>
<!-- Node17 -->
<g id="node18" class="node">
<title>Node17</title>
<polygon fill="#ffffff" stroke="#bfbfbf" points="1089.5,-112.5 1089.5,-131.5 1133.5,-131.5 1133.5,-112.5 1089.5,-112.5"/>
<text text-anchor="middle" x="1111.5" y="-119.5" font-family="Helvetica,sans-Serif" font-size="10.00" fill="#000000">cerrno</text>
</g>
<!-- Node0&#45;&gt;Node17 -->
<g id="edge17" class="edge">
<title>Node0&#45;&gt;Node17</title>
<path fill="none" stroke="#191970" d="M1406.8634,-181.0272C1343.6396,-172.0114 1240.8003,-155.741 1143.7247,-132.0487"/>
<polygon fill="#191970" stroke="#191970" points="1144.293,-128.5839 1133.7452,-129.5814 1142.6129,-135.3793 1144.293,-128.5839"/>
</g>
<!-- Node18 -->
<g id="node19" class="node">
<title>Node18</title>
<polygon fill="#ffffff" stroke="#bfbfbf" points="1152,-112.5 1152,-131.5 1195,-131.5 1195,-112.5 1152,-112.5"/>
<text text-anchor="middle" x="1173.5" y="-119.5" font-family="Helvetica,sans-Serif" font-size="10.00" fill="#000000">cstdio</text>
</g>
<!-- Node0&#45;&gt;Node18 -->
<g id="edge18" class="edge">
<title>Node0&#45;&gt;Node18</title>
<path fill="none" stroke="#191970" d="M1406.7769,-177.9729C1355.4809,-168.0679 1279.429,-152.3539 1205.0503,-132.2291"/>
<polygon fill="#191970" stroke="#191970" points="1205.6136,-128.7546 1195.0445,-129.4918 1203.7665,-135.5065 1205.6136,-128.7546"/>
</g>
<!-- Node19 -->
<g id="node20" class="node">
<title>Node19</title>
<polygon fill="#ffffff" stroke="#bfbfbf" points="1213,-112.5 1213,-131.5 1262,-131.5 1262,-112.5 1213,-112.5"/>
<text text-anchor="middle" x="1237.5" y="-119.5" font-family="Helvetica,sans-Serif" font-size="10.00" fill="#000000">cstddef</text>
</g>
<!-- Node0&#45;&gt;Node19 -->
<g id="edge19" class="edge">
<title>Node0&#45;&gt;Node19</title>
<path fill="none" stroke="#191970" d="M1406.8353,-171.8368C1370.3275,-161.2913 1322.4151,-147.3744 1272.1108,-132.4605"/>
<polygon fill="#191970" stroke="#191970" points="1272.9398,-129.0557 1262.3573,-129.5651 1270.9478,-135.7662 1272.9398,-129.0557"/>
</g>
<!-- Node20 -->
<g id="node21" class="node">
<title>Node20</title>
<polygon fill="#ffffff" stroke="#bfbfbf" points="1280,-112.5 1280,-131.5 1325,-131.5 1325,-112.5 1280,-112.5"/>
<text text-anchor="middle" x="1302.5" y="-119.5" font-family="Helvetica,sans-Serif" font-size="10.00" fill="#000000">cstdlib</text>
</g>
<!-- Node0&#45;&gt;Node20 -->
<g id="edge20" class="edge">
<title>Node0&#45;&gt;Node20</title>
<path fill="none" stroke="#191970" d="M1415.9564,-168.3511C1389.4394,-157.5179 1357.7495,-144.5714 1334.6099,-135.1181"/>
<polygon fill="#191970" stroke="#191970" points="1335.8373,-131.8388 1325.2564,-131.2968 1333.1899,-138.3188 1335.8373,-131.8388"/>
</g>
<!-- Node21 -->
<g id="node22" class="node">
<title>Node21</title>
<polygon fill="#ffffff" stroke="#bfbfbf" points="1343.5,-112.5 1343.5,-131.5 1393.5,-131.5 1393.5,-112.5 1343.5,-112.5"/>
<text text-anchor="middle" x="1368.5" y="-119.5" font-family="Helvetica,sans-Serif" font-size="10.00" fill="#000000">fstream</text>
</g>
<!-- Node0&#45;&gt;Node21 -->
<g id="edge21" class="edge">
<title>Node0&#45;&gt;Node21</title>
<path fill="none" stroke="#191970" d="M1436.2971,-168.3511C1421.7662,-158.4167 1404.6358,-146.7051 1391.2299,-137.5398"/>
<polygon fill="#191970" stroke="#191970" points="1392.8522,-134.4092 1382.6217,-131.6546 1388.9015,-140.1878 1392.8522,-134.4092"/>
</g>
<!-- Node22 -->
<g id="node23" class="node">
<title>Node22</title>
<polygon fill="#ffffff" stroke="#bfbfbf" points="1411.5,-112.5 1411.5,-131.5 1457.5,-131.5 1457.5,-112.5 1411.5,-112.5"/>
<text text-anchor="middle" x="1434.5" y="-119.5" font-family="Helvetica,sans-Serif" font-size="10.00" fill="#000000">stdio.h</text>
</g>
<!-- Node0&#45;&gt;Node22 -->
<g id="edge22" class="edge">
<title>Node0&#45;&gt;Node22</title>
<path fill="none" stroke="#191970" d="M1456.5504,-168.168C1452.3833,-159.4433 1447.5742,-149.374 1443.5126,-140.87"/>
<polygon fill="#191970" stroke="#191970" points="1446.6394,-139.2957 1439.1713,-131.7805 1440.3228,-142.3125 1446.6394,-139.2957"/>
</g>
<!-- Node23 -->
<g id="node24" class="node">
<title>Node23</title>
<polygon fill="#ffffff" stroke="#bfbfbf" points="1476,-112.5 1476,-131.5 1523,-131.5 1523,-112.5 1476,-112.5"/>
<text text-anchor="middle" x="1499.5" y="-119.5" font-family="Helvetica,sans-Serif" font-size="10.00" fill="#000000">math.h</text>
</g>
<!-- Node0&#45;&gt;Node23 -->
<g id="edge23" class="edge">
<title>Node0&#45;&gt;Node23</title>
<path fill="none" stroke="#191970" d="M1476.7605,-168.168C1481.0578,-159.4433 1486.0173,-149.374 1490.2058,-140.87"/>
<polygon fill="#191970" stroke="#191970" points="1493.404,-142.2979 1494.6828,-131.7805 1487.1244,-139.2049 1493.404,-142.2979"/>
</g>
<!-- Node24 -->
<g id="node25" class="node">
<title>Node24</title>
<polygon fill="#ffffff" stroke="#bfbfbf" points="1541,-112.5 1541,-131.5 1590,-131.5 1590,-112.5 1541,-112.5"/>
<text text-anchor="middle" x="1565.5" y="-119.5" font-family="Helvetica,sans-Serif" font-size="10.00" fill="#000000">string.h</text>
</g>
<!-- Node0&#45;&gt;Node24 -->
<g id="edge24" class="edge">
<title>Node0&#45;&gt;Node24</title>
<path fill="none" stroke="#191970" d="M1497.0111,-168.3511C1511.8314,-158.3212 1529.3285,-146.4797 1542.9278,-137.2762"/>
<polygon fill="#191970" stroke="#191970" points="1544.9142,-140.1581 1551.2342,-131.6546 1540.9908,-134.3609 1544.9142,-140.1581"/>
</g>
<!-- Node25 -->
<g id="node26" class="node">
<title>Node25</title>
<polygon fill="#ffffff" stroke="#bfbfbf" points="1608.5,-112.5 1608.5,-131.5 1656.5,-131.5 1656.5,-112.5 1608.5,-112.5"/>
<text text-anchor="middle" x="1632.5" y="-119.5" font-family="Helvetica,sans-Serif" font-size="10.00" fill="#000000">stdlib.h</text>
</g>
<!-- Node0&#45;&gt;Node25 -->
<g id="edge25" class="edge">
<title>Node0&#45;&gt;Node25</title>
<path fill="none" stroke="#191970" d="M1517.66,-168.3511C1544.167,-157.6525 1575.7806,-144.8928 1599.1217,-135.472"/>
<polygon fill="#191970" stroke="#191970" points="1600.6164,-138.6431 1608.5796,-131.6546 1597.9964,-132.1519 1600.6164,-138.6431"/>
</g>
<!-- Node26 -->
<g id="node27" class="node">
<title>Node26</title>
<polygon fill="#ffffff" stroke="#bfbfbf" points="1675,-112.5 1675,-131.5 1726,-131.5 1726,-112.5 1675,-112.5"/>
<text text-anchor="middle" x="1700.5" y="-119.5" font-family="Helvetica,sans-Serif" font-size="10.00" fill="#000000">unistd.h</text>
</g>
<!-- Node0&#45;&gt;Node26 -->
<g id="edge26" class="edge">
<title>Node0&#45;&gt;Node26</title>
<path fill="none" stroke="#191970" d="M1526.1535,-171.9197C1570.092,-159.339 1628.366,-142.6538 1665.1558,-132.1199"/>
<polygon fill="#191970" stroke="#191970" points="1666.2827,-135.438 1674.9329,-129.3205 1664.3558,-128.7084 1666.2827,-135.438"/>
</g>
<!-- Node27 -->
<g id="node28" class="node">
<title>Node27</title>
<polygon fill="#ffffff" stroke="#bfbfbf" points="1744,-112.5 1744,-131.5 1795,-131.5 1795,-112.5 1744,-112.5"/>
<text text-anchor="middle" x="1769.5" y="-119.5" font-family="Helvetica,sans-Serif" font-size="10.00" fill="#000000">valarray</text>
</g>
<!-- Node0&#45;&gt;Node27 -->
<g id="edge27" class="edge">
<title>Node0&#45;&gt;Node27</title>
<path fill="none" stroke="#191970" d="M1526.1126,-177.5428C1578.3666,-167.2225 1656.5616,-151.1102 1734.0092,-131.9915"/>
<polygon fill="#191970" stroke="#191970" points="1735.0803,-135.3318 1743.9402,-129.5221 1733.3912,-128.5387 1735.0803,-135.3318"/>
</g>
<!-- Node28 -->
<g id="node29" class="node">
<title>Node28</title>
<g id="a_node29"><a xlink:href="_global_types_8h.html" target="_top" xlink:title="GlobalTypes.h">
<polygon fill="#ffffff" stroke="#000000" points="1825.5,-.5 1825.5,-19.5 1905.5,-19.5 1905.5,-.5 1825.5,-.5"/>
<text text-anchor="middle" x="1865.5" y="-7.5" font-family="Helvetica,sans-Serif" font-size="10.00" fill="#000000">GlobalTypes.h</text>
</a>
</g>
</g>
<!-- Node0&#45;&gt;Node28 -->
<g id="edge28" class="edge">
<title>Node0&#45;&gt;Node28</title>
<path fill="none" stroke="#191970" d="M1526.2408,-185.3034C1610.9329,-179.008 1760.4171,-163.6826 1803.5,-132 1804.6487,-131.1553 1838.9646,-62.9222 1856.0393,-28.8813"/>
<polygon fill="#191970" stroke="#191970" points="1859.1902,-30.4058 1860.5433,-19.8977 1852.9326,-27.2685 1859.1902,-30.4058"/>
</g>
<!-- Node29 -->
<g id="node30" class="node">
<title>Node29</title>
<g id="a_node30"><a xlink:href="_i_state_message_8h.html" target="_top" xlink:title="IStateMessage.h">
<polygon fill="#ffffff" stroke="#000000" points="2140,-112.5 2140,-131.5 2231,-131.5 2231,-112.5 2140,-112.5"/>
<text text-anchor="middle" x="2185.5" y="-119.5" font-family="Helvetica,sans-Serif" font-size="10.00" fill="#000000">IStateMessage.h</text>
</a>
</g>
</g>
<!-- Node0&#45;&gt;Node29 -->
<g id="edge29" class="edge">
<title>Node0&#45;&gt;Node29</title>
<path fill="none" stroke="#191970" d="M1526.1873,-185.4203C1642.0348,-178.1223 1905.329,-159.8254 2125.5,-132 2126.7965,-131.8361 2128.1079,-131.6648 2129.4297,-131.487"/>
<polygon fill="#191970" stroke="#191970" points="2130.2898,-134.8996 2139.6924,-130.0167 2129.297,-127.9703 2130.2898,-134.8996"/>
</g>
<!-- Node30 -->
<g id="node31" class="node">
<title>Node30</title>
<g id="a_node31"><a xlink:href="_messaging_queue_listener_8h.html" target="_top" xlink:title="MessagingQueueListener.h">
<polygon fill="#ffffff" stroke="#000000" points="2249,-112.5 2249,-131.5 2384,-131.5 2384,-112.5 2249,-112.5"/>
<text text-anchor="middle" x="2316.5" y="-119.5" font-family="Helvetica,sans-Serif" font-size="10.00" fill="#000000">MessagingQueueListener.h</text>
</a>
</g>
</g>
<!-- Node0&#45;&gt;Node30 -->
<g id="edge30" class="edge">
<title>Node0&#45;&gt;Node30</title>
<path fill="none" stroke="#191970" d="M1526.3258,-185.7659C1654.8422,-178.5646 1967.0291,-159.7117 2238.9175,-132.1157"/>
<polygon fill="#191970" stroke="#191970" points="2239.3857,-135.5862 2248.9785,-131.0886 2238.6748,-128.6224 2239.3857,-135.5862"/>
</g>
<!-- Node31 -->
<g id="node32" class="node">
<title>Node31</title>
<g id="a_node32"><a xlink:href="_i_maple_object_8h.html" target="_top" xlink:title="IMapleObject.h">
<polygon fill="#ffffff" stroke="#000000" points="2402,-112.5 2402,-131.5 2485,-131.5 2485,-112.5 2402,-112.5"/>
<text text-anchor="middle" x="2443.5" y="-119.5" font-family="Helvetica,sans-Serif" font-size="10.00" fill="#000000">IMapleObject.h</text>
</a>
</g>
</g>
<!-- Node0&#45;&gt;Node31 -->
<g id="edge31" class="edge">
<title>Node0&#45;&gt;Node31</title>
<path fill="none" stroke="#191970" d="M1526.1438,-188.1389C1672.2724,-185.4269 2059.8604,-174.5936 2391.5381,-132.1057"/>
<polygon fill="#191970" stroke="#191970" points="2392.36,-135.5287 2401.8284,-130.7749 2391.4621,-128.5865 2392.36,-135.5287"/>
</g>
<!-- Node32 -->
<g id="node33" class="node">
<title>Node32</title>
<g id="a_node33"><a xlink:href="_i_looping_transport_8h.html" target="_top" xlink:title="ILoopingTransport.h">
<polygon fill="#ffffff" stroke="#000000" points="2503,-112.5 2503,-131.5 2606,-131.5 2606,-112.5 2503,-112.5"/>
<text text-anchor="middle" x="2554.5" y="-119.5" font-family="Helvetica,sans-Serif" font-size="10.00" fill="#000000">ILoopingTransport.h</text>
</a>
</g>
</g>
<!-- Node0&#45;&gt;Node32 -->
<g id="edge32" class="edge">
<title>Node0&#45;&gt;Node32</title>
<path fill="none" stroke="#191970" d="M1526.0785,-187.981C1682.8452,-184.8106 2119.8621,-172.8142 2492.661,-132.1004"/>
<polygon fill="#191970" stroke="#191970" points="2493.2826,-135.5532 2502.8395,-130.9798 2492.5165,-128.5952 2493.2826,-135.5532"/>
</g>
<!-- Node33 -->
<g id="node34" class="node">
<title>Node33</title>
<g id="a_node34"><a xlink:href="_i_note_object_8h.html" target="_top" xlink:title="INoteObject.h">
<polygon fill="#ffffff" stroke="#000000" points="2624,-112.5 2624,-131.5 2701,-131.5 2701,-112.5 2624,-112.5"/>
<text text-anchor="middle" x="2662.5" y="-119.5" font-family="Helvetica,sans-Serif" font-size="10.00" fill="#000000">INoteObject.h</text>
</a>
</g>
</g>
<!-- Node0&#45;&gt;Node33 -->
<g id="edge33" class="edge">
<title>Node0&#45;&gt;Node33</title>
<path fill="none" stroke="#191970" d="M1526.2231,-187.3019C1727.6742,-181.3789 2382.0504,-160.5017 2613.8032,-132.0101"/>
<polygon fill="#191970" stroke="#191970" points="2614.3762,-135.4655 2623.856,-130.7344 2613.4949,-128.5212 2614.3762,-135.4655"/>
</g>
<!-- Node34 -->
<g id="node35" class="node">
<title>Node34</title>
<g id="a_node35"><a xlink:href="_note_player_8h.html" target="_top" xlink:title="NotePlayer.h">
<polygon fill="#ffffff" stroke="#000000" points="2719.5,-112.5 2719.5,-131.5 2793.5,-131.5 2793.5,-112.5 2719.5,-112.5"/>
<text text-anchor="middle" x="2756.5" y="-119.5" font-family="Helvetica,sans-Serif" font-size="10.00" fill="#000000">NotePlayer.h</text>
</a>
</g>
</g>
<!-- Node0&#45;&gt;Node34 -->
<g id="edge34" class="edge">
<title>Node0&#45;&gt;Node34</title>
<path fill="none" stroke="#191970" d="M1526.255,-187.5962C1738.6247,-182.4017 2457.2129,-163.019 2709.2285,-131.9179"/>
<polygon fill="#191970" stroke="#191970" points="2709.9591,-135.3532 2719.4368,-130.6178 2709.0747,-128.4093 2709.9591,-135.3532"/>
</g>
<!-- Node35 -->
<g id="node36" class="node">
<title>Node35</title>
<g id="a_node36"><a xlink:href="_i_bio_signal_processor_8h.html" target="_top" xlink:title="IBioSignalProcessor.h">
<polygon fill="#ffffff" stroke="#000000" points="1852,-56.5 1852,-75.5 1965,-75.5 1965,-56.5 1852,-56.5"/>
<text text-anchor="middle" x="1908.5" y="-63.5" font-family="Helvetica,sans-Serif" font-size="10.00" fill="#000000">IBioSignalProcessor.h</text>
</a>
</g>
</g>
<!-- Node0&#45;&gt;Node35 -->
<g id="edge35" class="edge">
<title>Node0&#45;&gt;Node35</title>
<path fill="none" stroke="#191970" d="M1526.3337,-184.1076C1616.853,-175.9884 1783.754,-158.0075 1837.5,-132 1861.019,-120.6192 1882.1241,-98.7689 1895.0934,-83.333"/>
<polygon fill="#191970" stroke="#191970" points="1897.8453,-85.4963 1901.4252,-75.5246 1892.4082,-81.0874 1897.8453,-85.4963"/>
</g>
<!-- Node36 -->
<g id="node37" class="node">
<title>Node36</title>
<g id="a_node37"><a xlink:href="_i_bio_signal_processor_callback_8h.html" target="_top" xlink:title="IBioSignalProcessorCallback.h">
<polygon fill="#ffffff" stroke="#000000" points="1983.5,-56.5 1983.5,-75.5 2135.5,-75.5 2135.5,-56.5 1983.5,-56.5"/>
<text text-anchor="middle" x="2059.5" y="-63.5" font-family="Helvetica,sans-Serif" font-size="10.00" fill="#000000">IBioSignalProcessorCallback.h</text>
</a>
</g>
</g>
<!-- Node0&#45;&gt;Node36 -->
<g id="edge37" class="edge">
<title>Node0&#45;&gt;Node36</title>
<path fill="none" stroke="#191970" d="M1526.2016,-187.4876C1668.3991,-183.2923 2018.0166,-169.2586 2054.5,-132 2066.16,-120.0923 2066.2133,-100.4937 2064.0687,-85.7403"/>
<polygon fill="#191970" stroke="#191970" points="2067.4507,-84.7873 2062.156,-75.6103 2060.5722,-86.0861 2067.4507,-84.7873"/>
</g>
<!-- Node37 -->
<g id="node38" class="node">
<title>Node37</title>
<g id="a_node38"><a xlink:href="_i_input_signal_8h.html" target="_top" xlink:title="IInputSignal.h">
<polygon fill="#ffffff" stroke="#000000" points="2154,-56.5 2154,-75.5 2231,-75.5 2231,-56.5 2154,-56.5"/>
<text text-anchor="middle" x="2192.5" y="-63.5" font-family="Helvetica,sans-Serif" font-size="10.00" fill="#000000">IInputSignal.h</text>
</a>
</g>
</g>
<!-- Node0&#45;&gt;Node37 -->
<g id="edge38" class="edge">
<title>Node0&#45;&gt;Node37</title>
<path fill="none" stroke="#191970" d="M1526.3077,-186.4692C1658.437,-180.378 1971.4945,-163.0581 2072.5,-132 2109.4161,-120.6487 2147.7982,-97.1299 2170.9228,-81.455"/>
<polygon fill="#191970" stroke="#191970" points="2173.05,-84.2394 2179.286,-75.6742 2169.0698,-78.4811 2173.05,-84.2394"/>
</g>
<!-- Node38 -->
<g id="node39" class="node">
<title>Node38</title>
<g id="a_node39"><a xlink:href="_i_input_track_8h.html" target="_top" xlink:title="IInputTrack.h">
<polygon fill="#ffffff" stroke="#000000" points="2811.5,-112.5 2811.5,-131.5 2885.5,-131.5 2885.5,-112.5 2811.5,-112.5"/>
<text text-anchor="middle" x="2848.5" y="-119.5" font-family="Helvetica,sans-Serif" font-size="10.00" fill="#000000">IInputTrack.h</text>
</a>
</g>
</g>
<!-- Node0&#45;&gt;Node38 -->
<g id="edge39" class="edge">
<title>Node0&#45;&gt;Node38</title>
<path fill="none" stroke="#191970" d="M1526.2163,-187.0564C1763.5354,-179.2518 2634.7049,-149.81 2801.1007,-131.8476"/>
<polygon fill="#191970" stroke="#191970" points="2801.9171,-135.2756 2811.4381,-130.628 2801.0969,-128.3238 2801.9171,-135.2756"/>
</g>
<!-- Node39 -->
<g id="node40" class="node">
<title>Node39</title>
<g id="a_node40"><a xlink:href="_i_maple_model_8h.html" target="_top" xlink:title="IMapleModel.h">
<polygon fill="#ffffff" stroke="#000000" points="2903.5,-112.5 2903.5,-131.5 2983.5,-131.5 2983.5,-112.5 2903.5,-112.5"/>
<text text-anchor="middle" x="2943.5" y="-119.5" font-family="Helvetica,sans-Serif" font-size="10.00" fill="#000000">IMapleModel.h</text>
</a>
</g>
</g>
<!-- Node0&#45;&gt;Node39 -->
<g id="edge40" class="edge">
<title>Node0&#45;&gt;Node39</title>
<path fill="none" stroke="#191970" d="M1526.3977,-187.899C1758.9702,-183.4263 2603.1433,-165.3057 2893.3856,-131.9108"/>
<polygon fill="#191970" stroke="#191970" points="2893.9556,-135.3679 2903.4748,-130.7164 2893.1326,-128.4164 2893.9556,-135.3679"/>
</g>
<!-- Node40 -->
<g id="node41" class="node">
<title>Node40</title>
<g id="a_node41"><a xlink:href="_i_sequence_channel_8h.html" target="_top" xlink:title="ISequenceChannel.h">
<polygon fill="#ffffff" stroke="#000000" points="3002,-112.5 3002,-131.5 3109,-131.5 3109,-112.5 3002,-112.5"/>
<text text-anchor="middle" x="3055.5" y="-119.5" font-family="Helvetica,sans-Serif" font-size="10.00" fill="#000000">ISequenceChannel.h</text>
</a>
</g>
</g>
<!-- Node0&#45;&gt;Node40 -->
<g id="edge41" class="edge">
<title>Node0&#45;&gt;Node40</title>
<path fill="none" stroke="#191970" d="M1526.2526,-187.7287C1768.574,-182.4262 2679.4969,-161.0339 2991.5411,-131.9441"/>
<polygon fill="#191970" stroke="#191970" points="2992.3186,-135.3858 3001.94,-130.9499 2991.6523,-128.4176 2992.3186,-135.3858"/>
</g>
<!-- Node41 -->
<g id="node42" class="node">
<title>Node41</title>
<g id="a_node42"><a xlink:href="_generic_bio_signal_processor_8hpp.html" target="_top" xlink:title="GenericBioSignalProcessor.hpp">
<polygon fill="#ffffff" stroke="#000000" points="1890,-112.5 1890,-131.5 2045,-131.5 2045,-112.5 1890,-112.5"/>
<text text-anchor="middle" x="1967.5" y="-119.5" font-family="Helvetica,sans-Serif" font-size="10.00" fill="#000000">GenericBioSignalProcessor.hpp</text>
</a>
</g>
</g>
<!-- Node0&#45;&gt;Node41 -->
<g id="edge42" class="edge">
<title>Node0&#45;&gt;Node41</title>
<path fill="none" stroke="#191970" d="M1526.4347,-180.9848C1616.0794,-168.9964 1785.2959,-146.3666 1886.0659,-132.8904"/>
<polygon fill="#191970" stroke="#191970" points="1886.7523,-136.3298 1896.2001,-131.5351 1885.8244,-129.3916 1886.7523,-136.3298"/>
</g>
<!-- Node42 -->
<g id="node43" class="node">
<title>Node42</title>
<g id="a_node43"><a xlink:href="_midi_controller_8hpp.html" target="_top" xlink:title="MidiController.hpp">
<polygon fill="#ffffff" stroke="#000000" points="3127,-112.5 3127,-131.5 3222,-131.5 3222,-112.5 3127,-112.5"/>
<text text-anchor="middle" x="3174.5" y="-119.5" font-family="Helvetica,sans-Serif" font-size="10.00" fill="#000000">MidiController.hpp</text>
</a>
</g>
</g>
<!-- Node0&#45;&gt;Node42 -->
<g id="edge46" class="edge">
<title>Node0&#45;&gt;Node42</title>
<path fill="none" stroke="#191970" d="M1526.3464,-188.077C1781.4181,-183.9692 2779.7175,-166.08 3116.6495,-132.037"/>
<polygon fill="#191970" stroke="#191970" points="3117.3211,-135.4862 3126.9069,-130.9737 3116.5993,-128.5235 3117.3211,-135.4862"/>
</g>
<!-- Node43 -->
<g id="node44" class="node">
<title>Node43</title>
<g id="a_node44"><a xlink:href="_i_plugin_8h.html" target="_top" xlink:title="IPlugin.h">
<polygon fill="#ffffff" stroke="#000000" points="3240,-112.5 3240,-131.5 3295,-131.5 3295,-112.5 3240,-112.5"/>
<text text-anchor="middle" x="3267.5" y="-119.5" font-family="Helvetica,sans-Serif" font-size="10.00" fill="#000000">IPlugin.h</text>
</a>
</g>
</g>
<!-- Node0&#45;&gt;Node43 -->
<g id="edge47" class="edge">
<title>Node0&#45;&gt;Node43</title>
<path fill="none" stroke="#191970" d="M1526.0011,-187.9219C1809.4946,-182.6734 3017.8731,-159.0053 3229.6047,-131.8384"/>
<polygon fill="#191970" stroke="#191970" points="3230.3176,-135.2727 3239.7349,-130.4182 3229.3458,-128.3405 3230.3176,-135.2727"/>
</g>
<!-- Node3 -->
<g id="node4" class="node">
<title>Node3</title>
<polygon fill="#ffffff" stroke="#bfbfbf" points="85.5,-56.5 85.5,-75.5 137.5,-75.5 137.5,-56.5 85.5,-56.5"/>
<text text-anchor="middle" x="111.5" y="-63.5" font-family="Helvetica,sans-Serif" font-size="10.00" fill="#000000">stddef.h</text>
</g>
<!-- Node2&#45;&gt;Node3 -->
<g id="edge3" class="edge">
<title>Node2&#45;&gt;Node3</title>
<path fill="none" stroke="#191970" d="M111.5,-112.2455C111.5,-104.9382 111.5,-94.6944 111.5,-85.7046"/>
<polygon fill="#191970" stroke="#191970" points="115.0001,-85.6426 111.5,-75.6427 108.0001,-85.6427 115.0001,-85.6426"/>
</g>
<!-- Node35&#45;&gt;Node28 -->
<g id="edge36" class="edge">
<title>Node35&#45;&gt;Node28</title>
<path fill="none" stroke="#191970" d="M1901.01,-56.2455C1894.9674,-48.3761 1886.3097,-37.101 1879.0559,-27.6542"/>
<polygon fill="#191970" stroke="#191970" points="1881.7705,-25.4426 1872.9042,-19.6427 1876.2185,-29.7058 1881.7705,-25.4426"/>
</g>
<!-- Node41&#45;&gt;Node35 -->
<g id="edge45" class="edge">
<title>Node41&#45;&gt;Node35</title>
<path fill="none" stroke="#191970" d="M1957.223,-112.2455C1948.6782,-104.1352 1936.3222,-92.4075 1926.1915,-82.7919"/>
<polygon fill="#191970" stroke="#191970" points="1928.3218,-79.9884 1918.6592,-75.6427 1923.5028,-85.0655 1928.3218,-79.9884"/>
</g>
<!-- Node41&#45;&gt;Node36 -->
<g id="edge43" class="edge">
<title>Node41&#45;&gt;Node36</title>
<path fill="none" stroke="#191970" d="M1983.5252,-112.2455C1997.6408,-103.6534 2018.4263,-91.0014 2034.6899,-81.1018"/>
<polygon fill="#191970" stroke="#191970" points="2036.9363,-83.8319 2043.6585,-75.6427 2033.2966,-77.8525 2036.9363,-83.8319"/>
</g>
<!-- Node41&#45;&gt;Node37 -->
<g id="edge44" class="edge">
<title>Node41&#45;&gt;Node37</title>
<path fill="none" stroke="#191970" d="M2005.9232,-112.4369C2044.1875,-102.9133 2103.0337,-88.2672 2144.3849,-77.9753"/>
<polygon fill="#191970" stroke="#191970" points="2145.3766,-81.3353 2154.2353,-75.5237 2143.6859,-74.5426 2145.3766,-81.3353"/>
</g>
</g>
</svg>
