<?xml version="1.0" encoding="UTF-8" standalone="no"?>
<!DOCTYPE svg PUBLIC "-//W3C//DTD SVG 1.1//EN"
 "http://www.w3.org/Graphics/SVG/1.1/DTD/svg11.dtd">
<!-- Generated by graphviz version 2.40.1 (20161225.0304)
 -->
<!-- Title: medimuse::NoteEventBuffer Pages: 1 -->
<svg width="160pt" height="375pt"
 viewBox="0.00 0.00 160.00 375.00" xmlns="http://www.w3.org/2000/svg" xmlns:xlink="http://www.w3.org/1999/xlink">
<g id="graph0" class="graph" transform="scale(1 1) rotate(0) translate(4 371)">
<title>medimuse::NoteEventBuffer</title>
<polygon fill="#ffffff" stroke="transparent" points="-4,4 -4,-371 156,-371 156,4 -4,4"/>
<!-- Node1 -->
<g id="node1" class="node">
<title>Node1</title>
<polygon fill="#bfbfbf" stroke="#000000" points="6,-.5 6,-68.5 146,-68.5 146,-.5 6,-.5"/>
<text text-anchor="middle" x="76" y="-56.5" font-family="Helvetica,sans-Serif" font-size="10.00" fill="#000000">medimuse::NoteEventBuffer</text>
<polyline fill="none" stroke="#000000" points="6,-49.5 146,-49.5 "/>
<text text-anchor="start" x="14" y="-37.5" font-family="Helvetica,sans-Serif" font-size="10.00" fill="#000000">+ numberNoteOns</text>
<text text-anchor="start" x="14" y="-26.5" font-family="Helvetica,sans-Serif" font-size="10.00" fill="#000000">+ numberNoteOffs</text>
<polyline fill="none" stroke="#000000" points="6,-19.5 146,-19.5 "/>
<text text-anchor="middle" x="76" y="-7.5" font-family="Helvetica,sans-Serif" font-size="10.00" fill="#000000"> </text>
</g>
<!-- Node2 -->
<g id="node2" class="node">
<title>Node2</title>
<g id="a_node2"><a xlink:href="structmedimuse_1_1_note_stack_instance.html" target="_top" xlink:title="{medimuse::NoteStackInstance\n|+ hitPPQ\l+ noteStackSize\l|}">
<polygon fill="#ffffff" stroke="#000000" points="0,-127.5 0,-195.5 152,-195.5 152,-127.5 0,-127.5"/>
<text text-anchor="middle" x="76" y="-183.5" font-family="Helvetica,sans-Serif" font-size="10.00" fill="#000000">medimuse::NoteStackInstance</text>
<polyline fill="none" stroke="#000000" points="0,-176.5 152,-176.5 "/>
<text text-anchor="start" x="8" y="-164.5" font-family="Helvetica,sans-Serif" font-size="10.00" fill="#000000">+ hitPPQ</text>
<text text-anchor="start" x="8" y="-153.5" font-family="Helvetica,sans-Serif" font-size="10.00" fill="#000000">+ noteStackSize</text>
<polyline fill="none" stroke="#000000" points="0,-146.5 152,-146.5 "/>
<text text-anchor="middle" x="76" y="-134.5" font-family="Helvetica,sans-Serif" font-size="10.00" fill="#000000"> </text>
</a>
</g>
</g>
<!-- Node2&#45;&gt;Node1 -->
<g id="edge1" class="edge">
<title>Node2&#45;&gt;Node1</title>
<path fill="none" stroke="#404040" d="M76,-127.4663C76,-113.0883 76,-96.1205 76,-80.6429"/>
<polygon fill="none" stroke="#404040" points="76.0001,-80.6276 72,-74.6276 76,-68.6276 80,-74.6276 76.0001,-80.6276"/>
<text text-anchor="middle" x="99" y="-101" font-family="Helvetica,sans-Serif" font-size="10.00" fill="#000000"> +noteOns</text>
<text text-anchor="middle" x="99" y="-90" font-family="Helvetica,sans-Serif" font-size="10.00" fill="#000000">+noteOffs</text>
</g>
<!-- Node3 -->
<g id="node3" class="node">
<title>Node3</title>
<g id="a_node3"><a xlink:href="structmedimuse_1_1_i_note_object.html" target="_top" xlink:title="The INoteObject represents musical notes. ">
<polygon fill="#ffffff" stroke="#000000" points="16,-243.5 16,-366.5 136,-366.5 136,-243.5 16,-243.5"/>
<text text-anchor="middle" x="76" y="-354.5" font-family="Helvetica,sans-Serif" font-size="10.00" fill="#000000">medimuse::INoteObject</text>
<polyline fill="none" stroke="#000000" points="16,-347.5 136,-347.5 "/>
<text text-anchor="start" x="24" y="-335.5" font-family="Helvetica,sans-Serif" font-size="10.00" fill="#000000">+ duration</text>
<text text-anchor="start" x="24" y="-324.5" font-family="Helvetica,sans-Serif" font-size="10.00" fill="#000000">+ frequency</text>
<text text-anchor="start" x="24" y="-313.5" font-family="Helvetica,sans-Serif" font-size="10.00" fill="#000000">+ velocity</text>
<text text-anchor="start" x="24" y="-302.5" font-family="Helvetica,sans-Serif" font-size="10.00" fill="#000000">+ muted</text>
<polyline fill="none" stroke="#000000" points="16,-295.5 136,-295.5 "/>
<text text-anchor="start" x="24" y="-283.5" font-family="Helvetica,sans-Serif" font-size="10.00" fill="#000000">+ INoteObject()</text>
<text text-anchor="start" x="24" y="-272.5" font-family="Helvetica,sans-Serif" font-size="10.00" fill="#000000">+ operator==()</text>
<text text-anchor="start" x="24" y="-261.5" font-family="Helvetica,sans-Serif" font-size="10.00" fill="#000000">+ operator!=()</text>
<text text-anchor="start" x="24" y="-250.5" font-family="Helvetica,sans-Serif" font-size="10.00" fill="#000000">+ operator=()</text>
</a>
</g>
</g>
<!-- Node3&#45;&gt;Node2 -->
<g id="edge2" class="edge">
<title>Node3&#45;&gt;Node2</title>
<path fill="none" stroke="#404040" d="M76,-243.3103C76,-231.4991 76,-219.3169 76,-208.0782"/>
<polygon fill="none" stroke="#404040" points="76.0001,-207.8604 72,-201.8605 76,-195.8604 80,-201.8604 76.0001,-207.8604"/>
<text text-anchor="middle" x="103" y="-217" font-family="Helvetica,sans-Serif" font-size="10.00" fill="#000000"> +noteStack</text>
</g>
</g>
</svg>
