<?xml version="1.0" encoding="UTF-8" standalone="no"?>
<!DOCTYPE svg PUBLIC "-//W3C//DTD SVG 1.1//EN"
 "http://www.w3.org/Graphics/SVG/1.1/DTD/svg11.dtd">
<!-- Generated by graphviz version 2.40.1 (20161225.0304)
 -->
<!-- Title: NoteEventBuffer Pages: 1 -->
<svg width="113pt" height="375pt"
 viewBox="0.00 0.00 112.50 375.00" xmlns="http://www.w3.org/2000/svg" xmlns:xlink="http://www.w3.org/1999/xlink">
<g id="graph0" class="graph" transform="scale(1 1) rotate(0) translate(4 371)">
<title>NoteEventBuffer</title>
<polygon fill="#ffffff" stroke="transparent" points="-4,4 -4,-371 108.5,-371 108.5,4 -4,4"/>
<!-- Node1 -->
<g id="node1" class="node">
<title>Node1</title>
<polygon fill="#bfbfbf" stroke="#000000" points="1.5,-.5 1.5,-68.5 99.5,-68.5 99.5,-.5 1.5,-.5"/>
<text text-anchor="middle" x="50.5" y="-56.5" font-family="Helvetica,sans-Serif" font-size="10.00" fill="#000000">NoteEventBuffer</text>
<polyline fill="none" stroke="#000000" points="1.5,-49.5 99.5,-49.5 "/>
<text text-anchor="start" x="9.5" y="-37.5" font-family="Helvetica,sans-Serif" font-size="10.00" fill="#000000">+ numberNoteOns</text>
<text text-anchor="start" x="9.5" y="-26.5" font-family="Helvetica,sans-Serif" font-size="10.00" fill="#000000">+ numberNoteOffs</text>
<polyline fill="none" stroke="#000000" points="1.5,-19.5 99.5,-19.5 "/>
<text text-anchor="middle" x="50.5" y="-7.5" font-family="Helvetica,sans-Serif" font-size="10.00" fill="#000000"> </text>
</g>
<!-- Node2 -->
<g id="node2" class="node">
<title>Node2</title>
<g id="a_node2"><a xlink:href="struct_note_stack_instance.html" target="_top" xlink:title="{NoteStackInstance\n|+ hitPPQ\l+ noteStackSize\l|}">
<polygon fill="#ffffff" stroke="#000000" points="0,-127.5 0,-195.5 101,-195.5 101,-127.5 0,-127.5"/>
<text text-anchor="middle" x="50.5" y="-183.5" font-family="Helvetica,sans-Serif" font-size="10.00" fill="#000000">NoteStackInstance</text>
<polyline fill="none" stroke="#000000" points="0,-176.5 101,-176.5 "/>
<text text-anchor="start" x="8" y="-164.5" font-family="Helvetica,sans-Serif" font-size="10.00" fill="#000000">+ hitPPQ</text>
<text text-anchor="start" x="8" y="-153.5" font-family="Helvetica,sans-Serif" font-size="10.00" fill="#000000">+ noteStackSize</text>
<polyline fill="none" stroke="#000000" points="0,-146.5 101,-146.5 "/>
<text text-anchor="middle" x="50.5" y="-134.5" font-family="Helvetica,sans-Serif" font-size="10.00" fill="#000000"> </text>
</a>
</g>
</g>
<!-- Node2&#45;&gt;Node1 -->
<g id="edge1" class="edge">
<title>Node2&#45;&gt;Node1</title>
<path fill="none" stroke="#404040" d="M50.5,-127.4663C50.5,-113.0883 50.5,-96.1205 50.5,-80.6429"/>
<polygon fill="none" stroke="#404040" points="50.5001,-80.6276 46.5,-74.6276 50.5,-68.6276 54.5,-74.6276 50.5001,-80.6276"/>
<text text-anchor="middle" x="73.5" y="-101" font-family="Helvetica,sans-Serif" font-size="10.00" fill="#000000"> +noteOns</text>
<text text-anchor="middle" x="73.5" y="-90" font-family="Helvetica,sans-Serif" font-size="10.00" fill="#000000">+noteOffs</text>
</g>
<!-- Node3 -->
<g id="node3" class="node">
<title>Node3</title>
<g id="a_node3"><a xlink:href="struct_i_note_object.html" target="_top" xlink:title="The INoteObject represents musical notes. ">
<polygon fill="#ffffff" stroke="#000000" points="8.5,-243.5 8.5,-366.5 92.5,-366.5 92.5,-243.5 8.5,-243.5"/>
<text text-anchor="middle" x="50.5" y="-354.5" font-family="Helvetica,sans-Serif" font-size="10.00" fill="#000000">INoteObject</text>
<polyline fill="none" stroke="#000000" points="8.5,-347.5 92.5,-347.5 "/>
<text text-anchor="start" x="16.5" y="-335.5" font-family="Helvetica,sans-Serif" font-size="10.00" fill="#000000">+ duration</text>
<text text-anchor="start" x="16.5" y="-324.5" font-family="Helvetica,sans-Serif" font-size="10.00" fill="#000000">+ frequency</text>
<text text-anchor="start" x="16.5" y="-313.5" font-family="Helvetica,sans-Serif" font-size="10.00" fill="#000000">+ velocity</text>
<text text-anchor="start" x="16.5" y="-302.5" font-family="Helvetica,sans-Serif" font-size="10.00" fill="#000000">+ muted</text>
<polyline fill="none" stroke="#000000" points="8.5,-295.5 92.5,-295.5 "/>
<text text-anchor="start" x="16.5" y="-283.5" font-family="Helvetica,sans-Serif" font-size="10.00" fill="#000000">+ INoteObject()</text>
<text text-anchor="start" x="16.5" y="-272.5" font-family="Helvetica,sans-Serif" font-size="10.00" fill="#000000">+ operator==()</text>
<text text-anchor="start" x="16.5" y="-261.5" font-family="Helvetica,sans-Serif" font-size="10.00" fill="#000000">+ operator!=()</text>
<text text-anchor="start" x="16.5" y="-250.5" font-family="Helvetica,sans-Serif" font-size="10.00" fill="#000000">+ operator=()</text>
</a>
</g>
</g>
<!-- Node3&#45;&gt;Node2 -->
<g id="edge2" class="edge">
<title>Node3&#45;&gt;Node2</title>
<path fill="none" stroke="#404040" d="M50.5,-243.3103C50.5,-231.4991 50.5,-219.3169 50.5,-208.0782"/>
<polygon fill="none" stroke="#404040" points="50.5001,-207.8604 46.5,-201.8605 50.5,-195.8604 54.5,-201.8604 50.5001,-207.8604"/>
<text text-anchor="middle" x="77.5" y="-217" font-family="Helvetica,sans-Serif" font-size="10.00" fill="#000000"> +noteStack</text>
</g>
</g>
</svg>
