<?xml version="1.0" encoding="UTF-8" standalone="no"?>
<!DOCTYPE svg PUBLIC "-//W3C//DTD SVG 1.1//EN"
 "http://www.w3.org/Graphics/SVG/1.1/DTD/svg11.dtd">
<!-- Generated by graphviz version 2.40.1 (20161225.0304)
 -->
<!-- Title: ProcessSlice Pages: 1 -->
<svg width="1051pt" height="825pt"
 viewBox="0.00 0.00 1051.00 825.00" xmlns="http://www.w3.org/2000/svg" xmlns:xlink="http://www.w3.org/1999/xlink">
<g id="graph0" class="graph" transform="scale(1 1) rotate(0) translate(4 821)">
<title>ProcessSlice</title>
<polygon fill="#ffffff" stroke="transparent" points="-4,4 -4,-821 1047,-821 1047,4 -4,4"/>
<!-- Node1 -->
<g id="node1" class="node">
<title>Node1</title>
<polygon fill="#bfbfbf" stroke="#000000" points="539,-.5 539,-79.5 636,-79.5 636,-.5 539,-.5"/>
<text text-anchor="middle" x="587.5" y="-67.5" font-family="Helvetica,sans-Serif" font-size="10.00" fill="#000000">ProcessSlice</text>
<polyline fill="none" stroke="#000000" points="539,-60.5 636,-60.5 "/>
<text text-anchor="start" x="547" y="-48.5" font-family="Helvetica,sans-Serif" font-size="10.00" fill="#000000">+ sample_size</text>
<text text-anchor="start" x="547" y="-37.5" font-family="Helvetica,sans-Serif" font-size="10.00" fill="#000000">+ input_bus_size</text>
<text text-anchor="start" x="547" y="-26.5" font-family="Helvetica,sans-Serif" font-size="10.00" fill="#000000">+ output_bus_size</text>
<polyline fill="none" stroke="#000000" points="539,-19.5 636,-19.5 "/>
<text text-anchor="middle" x="587.5" y="-7.5" font-family="Helvetica,sans-Serif" font-size="10.00" fill="#000000"> </text>
</g>
<!-- Node2 -->
<g id="node2" class="node">
<title>Node2</title>
<g id="a_node2"><a xlink:href="struct_maple_event_list.html" target="_top" xlink:title="Event list structure. ">
<polygon fill="#ffffff" stroke="#000000" points="483.5,-155 483.5,-212 567.5,-212 567.5,-155 483.5,-155"/>
<text text-anchor="middle" x="525.5" y="-200" font-family="Helvetica,sans-Serif" font-size="10.00" fill="#000000">MapleEventList</text>
<polyline fill="none" stroke="#000000" points="483.5,-193 567.5,-193 "/>
<text text-anchor="start" x="491.5" y="-181" font-family="Helvetica,sans-Serif" font-size="10.00" fill="#000000">+ eventCount</text>
<polyline fill="none" stroke="#000000" points="483.5,-174 567.5,-174 "/>
<text text-anchor="middle" x="525.5" y="-162" font-family="Helvetica,sans-Serif" font-size="10.00" fill="#000000"> </text>
</a>
</g>
</g>
<!-- Node2&#45;&gt;Node1 -->
<g id="edge1" class="edge">
<title>Node2&#45;&gt;Node1</title>
<path fill="none" stroke="#404040" d="M536.8325,-154.8586C543.5266,-138.1864 552.2766,-116.8114 560.5,-98 561.5663,-95.5607 562.6697,-93.0697 563.7938,-90.5581"/>
<polygon fill="none" stroke="#404040" points="563.8477,-90.4391 562.6833,-83.3226 568.8045,-79.5107 569.9689,-86.6271 563.8477,-90.4391"/>
<text text-anchor="middle" x="594" y="-112" font-family="Helvetica,sans-Serif" font-size="10.00" fill="#000000"> +outputEvents</text>
<text text-anchor="middle" x="594" y="-101" font-family="Helvetica,sans-Serif" font-size="10.00" fill="#000000">+inputEvents</text>
</g>
<!-- Node3 -->
<g id="node3" class="node">
<title>Node3</title>
<g id="a_node3"><a xlink:href="struct_maple_event.html" target="_top" xlink:title="Event structure. ">
<polygon fill="#ffffff" stroke="#000000" points="483.5,-276.5 483.5,-377.5 567.5,-377.5 567.5,-276.5 483.5,-276.5"/>
<text text-anchor="middle" x="525.5" y="-365.5" font-family="Helvetica,sans-Serif" font-size="10.00" fill="#000000">MapleEvent</text>
<polyline fill="none" stroke="#000000" points="483.5,-358.5 567.5,-358.5 "/>
<text text-anchor="start" x="491.5" y="-346.5" font-family="Helvetica,sans-Serif" font-size="10.00" fill="#000000">+ busIndex</text>
<text text-anchor="start" x="491.5" y="-335.5" font-family="Helvetica,sans-Serif" font-size="10.00" fill="#000000">+ sampleOffset</text>
<text text-anchor="start" x="491.5" y="-324.5" font-family="Helvetica,sans-Serif" font-size="10.00" fill="#000000">+ ppqPosition</text>
<text text-anchor="start" x="491.5" y="-313.5" font-family="Helvetica,sans-Serif" font-size="10.00" fill="#000000">+ eventType</text>
<text text-anchor="start" x="491.5" y="-302.5" font-family="Helvetica,sans-Serif" font-size="10.00" fill="#000000">+ event</text>
<polyline fill="none" stroke="#000000" points="483.5,-295.5 567.5,-295.5 "/>
<text text-anchor="middle" x="525.5" y="-283.5" font-family="Helvetica,sans-Serif" font-size="10.00" fill="#000000"> </text>
</a>
</g>
</g>
<!-- Node3&#45;&gt;Node2 -->
<g id="edge2" class="edge">
<title>Node3&#45;&gt;Node2</title>
<path fill="none" stroke="#404040" d="M525.5,-276.4073C525.5,-259.4707 525.5,-240.8068 525.5,-224.6781"/>
<polygon fill="none" stroke="#404040" points="525.5001,-224.3681 521.5,-218.3681 525.5,-212.3681 529.5,-218.3681 525.5001,-224.3681"/>
<text text-anchor="middle" x="545" y="-250" font-family="Helvetica,sans-Serif" font-size="10.00" fill="#000000"> +events</text>
</g>
<!-- Node4 -->
<g id="node4" class="node">
<title>Node4</title>
<g id="a_node4"><a xlink:href="struct_maple_scale_event.html" target="_top" xlink:title="Scale event specific data. ">
<polygon fill="#ffffff" stroke="#000000" points="0,-431 0,-521 93,-521 93,-431 0,-431"/>
<text text-anchor="middle" x="46.5" y="-509" font-family="Helvetica,sans-Serif" font-size="10.00" fill="#000000">MapleScaleEvent</text>
<polyline fill="none" stroke="#000000" points="0,-502 93,-502 "/>
<text text-anchor="start" x="8" y="-490" font-family="Helvetica,sans-Serif" font-size="10.00" fill="#000000">+ root</text>
<text text-anchor="start" x="8" y="-479" font-family="Helvetica,sans-Serif" font-size="10.00" fill="#000000">+ mask</text>
<text text-anchor="start" x="8" y="-468" font-family="Helvetica,sans-Serif" font-size="10.00" fill="#000000">+ textLen</text>
<text text-anchor="start" x="8" y="-457" font-family="Helvetica,sans-Serif" font-size="10.00" fill="#000000">+ text</text>
<polyline fill="none" stroke="#000000" points="0,-450 93,-450 "/>
<text text-anchor="middle" x="46.5" y="-438" font-family="Helvetica,sans-Serif" font-size="10.00" fill="#000000"> </text>
</a>
</g>
</g>
<!-- Node4&#45;&gt;Node3 -->
<g id="edge3" class="edge">
<title>Node4&#45;&gt;Node3</title>
<path fill="none" stroke="#404040" d="M57.824,-430.8629C63.2352,-417.7694 71.1135,-404.6782 82.5,-396 142.6579,-350.151 366.7984,-334.1489 471.2654,-329.1006"/>
<polygon fill="none" stroke="#404040" points="471.4058,-329.0941 477.214,-324.8203 483.3929,-328.5379 477.5848,-332.8117 471.4058,-329.0941"/>
<text text-anchor="middle" x="99" y="-399" font-family="Helvetica,sans-Serif" font-size="10.00" fill="#000000"> +scale</text>
</g>
<!-- Node5 -->
<g id="node5" class="node">
<title>Node5</title>
<g id="a_node5"><a xlink:href="struct_maple_note_off_event.html" target="_top" xlink:title="Note&#45;off event specific data. ">
<polygon fill="#ffffff" stroke="#000000" points="83,-545.5 83,-602.5 186,-602.5 186,-545.5 83,-545.5"/>
<text text-anchor="middle" x="134.5" y="-590.5" font-family="Helvetica,sans-Serif" font-size="10.00" fill="#000000">MapleNoteOffEvent</text>
<polyline fill="none" stroke="#000000" points="83,-583.5 186,-583.5 "/>
<text text-anchor="middle" x="134.5" y="-571.5" font-family="Helvetica,sans-Serif" font-size="10.00" fill="#000000"> </text>
<polyline fill="none" stroke="#000000" points="83,-564.5 186,-564.5 "/>
<text text-anchor="middle" x="134.5" y="-552.5" font-family="Helvetica,sans-Serif" font-size="10.00" fill="#000000"> </text>
</a>
</g>
</g>
<!-- Node5&#45;&gt;Node3 -->
<g id="edge4" class="edge">
<title>Node5&#45;&gt;Node3</title>
<path fill="none" stroke="#404040" d="M129.9403,-545.3723C126.4054,-512.6109 125.9917,-459.0973 153.5,-425 193.2321,-375.7511 377.9639,-345.7163 471.2675,-333.4344"/>
<polygon fill="none" stroke="#404040" points="471.3592,-333.4227 476.7981,-328.6879 483.2606,-331.8874 477.8217,-336.6221 471.3592,-333.4227"/>
<text text-anchor="middle" x="174.5" y="-473.5" font-family="Helvetica,sans-Serif" font-size="10.00" fill="#000000"> +noteOff</text>
</g>
<!-- Node6 -->
<g id="node6" class="node">
<title>Node6</title>
<g id="a_node6"><a xlink:href="struct_maple_midi_note_event.html" target="_top" xlink:title="{MapleMidiNoteEvent\n|+ channel\l+ pitch\l+ tuning\l+ velocity\l|}">
<polygon fill="#ffffff" stroke="#000000" points="258,-726.5 258,-816.5 365,-816.5 365,-726.5 258,-726.5"/>
<text text-anchor="middle" x="311.5" y="-804.5" font-family="Helvetica,sans-Serif" font-size="10.00" fill="#000000">MapleMidiNoteEvent</text>
<polyline fill="none" stroke="#000000" points="258,-797.5 365,-797.5 "/>
<text text-anchor="start" x="266" y="-785.5" font-family="Helvetica,sans-Serif" font-size="10.00" fill="#000000">+ channel</text>
<text text-anchor="start" x="266" y="-774.5" font-family="Helvetica,sans-Serif" font-size="10.00" fill="#000000">+ pitch</text>
<text text-anchor="start" x="266" y="-763.5" font-family="Helvetica,sans-Serif" font-size="10.00" fill="#000000">+ tuning</text>
<text text-anchor="start" x="266" y="-752.5" font-family="Helvetica,sans-Serif" font-size="10.00" fill="#000000">+ velocity</text>
<polyline fill="none" stroke="#000000" points="258,-745.5 365,-745.5 "/>
<text text-anchor="middle" x="311.5" y="-733.5" font-family="Helvetica,sans-Serif" font-size="10.00" fill="#000000"> </text>
</a>
</g>
</g>
<!-- Node6&#45;&gt;Node5 -->
<g id="edge5" class="edge">
<title>Node6&#45;&gt;Node5</title>
<path fill="none" stroke="#404040" d="M270.8926,-726.1895C239.8662,-691.5696 197.6014,-644.4098 168.381,-611.8051"/>
<polygon fill="none" stroke="#404040" points="168.1412,-611.5375 161.158,-609.7389 160.1324,-602.6011 167.1156,-604.3997 168.1412,-611.5375"/>
<text text-anchor="middle" x="267.5" y="-700" font-family="Helvetica,sans-Serif" font-size="10.00" fill="#000000"> +note</text>
</g>
<!-- Node7 -->
<g id="node7" class="node">
<title>Node7</title>
<g id="a_node7"><a xlink:href="struct_maple_poly_pressure_event.html" target="_top" xlink:title="PolyPressure event specific data. ">
<polygon fill="#ffffff" stroke="#000000" points="208,-545.5 208,-602.5 335,-602.5 335,-545.5 208,-545.5"/>
<text text-anchor="middle" x="271.5" y="-590.5" font-family="Helvetica,sans-Serif" font-size="10.00" fill="#000000">MaplePolyPressureEvent</text>
<polyline fill="none" stroke="#000000" points="208,-583.5 335,-583.5 "/>
<text text-anchor="middle" x="271.5" y="-571.5" font-family="Helvetica,sans-Serif" font-size="10.00" fill="#000000"> </text>
<polyline fill="none" stroke="#000000" points="208,-564.5 335,-564.5 "/>
<text text-anchor="middle" x="271.5" y="-552.5" font-family="Helvetica,sans-Serif" font-size="10.00" fill="#000000"> </text>
</a>
</g>
</g>
<!-- Node6&#45;&gt;Node7 -->
<g id="edge7" class="edge">
<title>Node6&#45;&gt;Node7</title>
<path fill="none" stroke="#404040" d="M302.3232,-726.1895C295.5222,-692.6097 286.3318,-647.2321 279.7597,-614.7824"/>
<polygon fill="none" stroke="#404040" points="279.6747,-614.3623 274.5633,-609.2758 277.2926,-602.6011 282.4041,-607.6877 279.6747,-614.3623"/>
<text text-anchor="middle" x="312.5" y="-700" font-family="Helvetica,sans-Serif" font-size="10.00" fill="#000000"> +note</text>
</g>
<!-- Node10 -->
<g id="node10" class="node">
<title>Node10</title>
<g id="a_node10"><a xlink:href="struct_maple_expressive_event.html" target="_top" xlink:title="Expressive event for note. ">
<polygon fill="#ffffff" stroke="#000000" points="313,-621.5 313,-678.5 430,-678.5 430,-621.5 313,-621.5"/>
<text text-anchor="middle" x="371.5" y="-666.5" font-family="Helvetica,sans-Serif" font-size="10.00" fill="#000000">MapleExpressiveEvent</text>
<polyline fill="none" stroke="#000000" points="313,-659.5 430,-659.5 "/>
<text text-anchor="start" x="321" y="-647.5" font-family="Helvetica,sans-Serif" font-size="10.00" fill="#000000">+ expression_type</text>
<polyline fill="none" stroke="#000000" points="313,-640.5 430,-640.5 "/>
<text text-anchor="middle" x="371.5" y="-628.5" font-family="Helvetica,sans-Serif" font-size="10.00" fill="#000000"> </text>
</a>
</g>
</g>
<!-- Node6&#45;&gt;Node10 -->
<g id="edge11" class="edge">
<title>Node6&#45;&gt;Node10</title>
<path fill="none" stroke="#404040" d="M333.8418,-726.2579C339.8005,-714.1915 346.1912,-701.2503 351.9851,-689.5177"/>
<polygon fill="none" stroke="#404040" points="352.0102,-689.4668 351.0804,-682.3159 357.3236,-678.7072 358.2534,-685.8582 352.0102,-689.4668"/>
<text text-anchor="middle" x="361.5" y="-700" font-family="Helvetica,sans-Serif" font-size="10.00" fill="#000000"> +note</text>
</g>
<!-- Node12 -->
<g id="node12" class="node">
<title>Node12</title>
<g id="a_node12"><a xlink:href="struct_maple_note_on_event.html" target="_top" xlink:title="Note&#45;on event specific data. ">
<polygon fill="#ffffff" stroke="#000000" points="519.5,-621.5 519.5,-678.5 621.5,-678.5 621.5,-621.5 519.5,-621.5"/>
<text text-anchor="middle" x="570.5" y="-666.5" font-family="Helvetica,sans-Serif" font-size="10.00" fill="#000000">MapleNoteOnEvent</text>
<polyline fill="none" stroke="#000000" points="519.5,-659.5 621.5,-659.5 "/>
<text text-anchor="middle" x="570.5" y="-647.5" font-family="Helvetica,sans-Serif" font-size="10.00" fill="#000000"> </text>
<polyline fill="none" stroke="#000000" points="519.5,-640.5 621.5,-640.5 "/>
<text text-anchor="middle" x="570.5" y="-628.5" font-family="Helvetica,sans-Serif" font-size="10.00" fill="#000000"> </text>
</a>
</g>
</g>
<!-- Node6&#45;&gt;Node12 -->
<g id="edge14" class="edge">
<title>Node6&#45;&gt;Node12</title>
<path fill="none" stroke="#404040" d="M365.165,-746.3251C406.7378,-726.8228 464.4097,-699.7682 508.0517,-679.2952"/>
<polygon fill="none" stroke="#404040" points="508.2458,-679.2042 511.979,-673.0346 519.1098,-674.1077 515.3767,-680.2773 508.2458,-679.2042"/>
<text text-anchor="middle" x="478.5" y="-700" font-family="Helvetica,sans-Serif" font-size="10.00" fill="#000000"> +note</text>
</g>
<!-- Node7&#45;&gt;Node3 -->
<g id="edge6" class="edge">
<title>Node7&#45;&gt;Node3</title>
<path fill="none" stroke="#404040" d="M229.4276,-545.2951C224.1949,-539.8546 219.6016,-533.7302 216.5,-527 197.5263,-485.8283 189.7248,-461.5814 216.5,-425 246.8524,-383.5313 391.1523,-351.3553 471.3776,-336.3173"/>
<polygon fill="none" stroke="#404040" points="471.4008,-336.3131 476.5763,-331.2918 483.202,-334.138 478.0264,-339.1593 471.4008,-336.3131"/>
<text text-anchor="middle" x="250" y="-473.5" font-family="Helvetica,sans-Serif" font-size="10.00" fill="#000000"> +polyPressure</text>
</g>
<!-- Node8 -->
<g id="node8" class="node">
<title>Node8</title>
<g id="a_node8"><a xlink:href="struct_maple_data_event.html" target="_top" xlink:title="Data event specific data. Used in MapleEvent (union)*/. ">
<polygon fill="#ffffff" stroke="#000000" points="702,-431 702,-521 791,-521 791,-431 702,-431"/>
<text text-anchor="middle" x="746.5" y="-509" font-family="Helvetica,sans-Serif" font-size="10.00" fill="#000000">MapleDataEvent</text>
<polyline fill="none" stroke="#000000" points="702,-502 791,-502 "/>
<text text-anchor="start" x="710" y="-490" font-family="Helvetica,sans-Serif" font-size="10.00" fill="#000000">+ size</text>
<text text-anchor="start" x="710" y="-479" font-family="Helvetica,sans-Serif" font-size="10.00" fill="#000000">+ type</text>
<text text-anchor="start" x="710" y="-468" font-family="Helvetica,sans-Serif" font-size="10.00" fill="#000000">+ bytes</text>
<text text-anchor="start" x="710" y="-457" font-family="Helvetica,sans-Serif" font-size="10.00" fill="#000000">+ dt</text>
<polyline fill="none" stroke="#000000" points="702,-450 791,-450 "/>
<text text-anchor="middle" x="746.5" y="-438" font-family="Helvetica,sans-Serif" font-size="10.00" fill="#000000"> </text>
</a>
</g>
</g>
<!-- Node8&#45;&gt;Node3 -->
<g id="edge8" class="edge">
<title>Node8&#45;&gt;Node3</title>
<path fill="none" stroke="#404040" d="M701.5608,-432.2235C687.6833,-419.7803 671.9677,-406.7124 656.5,-396 632.1273,-379.1204 603.1258,-363.4448 578.6134,-351.3146"/>
<polygon fill="none" stroke="#404040" points="578.4881,-351.2536 571.3424,-352.2226 567.6996,-345.9992 574.8453,-345.0303 578.4881,-351.2536"/>
<text text-anchor="middle" x="683.5" y="-399" font-family="Helvetica,sans-Serif" font-size="10.00" fill="#000000"> +data</text>
</g>
<!-- Node9 -->
<g id="node9" class="node">
<title>Node9</title>
<g id="a_node9"><a xlink:href="struct_maple_note_expression_text_event.html" target="_top" xlink:title="{MapleNoteExpressionTextEvent\n||}">
<polygon fill="#ffffff" stroke="#000000" points="292.5,-447.5 292.5,-504.5 450.5,-504.5 450.5,-447.5 292.5,-447.5"/>
<text text-anchor="middle" x="371.5" y="-492.5" font-family="Helvetica,sans-Serif" font-size="10.00" fill="#000000">MapleNoteExpressionTextEvent</text>
<polyline fill="none" stroke="#000000" points="292.5,-485.5 450.5,-485.5 "/>
<text text-anchor="middle" x="371.5" y="-473.5" font-family="Helvetica,sans-Serif" font-size="10.00" fill="#000000"> </text>
<polyline fill="none" stroke="#000000" points="292.5,-466.5 450.5,-466.5 "/>
<text text-anchor="middle" x="371.5" y="-454.5" font-family="Helvetica,sans-Serif" font-size="10.00" fill="#000000"> </text>
</a>
</g>
</g>
<!-- Node9&#45;&gt;Node3 -->
<g id="edge9" class="edge">
<title>Node9&#45;&gt;Node3</title>
<path fill="none" stroke="#404040" d="M387.1834,-447.433C396.9112,-431.244 410.4112,-411.244 425.5,-396 439.4979,-381.8581 456.7586,-368.7691 472.9766,-357.8774"/>
<polygon fill="none" stroke="#404040" points="473.39,-357.6076 476.228,-350.9784 483.4387,-351.0483 480.6008,-357.6775 473.39,-357.6076"/>
<text text-anchor="middle" x="474" y="-399" font-family="Helvetica,sans-Serif" font-size="10.00" fill="#000000"> +noteExpressionText</text>
</g>
<!-- Node10&#45;&gt;Node9 -->
<g id="edge10" class="edge">
<title>Node10&#45;&gt;Node9</title>
<path fill="none" stroke="#404040" d="M371.5,-621.2674C371.5,-592.8061 371.5,-548.9473 371.5,-516.8652"/>
<polygon fill="none" stroke="#404040" points="371.5001,-516.7752 367.5,-510.7753 371.5,-504.7752 375.5,-510.7752 371.5001,-516.7752"/>
<text text-anchor="middle" x="410" y="-571.5" font-family="Helvetica,sans-Serif" font-size="10.00" fill="#000000"> +noteExpression</text>
</g>
<!-- Node14 -->
<g id="node14" class="node">
<title>Node14</title>
<g id="a_node14"><a xlink:href="struct_maple_note_expression_value_event.html" target="_top" xlink:title="Expression value event for note. ">
<polygon fill="#ffffff" stroke="#000000" points="469,-442 469,-510 606,-510 606,-442 469,-442"/>
<text text-anchor="start" x="477" y="-498" font-family="Helvetica,sans-Serif" font-size="10.00" fill="#000000">MapleNoteExpressionValue</text>
<text text-anchor="middle" x="537.5" y="-487" font-family="Helvetica,sans-Serif" font-size="10.00" fill="#000000">Event</text>
<polyline fill="none" stroke="#000000" points="469,-480 606,-480 "/>
<text text-anchor="middle" x="537.5" y="-468" font-family="Helvetica,sans-Serif" font-size="10.00" fill="#000000"> </text>
<polyline fill="none" stroke="#000000" points="469,-461 606,-461 "/>
<text text-anchor="middle" x="537.5" y="-449" font-family="Helvetica,sans-Serif" font-size="10.00" fill="#000000"> </text>
</a>
</g>
</g>
<!-- Node10&#45;&gt;Node14 -->
<g id="edge17" class="edge">
<title>Node10&#45;&gt;Node14</title>
<path fill="none" stroke="#404040" d="M428.7249,-621.2707C437.1554,-615.8005 445.3848,-609.6734 452.5,-603 477.6449,-579.4162 499.1624,-547.0547 514.257,-520.9019"/>
<polygon fill="none" stroke="#404040" points="514.4404,-520.5757 513.8964,-513.3851 520.3246,-510.1174 520.8686,-517.3079 514.4404,-520.5757"/>
<text text-anchor="middle" x="536" y="-571.5" font-family="Helvetica,sans-Serif" font-size="10.00" fill="#000000"> +noteExpression</text>
</g>
<!-- Node11 -->
<g id="node11" class="node">
<title>Node11</title>
<g id="a_node11"><a xlink:href="struct_maple_chord_event.html" target="_top" xlink:title="Chord event specific data. ">
<polygon fill="#ffffff" stroke="#000000" points="809,-425.5 809,-526.5 904,-526.5 904,-425.5 809,-425.5"/>
<text text-anchor="middle" x="856.5" y="-514.5" font-family="Helvetica,sans-Serif" font-size="10.00" fill="#000000">MapleChordEvent</text>
<polyline fill="none" stroke="#000000" points="809,-507.5 904,-507.5 "/>
<text text-anchor="start" x="817" y="-495.5" font-family="Helvetica,sans-Serif" font-size="10.00" fill="#000000">+ root</text>
<text text-anchor="start" x="817" y="-484.5" font-family="Helvetica,sans-Serif" font-size="10.00" fill="#000000">+ bassNote</text>
<text text-anchor="start" x="817" y="-473.5" font-family="Helvetica,sans-Serif" font-size="10.00" fill="#000000">+ mask</text>
<text text-anchor="start" x="817" y="-462.5" font-family="Helvetica,sans-Serif" font-size="10.00" fill="#000000">+ textLen</text>
<text text-anchor="start" x="817" y="-451.5" font-family="Helvetica,sans-Serif" font-size="10.00" fill="#000000">+ text</text>
<polyline fill="none" stroke="#000000" points="809,-444.5 904,-444.5 "/>
<text text-anchor="middle" x="856.5" y="-432.5" font-family="Helvetica,sans-Serif" font-size="10.00" fill="#000000"> </text>
</a>
</g>
</g>
<!-- Node11&#45;&gt;Node3 -->
<g id="edge12" class="edge">
<title>Node11&#45;&gt;Node3</title>
<path fill="none" stroke="#404040" d="M808.8833,-430.4963C806.1211,-428.5393 803.3188,-426.6917 800.5,-425 729.4978,-382.3891 637.1157,-354.2515 579.5621,-339.4688"/>
<polygon fill="none" stroke="#404040" points="579.4669,-339.4449 572.6721,-341.8599 567.8296,-336.5166 574.6243,-334.1017 579.4669,-339.4449"/>
<text text-anchor="middle" x="782.5" y="-399" font-family="Helvetica,sans-Serif" font-size="10.00" fill="#000000"> +chord</text>
</g>
<!-- Node12&#45;&gt;Node3 -->
<g id="edge13" class="edge">
<title>Node12&#45;&gt;Node3</title>
<path fill="none" stroke="#404040" d="M589.3135,-621.2455C618.7578,-572.2966 668.4348,-470.82 628.5,-396 617.5971,-375.5729 597.6688,-360.1291 578.2258,-349.0876"/>
<polygon fill="none" stroke="#404040" points="578.1297,-349.0365 570.9541,-349.7513 567.5345,-343.4026 574.7101,-342.6878 578.1297,-349.0365"/>
<text text-anchor="middle" x="663" y="-473.5" font-family="Helvetica,sans-Serif" font-size="10.00" fill="#000000"> +noteOn</text>
</g>
<!-- Node13 -->
<g id="node13" class="node">
<title>Node13</title>
<g id="a_node13"><a xlink:href="struct_maple_m_i_d_i_c_c_out_event.html" target="_top" xlink:title="Legacy MIDI CC Out event specific data. ">
<polygon fill="#ffffff" stroke="#000000" points="922,-431 922,-521 1043,-521 1043,-431 922,-431"/>
<text text-anchor="middle" x="982.5" y="-509" font-family="Helvetica,sans-Serif" font-size="10.00" fill="#000000">MapleMIDICCOutEvent</text>
<polyline fill="none" stroke="#000000" points="922,-502 1043,-502 "/>
<text text-anchor="start" x="930" y="-490" font-family="Helvetica,sans-Serif" font-size="10.00" fill="#000000">+ controlNumber</text>
<text text-anchor="start" x="930" y="-479" font-family="Helvetica,sans-Serif" font-size="10.00" fill="#000000">+ channel</text>
<text text-anchor="start" x="930" y="-468" font-family="Helvetica,sans-Serif" font-size="10.00" fill="#000000">+ value</text>
<text text-anchor="start" x="930" y="-457" font-family="Helvetica,sans-Serif" font-size="10.00" fill="#000000">+ value2</text>
<polyline fill="none" stroke="#000000" points="922,-450 1043,-450 "/>
<text text-anchor="middle" x="982.5" y="-438" font-family="Helvetica,sans-Serif" font-size="10.00" fill="#000000"> </text>
</a>
</g>
</g>
<!-- Node13&#45;&gt;Node3 -->
<g id="edge15" class="edge">
<title>Node13&#45;&gt;Node3</title>
<path fill="none" stroke="#404040" d="M924.7453,-430.9885C921.0245,-428.8225 917.2609,-426.8035 913.5,-425 801.6393,-371.3592 657.0604,-344.8698 579.8257,-333.7521"/>
<polygon fill="none" stroke="#404040" points="579.4542,-333.7001 572.9575,-336.8295 567.5701,-332.0362 574.0668,-328.9068 579.4542,-333.7001"/>
<text text-anchor="middle" x="892.5" y="-399" font-family="Helvetica,sans-Serif" font-size="10.00" fill="#000000"> +midiCCOut</text>
</g>
<!-- Node14&#45;&gt;Node3 -->
<g id="edge16" class="edge">
<title>Node14&#45;&gt;Node3</title>
<path fill="none" stroke="#404040" d="M531.0271,-441.726C529.2125,-430.682 527.4714,-418.3612 526.5,-407 526.0348,-401.5594 525.6889,-395.9031 525.4366,-390.2258"/>
<polygon fill="none" stroke="#404040" points="525.4236,-389.8324 521.226,-383.969 525.024,-377.8391 529.2216,-383.7025 525.4236,-389.8324"/>
<text text-anchor="middle" x="577.5" y="-399" font-family="Helvetica,sans-Serif" font-size="10.00" fill="#000000"> +noteExpressionValue</text>
</g>
<!-- Node15 -->
<g id="node15" class="node">
<title>Node15</title>
<g id="a_node15"><a xlink:href="struct_maple_audio_buffer.html" target="_top" xlink:title="Audio buffer. ">
<polygon fill="#ffffff" stroke="#000000" points="585.5,-138.5 585.5,-228.5 713.5,-228.5 713.5,-138.5 585.5,-138.5"/>
<text text-anchor="middle" x="649.5" y="-216.5" font-family="Helvetica,sans-Serif" font-size="10.00" fill="#000000">MapleAudioBuffer</text>
<polyline fill="none" stroke="#000000" points="585.5,-209.5 713.5,-209.5 "/>
<text text-anchor="start" x="593.5" y="-197.5" font-family="Helvetica,sans-Serif" font-size="10.00" fill="#000000">+ channel_size</text>
<text text-anchor="start" x="593.5" y="-186.5" font-family="Helvetica,sans-Serif" font-size="10.00" fill="#000000">+ float_channel_buffers</text>
<text text-anchor="start" x="593.5" y="-175.5" font-family="Helvetica,sans-Serif" font-size="10.00" fill="#000000">+ double_channel_buffers</text>
<text text-anchor="start" x="593.5" y="-164.5" font-family="Helvetica,sans-Serif" font-size="10.00" fill="#000000">+ @2</text>
<polyline fill="none" stroke="#000000" points="585.5,-157.5 713.5,-157.5 "/>
<text text-anchor="middle" x="649.5" y="-145.5" font-family="Helvetica,sans-Serif" font-size="10.00" fill="#000000"> </text>
</a>
</g>
</g>
<!-- Node15&#45;&gt;Node1 -->
<g id="edge18" class="edge">
<title>Node15&#45;&gt;Node1</title>
<path fill="none" stroke="#404040" d="M640.9644,-138.1047C637.641,-124.8451 633.2229,-110.5514 627.5,-98 626.3225,-95.4176 625.0299,-92.8268 623.6527,-90.2505"/>
<polygon fill="none" stroke="#404040" points="623.6116,-90.1795 617.1416,-86.9952 617.5926,-79.7981 624.0626,-82.9825 623.6116,-90.1795"/>
<text text-anchor="middle" x="655.5" y="-112" font-family="Helvetica,sans-Serif" font-size="10.00" fill="#000000"> +outputs</text>
<text text-anchor="middle" x="655.5" y="-101" font-family="Helvetica,sans-Serif" font-size="10.00" fill="#000000">+inputs</text>
</g>
</g>
</svg>
