<?xml version="1.0" encoding="UTF-8" standalone="no"?>
<!DOCTYPE svg PUBLIC "-//W3C//DTD SVG 1.1//EN"
 "http://www.w3.org/Graphics/SVG/1.1/DTD/svg11.dtd">
<!-- Generated by graphviz version 2.40.1 (20161225.0304)
 -->
<!-- Title: MapleNoteExpressionTextEvent Pages: 1 -->
<svg width="166pt" height="309pt"
 viewBox="0.00 0.00 166.00 309.00" xmlns="http://www.w3.org/2000/svg" xmlns:xlink="http://www.w3.org/1999/xlink">
<g id="graph0" class="graph" transform="scale(1 1) rotate(0) translate(4 305)">
<title>MapleNoteExpressionTextEvent</title>
<polygon fill="#ffffff" stroke="transparent" points="-4,4 -4,-305 162,-305 162,4 -4,4"/>
<!-- Node1 -->
<g id="node1" class="node">
<title>Node1</title>
<polygon fill="#bfbfbf" stroke="#000000" points="0,-.5 0,-57.5 158,-57.5 158,-.5 0,-.5"/>
<text text-anchor="middle" x="79" y="-45.5" font-family="Helvetica,sans-Serif" font-size="10.00" fill="#000000">MapleNoteExpressionTextEvent</text>
<polyline fill="none" stroke="#000000" points="0,-38.5 158,-38.5 "/>
<text text-anchor="middle" x="79" y="-26.5" font-family="Helvetica,sans-Serif" font-size="10.00" fill="#000000"> </text>
<polyline fill="none" stroke="#000000" points="0,-19.5 158,-19.5 "/>
<text text-anchor="middle" x="79" y="-7.5" font-family="Helvetica,sans-Serif" font-size="10.00" fill="#000000"> </text>
</g>
<!-- Node2 -->
<g id="node2" class="node">
<title>Node2</title>
<g id="a_node2"><a xlink:href="struct_maple_expressive_event.html" target="_top" xlink:title="Expressive event for note. ">
<polygon fill="#ffffff" stroke="#000000" points="20.5,-105.5 20.5,-162.5 137.5,-162.5 137.5,-105.5 20.5,-105.5"/>
<text text-anchor="middle" x="79" y="-150.5" font-family="Helvetica,sans-Serif" font-size="10.00" fill="#000000">MapleExpressiveEvent</text>
<polyline fill="none" stroke="#000000" points="20.5,-143.5 137.5,-143.5 "/>
<text text-anchor="start" x="28.5" y="-131.5" font-family="Helvetica,sans-Serif" font-size="10.00" fill="#000000">+ expression_type</text>
<polyline fill="none" stroke="#000000" points="20.5,-124.5 137.5,-124.5 "/>
<text text-anchor="middle" x="79" y="-112.5" font-family="Helvetica,sans-Serif" font-size="10.00" fill="#000000"> </text>
</a>
</g>
</g>
<!-- Node2&#45;&gt;Node1 -->
<g id="edge1" class="edge">
<title>Node2&#45;&gt;Node1</title>
<path fill="none" stroke="#404040" d="M79,-105.3083C79,-94.4281 79,-81.817 79,-70.0192"/>
<polygon fill="none" stroke="#404040" points="79.0001,-69.657 75,-63.6571 79,-57.657 83,-63.657 79.0001,-69.657"/>
<text text-anchor="middle" x="117.5" y="-79" font-family="Helvetica,sans-Serif" font-size="10.00" fill="#000000"> +noteExpression</text>
</g>
<!-- Node3 -->
<g id="node3" class="node">
<title>Node3</title>
<g id="a_node3"><a xlink:href="struct_maple_midi_note_event.html" target="_top" xlink:title="{MapleMidiNoteEvent\n|+ channel\l+ pitch\l+ tuning\l+ velocity\l|}">
<polygon fill="#ffffff" stroke="#000000" points="25.5,-210.5 25.5,-300.5 132.5,-300.5 132.5,-210.5 25.5,-210.5"/>
<text text-anchor="middle" x="79" y="-288.5" font-family="Helvetica,sans-Serif" font-size="10.00" fill="#000000">MapleMidiNoteEvent</text>
<polyline fill="none" stroke="#000000" points="25.5,-281.5 132.5,-281.5 "/>
<text text-anchor="start" x="33.5" y="-269.5" font-family="Helvetica,sans-Serif" font-size="10.00" fill="#000000">+ channel</text>
<text text-anchor="start" x="33.5" y="-258.5" font-family="Helvetica,sans-Serif" font-size="10.00" fill="#000000">+ pitch</text>
<text text-anchor="start" x="33.5" y="-247.5" font-family="Helvetica,sans-Serif" font-size="10.00" fill="#000000">+ tuning</text>
<text text-anchor="start" x="33.5" y="-236.5" font-family="Helvetica,sans-Serif" font-size="10.00" fill="#000000">+ velocity</text>
<polyline fill="none" stroke="#000000" points="25.5,-229.5 132.5,-229.5 "/>
<text text-anchor="middle" x="79" y="-217.5" font-family="Helvetica,sans-Serif" font-size="10.00" fill="#000000"> </text>
</a>
</g>
</g>
<!-- Node3&#45;&gt;Node2 -->
<g id="edge2" class="edge">
<title>Node3&#45;&gt;Node2</title>
<path fill="none" stroke="#404040" d="M79,-210.2579C79,-198.689 79,-186.3161 79,-174.9751"/>
<polygon fill="none" stroke="#404040" points="79.0001,-174.7072 75,-168.7073 79,-162.7072 83,-168.7072 79.0001,-174.7072"/>
<text text-anchor="middle" x="93" y="-184" font-family="Helvetica,sans-Serif" font-size="10.00" fill="#000000"> +note</text>
</g>
</g>
</svg>
