<?xml version="1.0" encoding="UTF-8" standalone="no"?>
<!DOCTYPE svg PUBLIC "-//W3C//DTD SVG 1.1//EN"
 "http://www.w3.org/Graphics/SVG/1.1/DTD/svg11.dtd">
<!-- Generated by graphviz version 2.40.1 (20161225.0304)
 -->
<!-- Title: MapleEvent Pages: 1 -->
<!--zoomable 549 -->
<svg id="main" version="1.1" xmlns="http://www.w3.org/2000/svg" xmlns:xlink="http://www.w3.org/1999/xlink" xml:space="preserve" onload="init(evt)">
<style type="text/css"><![CDATA[
.edge:hover path { stroke: red; }
.edge:hover polygon { stroke: red; fill: red; }
]]></style>
<script type="text/javascript"><![CDATA[
var edges = document.getElementsByTagName('g');
if (edges && edges.length) {
  for (var i=0;i<edges.length;i++) {
    if (edges[i].id.substr(0,4)=='edge') {
      edges[i].setAttribute('class','edge');
    }
  }
}
]]></script>
        <defs>
                <circle id="rim" cx="0" cy="0" r="7"/>
                <circle id="rim2" cx="0" cy="0" r="3.5"/>
                <g id="zoomPlus">
                        <use xlink:href="#rim" fill="#404040">
                                <set attributeName="fill" to="#808080" begin="zoomplus.mouseover" end="zoomplus.mouseout"/>
                        </use>
                        <path d="M-4,0h8M0,-4v8" fill="none" stroke="white" stroke-width="1.5" pointer-events="none"/>
                </g>
                <g id="zoomMin">
                        <use xlink:href="#rim" fill="#404040">
                                <set attributeName="fill" to="#808080" begin="zoomminus.mouseover" end="zoomminus.mouseout"/>
                        </use>
                        <path d="M-4,0h8" fill="none" stroke="white" stroke-width="1.5" pointer-events="none"/>
                </g>
                <g id="dirArrow">
                        <path fill="none" stroke="white" stroke-width="1.5" d="M0,-3.0v7 M-2.5,-0.5L0,-3.0L2.5,-0.5"/>
                </g>
               <g id="resetDef">
                       <use xlink:href="#rim2" fill="#404040">
                               <set attributeName="fill" to="#808080" begin="reset.mouseover" end="reset.mouseout"/>
                       </use>
               </g>
        </defs>

<script type="text/javascript">
var viewWidth = 1051;
var viewHeight = 549;
var sectionId = 'dynsection-0';
</script>
<script xlink:href="svgpan.js"/>
<svg id="graph" class="graph">
<g id="viewport">
<title>MapleEvent</title>
<polygon fill="#ffffff" stroke="transparent" points="-4,4 -4,-545 1047,-545 1047,4 -4,4"/>
<!-- Node1 -->
<g id="node1" class="node">
<title>Node1</title>
<polygon fill="#bfbfbf" stroke="#000000" points="483.5,-.5 483.5,-101.5 567.5,-101.5 567.5,-.5 483.5,-.5"/>
<text text-anchor="middle" x="525.5" y="-89.5" font-family="Helvetica,sans-Serif" font-size="10.00" fill="#000000">MapleEvent</text>
<polyline fill="none" stroke="#000000" points="483.5,-82.5 567.5,-82.5 "/>
<text text-anchor="start" x="491.5" y="-70.5" font-family="Helvetica,sans-Serif" font-size="10.00" fill="#000000">+ busIndex</text>
<text text-anchor="start" x="491.5" y="-59.5" font-family="Helvetica,sans-Serif" font-size="10.00" fill="#000000">+ sampleOffset</text>
<text text-anchor="start" x="491.5" y="-48.5" font-family="Helvetica,sans-Serif" font-size="10.00" fill="#000000">+ ppqPosition</text>
<text text-anchor="start" x="491.5" y="-37.5" font-family="Helvetica,sans-Serif" font-size="10.00" fill="#000000">+ eventType</text>
<text text-anchor="start" x="491.5" y="-26.5" font-family="Helvetica,sans-Serif" font-size="10.00" fill="#000000">+ event</text>
<polyline fill="none" stroke="#000000" points="483.5,-19.5 567.5,-19.5 "/>
<text text-anchor="middle" x="525.5" y="-7.5" font-family="Helvetica,sans-Serif" font-size="10.00" fill="#000000"> </text>
</g>
<!-- Node2 -->
<g id="node2" class="node">
<title>Node2</title>
<g id="a_node2"><a xlink:href="struct_maple_scale_event.html" target="_top" xlink:title="Scale event specific data. ">
<polygon fill="#ffffff" stroke="#000000" points="0,-155 0,-245 93,-245 93,-155 0,-155"/>
<text text-anchor="middle" x="46.5" y="-233" font-family="Helvetica,sans-Serif" font-size="10.00" fill="#000000">MapleScaleEvent</text>
<polyline fill="none" stroke="#000000" points="0,-226 93,-226 "/>
<text text-anchor="start" x="8" y="-214" font-family="Helvetica,sans-Serif" font-size="10.00" fill="#000000">+ root</text>
<text text-anchor="start" x="8" y="-203" font-family="Helvetica,sans-Serif" font-size="10.00" fill="#000000">+ mask</text>
<text text-anchor="start" x="8" y="-192" font-family="Helvetica,sans-Serif" font-size="10.00" fill="#000000">+ textLen</text>
<text text-anchor="start" x="8" y="-181" font-family="Helvetica,sans-Serif" font-size="10.00" fill="#000000">+ text</text>
<polyline fill="none" stroke="#000000" points="0,-174 93,-174 "/>
<text text-anchor="middle" x="46.5" y="-162" font-family="Helvetica,sans-Serif" font-size="10.00" fill="#000000"> </text>
</a>
</g>
</g>
<!-- Node2&#45;&gt;Node1 -->
<g id="edge1" class="edge">
<title>Node2&#45;&gt;Node1</title>
<path fill="none" stroke="#404040" d="M57.824,-154.8629C63.2352,-141.7694 71.1135,-128.6782 82.5,-120 142.6579,-74.151 366.7984,-58.1489 471.2654,-53.1006"/>
<polygon fill="none" stroke="#404040" points="471.4058,-53.0941 477.214,-48.8203 483.3929,-52.5379 477.5848,-56.8117 471.4058,-53.0941"/>
<text text-anchor="middle" x="99" y="-123" font-family="Helvetica,sans-Serif" font-size="10.00" fill="#000000"> +scale</text>
</g>
<!-- Node3 -->
<g id="node3" class="node">
<title>Node3</title>
<g id="a_node3"><a xlink:href="struct_maple_note_off_event.html" target="_top" xlink:title="Note&#45;off event specific data. ">
<polygon fill="#ffffff" stroke="#000000" points="83,-269.5 83,-326.5 186,-326.5 186,-269.5 83,-269.5"/>
<text text-anchor="middle" x="134.5" y="-314.5" font-family="Helvetica,sans-Serif" font-size="10.00" fill="#000000">MapleNoteOffEvent</text>
<polyline fill="none" stroke="#000000" points="83,-307.5 186,-307.5 "/>
<text text-anchor="middle" x="134.5" y="-295.5" font-family="Helvetica,sans-Serif" font-size="10.00" fill="#000000"> </text>
<polyline fill="none" stroke="#000000" points="83,-288.5 186,-288.5 "/>
<text text-anchor="middle" x="134.5" y="-276.5" font-family="Helvetica,sans-Serif" font-size="10.00" fill="#000000"> </text>
</a>
</g>
</g>
<!-- Node3&#45;&gt;Node1 -->
<g id="edge2" class="edge">
<title>Node3&#45;&gt;Node1</title>
<path fill="none" stroke="#404040" d="M129.9403,-269.3723C126.4054,-236.6109 125.9917,-183.0973 153.5,-149 193.2321,-99.7511 377.9639,-69.7163 471.2675,-57.4344"/>
<polygon fill="none" stroke="#404040" points="471.3592,-57.4227 476.7981,-52.6879 483.2606,-55.8874 477.8217,-60.6221 471.3592,-57.4227"/>
<text text-anchor="middle" x="174.5" y="-197.5" font-family="Helvetica,sans-Serif" font-size="10.00" fill="#000000"> +noteOff</text>
</g>
<!-- Node4 -->
<g id="node4" class="node">
<title>Node4</title>
<g id="a_node4"><a xlink:href="struct_maple_midi_note_event.html" target="_top" xlink:title="{MapleMidiNoteEvent\n|+ channel\l+ pitch\l+ tuning\l+ velocity\l|}">
<polygon fill="#ffffff" stroke="#000000" points="258,-450.5 258,-540.5 365,-540.5 365,-450.5 258,-450.5"/>
<text text-anchor="middle" x="311.5" y="-528.5" font-family="Helvetica,sans-Serif" font-size="10.00" fill="#000000">MapleMidiNoteEvent</text>
<polyline fill="none" stroke="#000000" points="258,-521.5 365,-521.5 "/>
<text text-anchor="start" x="266" y="-509.5" font-family="Helvetica,sans-Serif" font-size="10.00" fill="#000000">+ channel</text>
<text text-anchor="start" x="266" y="-498.5" font-family="Helvetica,sans-Serif" font-size="10.00" fill="#000000">+ pitch</text>
<text text-anchor="start" x="266" y="-487.5" font-family="Helvetica,sans-Serif" font-size="10.00" fill="#000000">+ tuning</text>
<text text-anchor="start" x="266" y="-476.5" font-family="Helvetica,sans-Serif" font-size="10.00" fill="#000000">+ velocity</text>
<polyline fill="none" stroke="#000000" points="258,-469.5 365,-469.5 "/>
<text text-anchor="middle" x="311.5" y="-457.5" font-family="Helvetica,sans-Serif" font-size="10.00" fill="#000000"> </text>
</a>
</g>
</g>
<!-- Node4&#45;&gt;Node3 -->
<g id="edge3" class="edge">
<title>Node4&#45;&gt;Node3</title>
<path fill="none" stroke="#404040" d="M270.8926,-450.1895C239.8662,-415.5696 197.6014,-368.4098 168.381,-335.8051"/>
<polygon fill="none" stroke="#404040" points="168.1412,-335.5375 161.158,-333.7389 160.1324,-326.6011 167.1156,-328.3997 168.1412,-335.5375"/>
<text text-anchor="middle" x="267.5" y="-424" font-family="Helvetica,sans-Serif" font-size="10.00" fill="#000000"> +note</text>
</g>
<!-- Node5 -->
<g id="node5" class="node">
<title>Node5</title>
<g id="a_node5"><a xlink:href="struct_maple_poly_pressure_event.html" target="_top" xlink:title="PolyPressure event specific data. ">
<polygon fill="#ffffff" stroke="#000000" points="208,-269.5 208,-326.5 335,-326.5 335,-269.5 208,-269.5"/>
<text text-anchor="middle" x="271.5" y="-314.5" font-family="Helvetica,sans-Serif" font-size="10.00" fill="#000000">MaplePolyPressureEvent</text>
<polyline fill="none" stroke="#000000" points="208,-307.5 335,-307.5 "/>
<text text-anchor="middle" x="271.5" y="-295.5" font-family="Helvetica,sans-Serif" font-size="10.00" fill="#000000"> </text>
<polyline fill="none" stroke="#000000" points="208,-288.5 335,-288.5 "/>
<text text-anchor="middle" x="271.5" y="-276.5" font-family="Helvetica,sans-Serif" font-size="10.00" fill="#000000"> </text>
</a>
</g>
</g>
<!-- Node4&#45;&gt;Node5 -->
<g id="edge5" class="edge">
<title>Node4&#45;&gt;Node5</title>
<path fill="none" stroke="#404040" d="M302.3232,-450.1895C295.5222,-416.6097 286.3318,-371.2321 279.7597,-338.7824"/>
<polygon fill="none" stroke="#404040" points="279.6747,-338.3623 274.5633,-333.2758 277.2926,-326.6011 282.4041,-331.6877 279.6747,-338.3623"/>
<text text-anchor="middle" x="312.5" y="-424" font-family="Helvetica,sans-Serif" font-size="10.00" fill="#000000"> +note</text>
</g>
<!-- Node8 -->
<g id="node8" class="node">
<title>Node8</title>
<g id="a_node8"><a xlink:href="struct_maple_expressive_event.html" target="_top" xlink:title="Expressive event for note. ">
<polygon fill="#ffffff" stroke="#000000" points="313,-345.5 313,-402.5 430,-402.5 430,-345.5 313,-345.5"/>
<text text-anchor="middle" x="371.5" y="-390.5" font-family="Helvetica,sans-Serif" font-size="10.00" fill="#000000">MapleExpressiveEvent</text>
<polyline fill="none" stroke="#000000" points="313,-383.5 430,-383.5 "/>
<text text-anchor="start" x="321" y="-371.5" font-family="Helvetica,sans-Serif" font-size="10.00" fill="#000000">+ expression_type</text>
<polyline fill="none" stroke="#000000" points="313,-364.5 430,-364.5 "/>
<text text-anchor="middle" x="371.5" y="-352.5" font-family="Helvetica,sans-Serif" font-size="10.00" fill="#000000"> </text>
</a>
</g>
</g>
<!-- Node4&#45;&gt;Node8 -->
<g id="edge9" class="edge">
<title>Node4&#45;&gt;Node8</title>
<path fill="none" stroke="#404040" d="M333.8418,-450.2579C339.8005,-438.1915 346.1912,-425.2503 351.9851,-413.5177"/>
<polygon fill="none" stroke="#404040" points="352.0102,-413.4668 351.0804,-406.3159 357.3236,-402.7072 358.2534,-409.8582 352.0102,-413.4668"/>
<text text-anchor="middle" x="361.5" y="-424" font-family="Helvetica,sans-Serif" font-size="10.00" fill="#000000"> +note</text>
</g>
<!-- Node10 -->
<g id="node10" class="node">
<title>Node10</title>
<g id="a_node10"><a xlink:href="struct_maple_note_on_event.html" target="_top" xlink:title="Note&#45;on event specific data. ">
<polygon fill="#ffffff" stroke="#000000" points="519.5,-345.5 519.5,-402.5 621.5,-402.5 621.5,-345.5 519.5,-345.5"/>
<text text-anchor="middle" x="570.5" y="-390.5" font-family="Helvetica,sans-Serif" font-size="10.00" fill="#000000">MapleNoteOnEvent</text>
<polyline fill="none" stroke="#000000" points="519.5,-383.5 621.5,-383.5 "/>
<text text-anchor="middle" x="570.5" y="-371.5" font-family="Helvetica,sans-Serif" font-size="10.00" fill="#000000"> </text>
<polyline fill="none" stroke="#000000" points="519.5,-364.5 621.5,-364.5 "/>
<text text-anchor="middle" x="570.5" y="-352.5" font-family="Helvetica,sans-Serif" font-size="10.00" fill="#000000"> </text>
</a>
</g>
</g>
<!-- Node4&#45;&gt;Node10 -->
<g id="edge12" class="edge">
<title>Node4&#45;&gt;Node10</title>
<path fill="none" stroke="#404040" d="M365.165,-470.3251C406.7378,-450.8228 464.4097,-423.7682 508.0517,-403.2952"/>
<polygon fill="none" stroke="#404040" points="508.2458,-403.2042 511.979,-397.0346 519.1098,-398.1077 515.3767,-404.2773 508.2458,-403.2042"/>
<text text-anchor="middle" x="478.5" y="-424" font-family="Helvetica,sans-Serif" font-size="10.00" fill="#000000"> +note</text>
</g>
<!-- Node5&#45;&gt;Node1 -->
<g id="edge4" class="edge">
<title>Node5&#45;&gt;Node1</title>
<path fill="none" stroke="#404040" d="M229.4276,-269.2951C224.1949,-263.8546 219.6016,-257.7302 216.5,-251 197.5263,-209.8283 189.7248,-185.5814 216.5,-149 246.8524,-107.5313 391.1523,-75.3553 471.3776,-60.3173"/>
<polygon fill="none" stroke="#404040" points="471.4008,-60.3131 476.5763,-55.2918 483.202,-58.138 478.0264,-63.1593 471.4008,-60.3131"/>
<text text-anchor="middle" x="250" y="-197.5" font-family="Helvetica,sans-Serif" font-size="10.00" fill="#000000"> +polyPressure</text>
</g>
<!-- Node6 -->
<g id="node6" class="node">
<title>Node6</title>
<g id="a_node6"><a xlink:href="struct_maple_data_event.html" target="_top" xlink:title="Data event specific data. Used in MapleEvent (union)*/. ">
<polygon fill="#ffffff" stroke="#000000" points="702,-155 702,-245 791,-245 791,-155 702,-155"/>
<text text-anchor="middle" x="746.5" y="-233" font-family="Helvetica,sans-Serif" font-size="10.00" fill="#000000">MapleDataEvent</text>
<polyline fill="none" stroke="#000000" points="702,-226 791,-226 "/>
<text text-anchor="start" x="710" y="-214" font-family="Helvetica,sans-Serif" font-size="10.00" fill="#000000">+ size</text>
<text text-anchor="start" x="710" y="-203" font-family="Helvetica,sans-Serif" font-size="10.00" fill="#000000">+ type</text>
<text text-anchor="start" x="710" y="-192" font-family="Helvetica,sans-Serif" font-size="10.00" fill="#000000">+ bytes</text>
<text text-anchor="start" x="710" y="-181" font-family="Helvetica,sans-Serif" font-size="10.00" fill="#000000">+ dt</text>
<polyline fill="none" stroke="#000000" points="702,-174 791,-174 "/>
<text text-anchor="middle" x="746.5" y="-162" font-family="Helvetica,sans-Serif" font-size="10.00" fill="#000000"> </text>
</a>
</g>
</g>
<!-- Node6&#45;&gt;Node1 -->
<g id="edge6" class="edge">
<title>Node6&#45;&gt;Node1</title>
<path fill="none" stroke="#404040" d="M701.5608,-156.2235C687.6833,-143.7803 671.9677,-130.7124 656.5,-120 632.1273,-103.1204 603.1258,-87.4448 578.6134,-75.3146"/>
<polygon fill="none" stroke="#404040" points="578.4881,-75.2536 571.3424,-76.2226 567.6996,-69.9992 574.8453,-69.0303 578.4881,-75.2536"/>
<text text-anchor="middle" x="683.5" y="-123" font-family="Helvetica,sans-Serif" font-size="10.00" fill="#000000"> +data</text>
</g>
<!-- Node7 -->
<g id="node7" class="node">
<title>Node7</title>
<g id="a_node7"><a xlink:href="struct_maple_note_expression_text_event.html" target="_top" xlink:title="{MapleNoteExpressionTextEvent\n||}">
<polygon fill="#ffffff" stroke="#000000" points="292.5,-171.5 292.5,-228.5 450.5,-228.5 450.5,-171.5 292.5,-171.5"/>
<text text-anchor="middle" x="371.5" y="-216.5" font-family="Helvetica,sans-Serif" font-size="10.00" fill="#000000">MapleNoteExpressionTextEvent</text>
<polyline fill="none" stroke="#000000" points="292.5,-209.5 450.5,-209.5 "/>
<text text-anchor="middle" x="371.5" y="-197.5" font-family="Helvetica,sans-Serif" font-size="10.00" fill="#000000"> </text>
<polyline fill="none" stroke="#000000" points="292.5,-190.5 450.5,-190.5 "/>
<text text-anchor="middle" x="371.5" y="-178.5" font-family="Helvetica,sans-Serif" font-size="10.00" fill="#000000"> </text>
</a>
</g>
</g>
<!-- Node7&#45;&gt;Node1 -->
<g id="edge7" class="edge">
<title>Node7&#45;&gt;Node1</title>
<path fill="none" stroke="#404040" d="M386.7713,-171.3896C396.2784,-155.1861 409.5284,-135.1861 424.5,-120 438.8219,-105.4729 456.617,-92.1325 473.262,-81.1336"/>
<polygon fill="none" stroke="#404040" points="473.3396,-81.0839 476.2259,-74.4756 483.436,-74.5982 480.5497,-81.2065 473.3396,-81.0839"/>
<text text-anchor="middle" x="473" y="-123" font-family="Helvetica,sans-Serif" font-size="10.00" fill="#000000"> +noteExpressionText</text>
</g>
<!-- Node8&#45;&gt;Node7 -->
<g id="edge8" class="edge">
<title>Node8&#45;&gt;Node7</title>
<path fill="none" stroke="#404040" d="M371.5,-345.2674C371.5,-316.8061 371.5,-272.9473 371.5,-240.8652"/>
<polygon fill="none" stroke="#404040" points="371.5001,-240.7752 367.5,-234.7753 371.5,-228.7752 375.5,-234.7752 371.5001,-240.7752"/>
<text text-anchor="middle" x="410" y="-295.5" font-family="Helvetica,sans-Serif" font-size="10.00" fill="#000000"> +noteExpression</text>
</g>
<!-- Node12 -->
<g id="node12" class="node">
<title>Node12</title>
<g id="a_node12"><a xlink:href="struct_maple_note_expression_value_event.html" target="_top" xlink:title="Expression value event for note. ">
<polygon fill="#ffffff" stroke="#000000" points="469,-166 469,-234 606,-234 606,-166 469,-166"/>
<text text-anchor="start" x="477" y="-222" font-family="Helvetica,sans-Serif" font-size="10.00" fill="#000000">MapleNoteExpressionValue</text>
<text text-anchor="middle" x="537.5" y="-211" font-family="Helvetica,sans-Serif" font-size="10.00" fill="#000000">Event</text>
<polyline fill="none" stroke="#000000" points="469,-204 606,-204 "/>
<text text-anchor="middle" x="537.5" y="-192" font-family="Helvetica,sans-Serif" font-size="10.00" fill="#000000"> </text>
<polyline fill="none" stroke="#000000" points="469,-185 606,-185 "/>
<text text-anchor="middle" x="537.5" y="-173" font-family="Helvetica,sans-Serif" font-size="10.00" fill="#000000"> </text>
</a>
</g>
</g>
<!-- Node8&#45;&gt;Node12 -->
<g id="edge15" class="edge">
<title>Node8&#45;&gt;Node12</title>
<path fill="none" stroke="#404040" d="M428.7249,-345.2707C437.1554,-339.8005 445.3848,-333.6734 452.5,-327 477.6449,-303.4162 499.1624,-271.0547 514.257,-244.9019"/>
<polygon fill="none" stroke="#404040" points="514.4404,-244.5757 513.8964,-237.3851 520.3246,-234.1174 520.8686,-241.3079 514.4404,-244.5757"/>
<text text-anchor="middle" x="536" y="-295.5" font-family="Helvetica,sans-Serif" font-size="10.00" fill="#000000"> +noteExpression</text>
</g>
<!-- Node9 -->
<g id="node9" class="node">
<title>Node9</title>
<g id="a_node9"><a xlink:href="struct_maple_chord_event.html" target="_top" xlink:title="Chord event specific data. ">
<polygon fill="#ffffff" stroke="#000000" points="809,-149.5 809,-250.5 904,-250.5 904,-149.5 809,-149.5"/>
<text text-anchor="middle" x="856.5" y="-238.5" font-family="Helvetica,sans-Serif" font-size="10.00" fill="#000000">MapleChordEvent</text>
<polyline fill="none" stroke="#000000" points="809,-231.5 904,-231.5 "/>
<text text-anchor="start" x="817" y="-219.5" font-family="Helvetica,sans-Serif" font-size="10.00" fill="#000000">+ root</text>
<text text-anchor="start" x="817" y="-208.5" font-family="Helvetica,sans-Serif" font-size="10.00" fill="#000000">+ bassNote</text>
<text text-anchor="start" x="817" y="-197.5" font-family="Helvetica,sans-Serif" font-size="10.00" fill="#000000">+ mask</text>
<text text-anchor="start" x="817" y="-186.5" font-family="Helvetica,sans-Serif" font-size="10.00" fill="#000000">+ textLen</text>
<text text-anchor="start" x="817" y="-175.5" font-family="Helvetica,sans-Serif" font-size="10.00" fill="#000000">+ text</text>
<polyline fill="none" stroke="#000000" points="809,-168.5 904,-168.5 "/>
<text text-anchor="middle" x="856.5" y="-156.5" font-family="Helvetica,sans-Serif" font-size="10.00" fill="#000000"> </text>
</a>
</g>
</g>
<!-- Node9&#45;&gt;Node1 -->
<g id="edge10" class="edge">
<title>Node9&#45;&gt;Node1</title>
<path fill="none" stroke="#404040" d="M808.8833,-154.4963C806.1211,-152.5393 803.3188,-150.6917 800.5,-149 729.4978,-106.3891 637.1157,-78.2515 579.5621,-63.4688"/>
<polygon fill="none" stroke="#404040" points="579.4669,-63.4449 572.6721,-65.8599 567.8296,-60.5166 574.6243,-58.1017 579.4669,-63.4449"/>
<text text-anchor="middle" x="782.5" y="-123" font-family="Helvetica,sans-Serif" font-size="10.00" fill="#000000"> +chord</text>
</g>
<!-- Node10&#45;&gt;Node1 -->
<g id="edge11" class="edge">
<title>Node10&#45;&gt;Node1</title>
<path fill="none" stroke="#404040" d="M589.3135,-345.2455C618.7578,-296.2966 668.4348,-194.82 628.5,-120 617.5971,-99.5729 597.6688,-84.1291 578.2258,-73.0876"/>
<polygon fill="none" stroke="#404040" points="578.1297,-73.0365 570.9541,-73.7513 567.5345,-67.4026 574.7101,-66.6878 578.1297,-73.0365"/>
<text text-anchor="middle" x="663" y="-197.5" font-family="Helvetica,sans-Serif" font-size="10.00" fill="#000000"> +noteOn</text>
</g>
<!-- Node11 -->
<g id="node11" class="node">
<title>Node11</title>
<g id="a_node11"><a xlink:href="struct_maple_m_i_d_i_c_c_out_event.html" target="_top" xlink:title="Legacy MIDI CC Out event specific data. ">
<polygon fill="#ffffff" stroke="#000000" points="922,-155 922,-245 1043,-245 1043,-155 922,-155"/>
<text text-anchor="middle" x="982.5" y="-233" font-family="Helvetica,sans-Serif" font-size="10.00" fill="#000000">MapleMIDICCOutEvent</text>
<polyline fill="none" stroke="#000000" points="922,-226 1043,-226 "/>
<text text-anchor="start" x="930" y="-214" font-family="Helvetica,sans-Serif" font-size="10.00" fill="#000000">+ controlNumber</text>
<text text-anchor="start" x="930" y="-203" font-family="Helvetica,sans-Serif" font-size="10.00" fill="#000000">+ channel</text>
<text text-anchor="start" x="930" y="-192" font-family="Helvetica,sans-Serif" font-size="10.00" fill="#000000">+ value</text>
<text text-anchor="start" x="930" y="-181" font-family="Helvetica,sans-Serif" font-size="10.00" fill="#000000">+ value2</text>
<polyline fill="none" stroke="#000000" points="922,-174 1043,-174 "/>
<text text-anchor="middle" x="982.5" y="-162" font-family="Helvetica,sans-Serif" font-size="10.00" fill="#000000"> </text>
</a>
</g>
</g>
<!-- Node11&#45;&gt;Node1 -->
<g id="edge13" class="edge">
<title>Node11&#45;&gt;Node1</title>
<path fill="none" stroke="#404040" d="M924.7453,-154.9885C921.0245,-152.8225 917.2609,-150.8035 913.5,-149 801.6393,-95.3592 657.0604,-68.8698 579.8257,-57.7521"/>
<polygon fill="none" stroke="#404040" points="579.4542,-57.7001 572.9575,-60.8295 567.5701,-56.0362 574.0668,-52.9068 579.4542,-57.7001"/>
<text text-anchor="middle" x="892.5" y="-123" font-family="Helvetica,sans-Serif" font-size="10.00" fill="#000000"> +midiCCOut</text>
</g>
<!-- Node12&#45;&gt;Node1 -->
<g id="edge14" class="edge">
<title>Node12&#45;&gt;Node1</title>
<path fill="none" stroke="#404040" d="M531.0271,-165.726C529.2125,-154.682 527.4714,-142.3612 526.5,-131 526.0348,-125.5594 525.6889,-119.9031 525.4366,-114.2258"/>
<polygon fill="none" stroke="#404040" points="525.4236,-113.8324 521.226,-107.969 525.024,-101.8391 529.2216,-107.7025 525.4236,-113.8324"/>
<text text-anchor="middle" x="577.5" y="-123" font-family="Helvetica,sans-Serif" font-size="10.00" fill="#000000"> +noteExpressionValue</text>
</g>
</g>
</svg>
        <g id="navigator" transform="translate(0 0)" fill="#404254">
                <rect fill="#f2f5e9" fill-opacity="0.5" stroke="#606060" stroke-width=".5" x="0" y="0" width="60" height="60"/>
                <use id="zoomplus" xlink:href="#zoomPlus" x="17" y="9" onmousedown="handleZoom(evt,'in')"/>
                <use id="zoomminus" xlink:href="#zoomMin" x="42" y="9" onmousedown="handleZoom(evt,'out')"/>
                <use id="reset" xlink:href="#resetDef" x="30" y="36" onmousedown="handleReset()"/>
                <g id="arrowUp" xlink:href="#dirArrow" transform="translate(30 24)" onmousedown="handlePan(0,-1)">
                  <use xlink:href="#rim" fill="#404040">
                        <set attributeName="fill" to="#808080" begin="arrowUp.mouseover" end="arrowUp.mouseout"/>
                  </use>
                  <path fill="none" stroke="white" stroke-width="1.5" d="M0,-3.0v7 M-2.5,-0.5L0,-3.0L2.5,-0.5"/>
                </g>
                <g id="arrowRight" xlink:href="#dirArrow" transform="rotate(90) translate(36 -43)" onmousedown="handlePan(1,0)">
                  <use xlink:href="#rim" fill="#404040">
                        <set attributeName="fill" to="#808080" begin="arrowRight.mouseover" end="arrowRight.mouseout"/>
                  </use>
                  <path fill="none" stroke="white" stroke-width="1.5" d="M0,-3.0v7 M-2.5,-0.5L0,-3.0L2.5,-0.5"/>
                </g>
                <g id="arrowDown" xlink:href="#dirArrow" transform="rotate(180) translate(-30 -48)" onmousedown="handlePan(0,1)">
                  <use xlink:href="#rim" fill="#404040">
                        <set attributeName="fill" to="#808080" begin="arrowDown.mouseover" end="arrowDown.mouseout"/>
                  </use>
                  <path fill="none" stroke="white" stroke-width="1.5" d="M0,-3.0v7 M-2.5,-0.5L0,-3.0L2.5,-0.5"/>
                </g>
                <g id="arrowLeft" xlink:href="#dirArrow" transform="rotate(270) translate(-36 17)" onmousedown="handlePan(-1,0)">
                  <use xlink:href="#rim" fill="#404040">
                        <set attributeName="fill" to="#808080" begin="arrowLeft.mouseover" end="arrowLeft.mouseout"/>
                  </use>
                  <path fill="none" stroke="white" stroke-width="1.5" d="M0,-3.0v7 M-2.5,-0.5L0,-3.0L2.5,-0.5"/>
                </g>
        </g>
        <svg viewBox="0 0 15 15" width="100%" height="30px" preserveAspectRatio="xMaxYMin meet">
         <g id="arrow_out" transform="scale(0.3 0.3)">
          <a xlink:href="struct_maple_event__coll__graph_org.svg" target="_base">
           <rect id="button" ry="5" rx="5" y="6" x="6" height="38" width="38"
                fill="#f2f5e9" fill-opacity="0.5" stroke="#606060" stroke-width="1.0"/>
           <path id="arrow"
             d="M 11.500037,31.436501 C 11.940474,20.09759 22.043105,11.32322 32.158766,21.979434 L 37.068811,17.246167 C 37.068811,17.246167 37.088388,32 37.088388,32 L 22.160133,31.978069 C 22.160133,31.978069 26.997745,27.140456 26.997745,27.140456 C 18.528582,18.264221 13.291696,25.230495 11.500037,31.436501 z"
             style="fill:#404040;"/>
          </a>
         </g>
        </svg>
</svg>
