<?xml version="1.0" encoding="UTF-8" standalone="no"?>
<!DOCTYPE svg PUBLIC "-//W3C//DTD SVG 1.1//EN"
 "http://www.w3.org/Graphics/SVG/1.1/DTD/svg11.dtd">
<!-- Generated by graphviz version 2.40.1 (20161225.0304)
 -->
<!-- Title: medimuse::NoteStackInstance Pages: 1 -->
<svg width="160pt" height="248pt"
 viewBox="0.00 0.00 160.00 248.00" xmlns="http://www.w3.org/2000/svg" xmlns:xlink="http://www.w3.org/1999/xlink">
<g id="graph0" class="graph" transform="scale(1 1) rotate(0) translate(4 244)">
<title>medimuse::NoteStackInstance</title>
<polygon fill="#ffffff" stroke="transparent" points="-4,4 -4,-244 156,-244 156,4 -4,4"/>
<!-- Node1 -->
<g id="node1" class="node">
<title>Node1</title>
<polygon fill="#bfbfbf" stroke="#000000" points="0,-.5 0,-68.5 152,-68.5 152,-.5 0,-.5"/>
<text text-anchor="middle" x="76" y="-56.5" font-family="Helvetica,sans-Serif" font-size="10.00" fill="#000000">medimuse::NoteStackInstance</text>
<polyline fill="none" stroke="#000000" points="0,-49.5 152,-49.5 "/>
<text text-anchor="start" x="8" y="-37.5" font-family="Helvetica,sans-Serif" font-size="10.00" fill="#000000">+ hitPPQ</text>
<text text-anchor="start" x="8" y="-26.5" font-family="Helvetica,sans-Serif" font-size="10.00" fill="#000000">+ noteStackSize</text>
<polyline fill="none" stroke="#000000" points="0,-19.5 152,-19.5 "/>
<text text-anchor="middle" x="76" y="-7.5" font-family="Helvetica,sans-Serif" font-size="10.00" fill="#000000"> </text>
</g>
<!-- Node2 -->
<g id="node2" class="node">
<title>Node2</title>
<g id="a_node2"><a xlink:href="structmedimuse_1_1_i_note_object.html" target="_top" xlink:title="The INoteObject represents musical notes. ">
<polygon fill="#ffffff" stroke="#000000" points="16,-116.5 16,-239.5 136,-239.5 136,-116.5 16,-116.5"/>
<text text-anchor="middle" x="76" y="-227.5" font-family="Helvetica,sans-Serif" font-size="10.00" fill="#000000">medimuse::INoteObject</text>
<polyline fill="none" stroke="#000000" points="16,-220.5 136,-220.5 "/>
<text text-anchor="start" x="24" y="-208.5" font-family="Helvetica,sans-Serif" font-size="10.00" fill="#000000">+ duration</text>
<text text-anchor="start" x="24" y="-197.5" font-family="Helvetica,sans-Serif" font-size="10.00" fill="#000000">+ frequency</text>
<text text-anchor="start" x="24" y="-186.5" font-family="Helvetica,sans-Serif" font-size="10.00" fill="#000000">+ velocity</text>
<text text-anchor="start" x="24" y="-175.5" font-family="Helvetica,sans-Serif" font-size="10.00" fill="#000000">+ muted</text>
<polyline fill="none" stroke="#000000" points="16,-168.5 136,-168.5 "/>
<text text-anchor="start" x="24" y="-156.5" font-family="Helvetica,sans-Serif" font-size="10.00" fill="#000000">+ INoteObject()</text>
<text text-anchor="start" x="24" y="-145.5" font-family="Helvetica,sans-Serif" font-size="10.00" fill="#000000">+ operator==()</text>
<text text-anchor="start" x="24" y="-134.5" font-family="Helvetica,sans-Serif" font-size="10.00" fill="#000000">+ operator!=()</text>
<text text-anchor="start" x="24" y="-123.5" font-family="Helvetica,sans-Serif" font-size="10.00" fill="#000000">+ operator=()</text>
</a>
</g>
</g>
<!-- Node2&#45;&gt;Node1 -->
<g id="edge1" class="edge">
<title>Node2&#45;&gt;Node1</title>
<path fill="none" stroke="#404040" d="M76,-116.3103C76,-104.4991 76,-92.3169 76,-81.0782"/>
<polygon fill="none" stroke="#404040" points="76.0001,-80.8604 72,-74.8605 76,-68.8604 80,-74.8604 76.0001,-80.8604"/>
<text text-anchor="middle" x="103" y="-90" font-family="Helvetica,sans-Serif" font-size="10.00" fill="#000000"> +noteStack</text>
</g>
</g>
</svg>
