<?xml version="1.0" encoding="UTF-8" standalone="no"?>
<!DOCTYPE svg PUBLIC "-//W3C//DTD SVG 1.1//EN"
 "http://www.w3.org/Graphics/SVG/1.1/DTD/svg11.dtd">
<!-- Generated by graphviz version 2.40.1 (20161225.0304)
 -->
<!-- Title: MapleEventList Pages: 1 -->
<svg width="1051pt" height="654pt"
 viewBox="0.00 0.00 1051.00 654.00" xmlns="http://www.w3.org/2000/svg" xmlns:xlink="http://www.w3.org/1999/xlink">
<g id="graph0" class="graph" transform="scale(1 1) rotate(0) translate(4 650)">
<title>MapleEventList</title>
<polygon fill="#ffffff" stroke="transparent" points="-4,4 -4,-650 1047,-650 1047,4 -4,4"/>
<!-- Node1 -->
<g id="node1" class="node">
<title>Node1</title>
<polygon fill="#bfbfbf" stroke="#000000" points="483.5,-.5 483.5,-57.5 567.5,-57.5 567.5,-.5 483.5,-.5"/>
<text text-anchor="middle" x="525.5" y="-45.5" font-family="Helvetica,sans-Serif" font-size="10.00" fill="#000000">MapleEventList</text>
<polyline fill="none" stroke="#000000" points="483.5,-38.5 567.5,-38.5 "/>
<text text-anchor="start" x="491.5" y="-26.5" font-family="Helvetica,sans-Serif" font-size="10.00" fill="#000000">+ eventCount</text>
<polyline fill="none" stroke="#000000" points="483.5,-19.5 567.5,-19.5 "/>
<text text-anchor="middle" x="525.5" y="-7.5" font-family="Helvetica,sans-Serif" font-size="10.00" fill="#000000"> </text>
</g>
<!-- Node2 -->
<g id="node2" class="node">
<title>Node2</title>
<g id="a_node2"><a xlink:href="struct_maple_event.html" target="_top" xlink:title="Event structure. ">
<polygon fill="#ffffff" stroke="#000000" points="483.5,-105.5 483.5,-206.5 567.5,-206.5 567.5,-105.5 483.5,-105.5"/>
<text text-anchor="middle" x="525.5" y="-194.5" font-family="Helvetica,sans-Serif" font-size="10.00" fill="#000000">MapleEvent</text>
<polyline fill="none" stroke="#000000" points="483.5,-187.5 567.5,-187.5 "/>
<text text-anchor="start" x="491.5" y="-175.5" font-family="Helvetica,sans-Serif" font-size="10.00" fill="#000000">+ busIndex</text>
<text text-anchor="start" x="491.5" y="-164.5" font-family="Helvetica,sans-Serif" font-size="10.00" fill="#000000">+ sampleOffset</text>
<text text-anchor="start" x="491.5" y="-153.5" font-family="Helvetica,sans-Serif" font-size="10.00" fill="#000000">+ ppqPosition</text>
<text text-anchor="start" x="491.5" y="-142.5" font-family="Helvetica,sans-Serif" font-size="10.00" fill="#000000">+ eventType</text>
<text text-anchor="start" x="491.5" y="-131.5" font-family="Helvetica,sans-Serif" font-size="10.00" fill="#000000">+ event</text>
<polyline fill="none" stroke="#000000" points="483.5,-124.5 567.5,-124.5 "/>
<text text-anchor="middle" x="525.5" y="-112.5" font-family="Helvetica,sans-Serif" font-size="10.00" fill="#000000"> </text>
</a>
</g>
</g>
<!-- Node2&#45;&gt;Node1 -->
<g id="edge1" class="edge">
<title>Node2&#45;&gt;Node1</title>
<path fill="none" stroke="#404040" d="M525.5,-105.4413C525.5,-93.681 525.5,-81.3021 525.5,-70.0123"/>
<polygon fill="none" stroke="#404040" points="525.5001,-69.8195 521.5,-63.8195 525.5,-57.8195 529.5,-63.8195 525.5001,-69.8195"/>
<text text-anchor="middle" x="545" y="-79" font-family="Helvetica,sans-Serif" font-size="10.00" fill="#000000"> +events</text>
</g>
<!-- Node3 -->
<g id="node3" class="node">
<title>Node3</title>
<g id="a_node3"><a xlink:href="struct_maple_scale_event.html" target="_top" xlink:title="Scale event specific data. ">
<polygon fill="#ffffff" stroke="#000000" points="0,-260 0,-350 93,-350 93,-260 0,-260"/>
<text text-anchor="middle" x="46.5" y="-338" font-family="Helvetica,sans-Serif" font-size="10.00" fill="#000000">MapleScaleEvent</text>
<polyline fill="none" stroke="#000000" points="0,-331 93,-331 "/>
<text text-anchor="start" x="8" y="-319" font-family="Helvetica,sans-Serif" font-size="10.00" fill="#000000">+ root</text>
<text text-anchor="start" x="8" y="-308" font-family="Helvetica,sans-Serif" font-size="10.00" fill="#000000">+ mask</text>
<text text-anchor="start" x="8" y="-297" font-family="Helvetica,sans-Serif" font-size="10.00" fill="#000000">+ textLen</text>
<text text-anchor="start" x="8" y="-286" font-family="Helvetica,sans-Serif" font-size="10.00" fill="#000000">+ text</text>
<polyline fill="none" stroke="#000000" points="0,-279 93,-279 "/>
<text text-anchor="middle" x="46.5" y="-267" font-family="Helvetica,sans-Serif" font-size="10.00" fill="#000000"> </text>
</a>
</g>
</g>
<!-- Node3&#45;&gt;Node2 -->
<g id="edge2" class="edge">
<title>Node3&#45;&gt;Node2</title>
<path fill="none" stroke="#404040" d="M57.824,-259.8629C63.2352,-246.7694 71.1135,-233.6782 82.5,-225 142.6579,-179.151 366.7984,-163.1489 471.2654,-158.1006"/>
<polygon fill="none" stroke="#404040" points="471.4058,-158.0941 477.214,-153.8203 483.3929,-157.5379 477.5848,-161.8117 471.4058,-158.0941"/>
<text text-anchor="middle" x="99" y="-228" font-family="Helvetica,sans-Serif" font-size="10.00" fill="#000000"> +scale</text>
</g>
<!-- Node4 -->
<g id="node4" class="node">
<title>Node4</title>
<g id="a_node4"><a xlink:href="struct_maple_note_off_event.html" target="_top" xlink:title="Note&#45;off event specific data. ">
<polygon fill="#ffffff" stroke="#000000" points="83,-374.5 83,-431.5 186,-431.5 186,-374.5 83,-374.5"/>
<text text-anchor="middle" x="134.5" y="-419.5" font-family="Helvetica,sans-Serif" font-size="10.00" fill="#000000">MapleNoteOffEvent</text>
<polyline fill="none" stroke="#000000" points="83,-412.5 186,-412.5 "/>
<text text-anchor="middle" x="134.5" y="-400.5" font-family="Helvetica,sans-Serif" font-size="10.00" fill="#000000"> </text>
<polyline fill="none" stroke="#000000" points="83,-393.5 186,-393.5 "/>
<text text-anchor="middle" x="134.5" y="-381.5" font-family="Helvetica,sans-Serif" font-size="10.00" fill="#000000"> </text>
</a>
</g>
</g>
<!-- Node4&#45;&gt;Node2 -->
<g id="edge3" class="edge">
<title>Node4&#45;&gt;Node2</title>
<path fill="none" stroke="#404040" d="M129.9403,-374.3723C126.4054,-341.6109 125.9917,-288.0973 153.5,-254 193.2321,-204.7511 377.9639,-174.7163 471.2675,-162.4344"/>
<polygon fill="none" stroke="#404040" points="471.3592,-162.4227 476.7981,-157.6879 483.2606,-160.8874 477.8217,-165.6221 471.3592,-162.4227"/>
<text text-anchor="middle" x="174.5" y="-302.5" font-family="Helvetica,sans-Serif" font-size="10.00" fill="#000000"> +noteOff</text>
</g>
<!-- Node5 -->
<g id="node5" class="node">
<title>Node5</title>
<g id="a_node5"><a xlink:href="struct_maple_midi_note_event.html" target="_top" xlink:title="{MapleMidiNoteEvent\n|+ channel\l+ pitch\l+ tuning\l+ velocity\l|}">
<polygon fill="#ffffff" stroke="#000000" points="258,-555.5 258,-645.5 365,-645.5 365,-555.5 258,-555.5"/>
<text text-anchor="middle" x="311.5" y="-633.5" font-family="Helvetica,sans-Serif" font-size="10.00" fill="#000000">MapleMidiNoteEvent</text>
<polyline fill="none" stroke="#000000" points="258,-626.5 365,-626.5 "/>
<text text-anchor="start" x="266" y="-614.5" font-family="Helvetica,sans-Serif" font-size="10.00" fill="#000000">+ channel</text>
<text text-anchor="start" x="266" y="-603.5" font-family="Helvetica,sans-Serif" font-size="10.00" fill="#000000">+ pitch</text>
<text text-anchor="start" x="266" y="-592.5" font-family="Helvetica,sans-Serif" font-size="10.00" fill="#000000">+ tuning</text>
<text text-anchor="start" x="266" y="-581.5" font-family="Helvetica,sans-Serif" font-size="10.00" fill="#000000">+ velocity</text>
<polyline fill="none" stroke="#000000" points="258,-574.5 365,-574.5 "/>
<text text-anchor="middle" x="311.5" y="-562.5" font-family="Helvetica,sans-Serif" font-size="10.00" fill="#000000"> </text>
</a>
</g>
</g>
<!-- Node5&#45;&gt;Node4 -->
<g id="edge4" class="edge">
<title>Node5&#45;&gt;Node4</title>
<path fill="none" stroke="#404040" d="M270.8926,-555.1895C239.8662,-520.5696 197.6014,-473.4098 168.381,-440.8051"/>
<polygon fill="none" stroke="#404040" points="168.1412,-440.5375 161.158,-438.7389 160.1324,-431.6011 167.1156,-433.3997 168.1412,-440.5375"/>
<text text-anchor="middle" x="267.5" y="-529" font-family="Helvetica,sans-Serif" font-size="10.00" fill="#000000"> +note</text>
</g>
<!-- Node6 -->
<g id="node6" class="node">
<title>Node6</title>
<g id="a_node6"><a xlink:href="struct_maple_poly_pressure_event.html" target="_top" xlink:title="PolyPressure event specific data. ">
<polygon fill="#ffffff" stroke="#000000" points="208,-374.5 208,-431.5 335,-431.5 335,-374.5 208,-374.5"/>
<text text-anchor="middle" x="271.5" y="-419.5" font-family="Helvetica,sans-Serif" font-size="10.00" fill="#000000">MaplePolyPressureEvent</text>
<polyline fill="none" stroke="#000000" points="208,-412.5 335,-412.5 "/>
<text text-anchor="middle" x="271.5" y="-400.5" font-family="Helvetica,sans-Serif" font-size="10.00" fill="#000000"> </text>
<polyline fill="none" stroke="#000000" points="208,-393.5 335,-393.5 "/>
<text text-anchor="middle" x="271.5" y="-381.5" font-family="Helvetica,sans-Serif" font-size="10.00" fill="#000000"> </text>
</a>
</g>
</g>
<!-- Node5&#45;&gt;Node6 -->
<g id="edge6" class="edge">
<title>Node5&#45;&gt;Node6</title>
<path fill="none" stroke="#404040" d="M302.3232,-555.1895C295.5222,-521.6097 286.3318,-476.2321 279.7597,-443.7824"/>
<polygon fill="none" stroke="#404040" points="279.6747,-443.3623 274.5633,-438.2758 277.2926,-431.6011 282.4041,-436.6877 279.6747,-443.3623"/>
<text text-anchor="middle" x="312.5" y="-529" font-family="Helvetica,sans-Serif" font-size="10.00" fill="#000000"> +note</text>
</g>
<!-- Node9 -->
<g id="node9" class="node">
<title>Node9</title>
<g id="a_node9"><a xlink:href="struct_maple_expressive_event.html" target="_top" xlink:title="Expressive event for note. ">
<polygon fill="#ffffff" stroke="#000000" points="313,-450.5 313,-507.5 430,-507.5 430,-450.5 313,-450.5"/>
<text text-anchor="middle" x="371.5" y="-495.5" font-family="Helvetica,sans-Serif" font-size="10.00" fill="#000000">MapleExpressiveEvent</text>
<polyline fill="none" stroke="#000000" points="313,-488.5 430,-488.5 "/>
<text text-anchor="start" x="321" y="-476.5" font-family="Helvetica,sans-Serif" font-size="10.00" fill="#000000">+ expression_type</text>
<polyline fill="none" stroke="#000000" points="313,-469.5 430,-469.5 "/>
<text text-anchor="middle" x="371.5" y="-457.5" font-family="Helvetica,sans-Serif" font-size="10.00" fill="#000000"> </text>
</a>
</g>
</g>
<!-- Node5&#45;&gt;Node9 -->
<g id="edge10" class="edge">
<title>Node5&#45;&gt;Node9</title>
<path fill="none" stroke="#404040" d="M333.8418,-555.2579C339.8005,-543.1915 346.1912,-530.2503 351.9851,-518.5177"/>
<polygon fill="none" stroke="#404040" points="352.0102,-518.4668 351.0804,-511.3159 357.3236,-507.7072 358.2534,-514.8582 352.0102,-518.4668"/>
<text text-anchor="middle" x="361.5" y="-529" font-family="Helvetica,sans-Serif" font-size="10.00" fill="#000000"> +note</text>
</g>
<!-- Node11 -->
<g id="node11" class="node">
<title>Node11</title>
<g id="a_node11"><a xlink:href="struct_maple_note_on_event.html" target="_top" xlink:title="Note&#45;on event specific data. ">
<polygon fill="#ffffff" stroke="#000000" points="519.5,-450.5 519.5,-507.5 621.5,-507.5 621.5,-450.5 519.5,-450.5"/>
<text text-anchor="middle" x="570.5" y="-495.5" font-family="Helvetica,sans-Serif" font-size="10.00" fill="#000000">MapleNoteOnEvent</text>
<polyline fill="none" stroke="#000000" points="519.5,-488.5 621.5,-488.5 "/>
<text text-anchor="middle" x="570.5" y="-476.5" font-family="Helvetica,sans-Serif" font-size="10.00" fill="#000000"> </text>
<polyline fill="none" stroke="#000000" points="519.5,-469.5 621.5,-469.5 "/>
<text text-anchor="middle" x="570.5" y="-457.5" font-family="Helvetica,sans-Serif" font-size="10.00" fill="#000000"> </text>
</a>
</g>
</g>
<!-- Node5&#45;&gt;Node11 -->
<g id="edge13" class="edge">
<title>Node5&#45;&gt;Node11</title>
<path fill="none" stroke="#404040" d="M365.165,-575.3251C406.7378,-555.8228 464.4097,-528.7682 508.0517,-508.2952"/>
<polygon fill="none" stroke="#404040" points="508.2458,-508.2042 511.979,-502.0346 519.1098,-503.1077 515.3767,-509.2773 508.2458,-508.2042"/>
<text text-anchor="middle" x="478.5" y="-529" font-family="Helvetica,sans-Serif" font-size="10.00" fill="#000000"> +note</text>
</g>
<!-- Node6&#45;&gt;Node2 -->
<g id="edge5" class="edge">
<title>Node6&#45;&gt;Node2</title>
<path fill="none" stroke="#404040" d="M229.4276,-374.2951C224.1949,-368.8546 219.6016,-362.7302 216.5,-356 197.5263,-314.8283 189.7248,-290.5814 216.5,-254 246.8524,-212.5313 391.1523,-180.3553 471.3776,-165.3173"/>
<polygon fill="none" stroke="#404040" points="471.4008,-165.3131 476.5763,-160.2918 483.202,-163.138 478.0264,-168.1593 471.4008,-165.3131"/>
<text text-anchor="middle" x="250" y="-302.5" font-family="Helvetica,sans-Serif" font-size="10.00" fill="#000000"> +polyPressure</text>
</g>
<!-- Node7 -->
<g id="node7" class="node">
<title>Node7</title>
<g id="a_node7"><a xlink:href="struct_maple_data_event.html" target="_top" xlink:title="Data event specific data. Used in MapleEvent (union)*/. ">
<polygon fill="#ffffff" stroke="#000000" points="702,-260 702,-350 791,-350 791,-260 702,-260"/>
<text text-anchor="middle" x="746.5" y="-338" font-family="Helvetica,sans-Serif" font-size="10.00" fill="#000000">MapleDataEvent</text>
<polyline fill="none" stroke="#000000" points="702,-331 791,-331 "/>
<text text-anchor="start" x="710" y="-319" font-family="Helvetica,sans-Serif" font-size="10.00" fill="#000000">+ size</text>
<text text-anchor="start" x="710" y="-308" font-family="Helvetica,sans-Serif" font-size="10.00" fill="#000000">+ type</text>
<text text-anchor="start" x="710" y="-297" font-family="Helvetica,sans-Serif" font-size="10.00" fill="#000000">+ bytes</text>
<text text-anchor="start" x="710" y="-286" font-family="Helvetica,sans-Serif" font-size="10.00" fill="#000000">+ dt</text>
<polyline fill="none" stroke="#000000" points="702,-279 791,-279 "/>
<text text-anchor="middle" x="746.5" y="-267" font-family="Helvetica,sans-Serif" font-size="10.00" fill="#000000"> </text>
</a>
</g>
</g>
<!-- Node7&#45;&gt;Node2 -->
<g id="edge7" class="edge">
<title>Node7&#45;&gt;Node2</title>
<path fill="none" stroke="#404040" d="M701.5608,-261.2235C687.6833,-248.7803 671.9677,-235.7124 656.5,-225 632.1273,-208.1204 603.1258,-192.4448 578.6134,-180.3146"/>
<polygon fill="none" stroke="#404040" points="578.4881,-180.2536 571.3424,-181.2226 567.6996,-174.9992 574.8453,-174.0303 578.4881,-180.2536"/>
<text text-anchor="middle" x="683.5" y="-228" font-family="Helvetica,sans-Serif" font-size="10.00" fill="#000000"> +data</text>
</g>
<!-- Node8 -->
<g id="node8" class="node">
<title>Node8</title>
<g id="a_node8"><a xlink:href="struct_maple_note_expression_text_event.html" target="_top" xlink:title="{MapleNoteExpressionTextEvent\n||}">
<polygon fill="#ffffff" stroke="#000000" points="292.5,-276.5 292.5,-333.5 450.5,-333.5 450.5,-276.5 292.5,-276.5"/>
<text text-anchor="middle" x="371.5" y="-321.5" font-family="Helvetica,sans-Serif" font-size="10.00" fill="#000000">MapleNoteExpressionTextEvent</text>
<polyline fill="none" stroke="#000000" points="292.5,-314.5 450.5,-314.5 "/>
<text text-anchor="middle" x="371.5" y="-302.5" font-family="Helvetica,sans-Serif" font-size="10.00" fill="#000000"> </text>
<polyline fill="none" stroke="#000000" points="292.5,-295.5 450.5,-295.5 "/>
<text text-anchor="middle" x="371.5" y="-283.5" font-family="Helvetica,sans-Serif" font-size="10.00" fill="#000000"> </text>
</a>
</g>
</g>
<!-- Node8&#45;&gt;Node2 -->
<g id="edge8" class="edge">
<title>Node8&#45;&gt;Node2</title>
<path fill="none" stroke="#404040" d="M386.7713,-276.3896C396.2784,-260.1861 409.5284,-240.1861 424.5,-225 438.8219,-210.4729 456.617,-197.1325 473.262,-186.1336"/>
<polygon fill="none" stroke="#404040" points="473.3396,-186.0839 476.2259,-179.4756 483.436,-179.5982 480.5497,-186.2065 473.3396,-186.0839"/>
<text text-anchor="middle" x="473" y="-228" font-family="Helvetica,sans-Serif" font-size="10.00" fill="#000000"> +noteExpressionText</text>
</g>
<!-- Node9&#45;&gt;Node8 -->
<g id="edge9" class="edge">
<title>Node9&#45;&gt;Node8</title>
<path fill="none" stroke="#404040" d="M371.5,-450.2674C371.5,-421.8061 371.5,-377.9473 371.5,-345.8652"/>
<polygon fill="none" stroke="#404040" points="371.5001,-345.7752 367.5,-339.7753 371.5,-333.7752 375.5,-339.7752 371.5001,-345.7752"/>
<text text-anchor="middle" x="410" y="-400.5" font-family="Helvetica,sans-Serif" font-size="10.00" fill="#000000"> +noteExpression</text>
</g>
<!-- Node13 -->
<g id="node13" class="node">
<title>Node13</title>
<g id="a_node13"><a xlink:href="struct_maple_note_expression_value_event.html" target="_top" xlink:title="Expression value event for note. ">
<polygon fill="#ffffff" stroke="#000000" points="469,-271 469,-339 606,-339 606,-271 469,-271"/>
<text text-anchor="start" x="477" y="-327" font-family="Helvetica,sans-Serif" font-size="10.00" fill="#000000">MapleNoteExpressionValue</text>
<text text-anchor="middle" x="537.5" y="-316" font-family="Helvetica,sans-Serif" font-size="10.00" fill="#000000">Event</text>
<polyline fill="none" stroke="#000000" points="469,-309 606,-309 "/>
<text text-anchor="middle" x="537.5" y="-297" font-family="Helvetica,sans-Serif" font-size="10.00" fill="#000000"> </text>
<polyline fill="none" stroke="#000000" points="469,-290 606,-290 "/>
<text text-anchor="middle" x="537.5" y="-278" font-family="Helvetica,sans-Serif" font-size="10.00" fill="#000000"> </text>
</a>
</g>
</g>
<!-- Node9&#45;&gt;Node13 -->
<g id="edge16" class="edge">
<title>Node9&#45;&gt;Node13</title>
<path fill="none" stroke="#404040" d="M428.7249,-450.2707C437.1554,-444.8005 445.3848,-438.6734 452.5,-432 477.6449,-408.4162 499.1624,-376.0547 514.257,-349.9019"/>
<polygon fill="none" stroke="#404040" points="514.4404,-349.5757 513.8964,-342.3851 520.3246,-339.1174 520.8686,-346.3079 514.4404,-349.5757"/>
<text text-anchor="middle" x="536" y="-400.5" font-family="Helvetica,sans-Serif" font-size="10.00" fill="#000000"> +noteExpression</text>
</g>
<!-- Node10 -->
<g id="node10" class="node">
<title>Node10</title>
<g id="a_node10"><a xlink:href="struct_maple_chord_event.html" target="_top" xlink:title="Chord event specific data. ">
<polygon fill="#ffffff" stroke="#000000" points="809,-254.5 809,-355.5 904,-355.5 904,-254.5 809,-254.5"/>
<text text-anchor="middle" x="856.5" y="-343.5" font-family="Helvetica,sans-Serif" font-size="10.00" fill="#000000">MapleChordEvent</text>
<polyline fill="none" stroke="#000000" points="809,-336.5 904,-336.5 "/>
<text text-anchor="start" x="817" y="-324.5" font-family="Helvetica,sans-Serif" font-size="10.00" fill="#000000">+ root</text>
<text text-anchor="start" x="817" y="-313.5" font-family="Helvetica,sans-Serif" font-size="10.00" fill="#000000">+ bassNote</text>
<text text-anchor="start" x="817" y="-302.5" font-family="Helvetica,sans-Serif" font-size="10.00" fill="#000000">+ mask</text>
<text text-anchor="start" x="817" y="-291.5" font-family="Helvetica,sans-Serif" font-size="10.00" fill="#000000">+ textLen</text>
<text text-anchor="start" x="817" y="-280.5" font-family="Helvetica,sans-Serif" font-size="10.00" fill="#000000">+ text</text>
<polyline fill="none" stroke="#000000" points="809,-273.5 904,-273.5 "/>
<text text-anchor="middle" x="856.5" y="-261.5" font-family="Helvetica,sans-Serif" font-size="10.00" fill="#000000"> </text>
</a>
</g>
</g>
<!-- Node10&#45;&gt;Node2 -->
<g id="edge11" class="edge">
<title>Node10&#45;&gt;Node2</title>
<path fill="none" stroke="#404040" d="M808.8833,-259.4963C806.1211,-257.5393 803.3188,-255.6917 800.5,-254 729.4978,-211.3891 637.1157,-183.2515 579.5621,-168.4688"/>
<polygon fill="none" stroke="#404040" points="579.4669,-168.4449 572.6721,-170.8599 567.8296,-165.5166 574.6243,-163.1017 579.4669,-168.4449"/>
<text text-anchor="middle" x="782.5" y="-228" font-family="Helvetica,sans-Serif" font-size="10.00" fill="#000000"> +chord</text>
</g>
<!-- Node11&#45;&gt;Node2 -->
<g id="edge12" class="edge">
<title>Node11&#45;&gt;Node2</title>
<path fill="none" stroke="#404040" d="M589.3135,-450.2455C618.7578,-401.2966 668.4348,-299.82 628.5,-225 617.5971,-204.5729 597.6688,-189.1291 578.2258,-178.0876"/>
<polygon fill="none" stroke="#404040" points="578.1297,-178.0365 570.9541,-178.7513 567.5345,-172.4026 574.7101,-171.6878 578.1297,-178.0365"/>
<text text-anchor="middle" x="663" y="-302.5" font-family="Helvetica,sans-Serif" font-size="10.00" fill="#000000"> +noteOn</text>
</g>
<!-- Node12 -->
<g id="node12" class="node">
<title>Node12</title>
<g id="a_node12"><a xlink:href="struct_maple_m_i_d_i_c_c_out_event.html" target="_top" xlink:title="Legacy MIDI CC Out event specific data. ">
<polygon fill="#ffffff" stroke="#000000" points="922,-260 922,-350 1043,-350 1043,-260 922,-260"/>
<text text-anchor="middle" x="982.5" y="-338" font-family="Helvetica,sans-Serif" font-size="10.00" fill="#000000">MapleMIDICCOutEvent</text>
<polyline fill="none" stroke="#000000" points="922,-331 1043,-331 "/>
<text text-anchor="start" x="930" y="-319" font-family="Helvetica,sans-Serif" font-size="10.00" fill="#000000">+ controlNumber</text>
<text text-anchor="start" x="930" y="-308" font-family="Helvetica,sans-Serif" font-size="10.00" fill="#000000">+ channel</text>
<text text-anchor="start" x="930" y="-297" font-family="Helvetica,sans-Serif" font-size="10.00" fill="#000000">+ value</text>
<text text-anchor="start" x="930" y="-286" font-family="Helvetica,sans-Serif" font-size="10.00" fill="#000000">+ value2</text>
<polyline fill="none" stroke="#000000" points="922,-279 1043,-279 "/>
<text text-anchor="middle" x="982.5" y="-267" font-family="Helvetica,sans-Serif" font-size="10.00" fill="#000000"> </text>
</a>
</g>
</g>
<!-- Node12&#45;&gt;Node2 -->
<g id="edge14" class="edge">
<title>Node12&#45;&gt;Node2</title>
<path fill="none" stroke="#404040" d="M924.7453,-259.9885C921.0245,-257.8225 917.2609,-255.8035 913.5,-254 801.6393,-200.3592 657.0604,-173.8698 579.8257,-162.7521"/>
<polygon fill="none" stroke="#404040" points="579.4542,-162.7001 572.9575,-165.8295 567.5701,-161.0362 574.0668,-157.9068 579.4542,-162.7001"/>
<text text-anchor="middle" x="892.5" y="-228" font-family="Helvetica,sans-Serif" font-size="10.00" fill="#000000"> +midiCCOut</text>
</g>
<!-- Node13&#45;&gt;Node2 -->
<g id="edge15" class="edge">
<title>Node13&#45;&gt;Node2</title>
<path fill="none" stroke="#404040" d="M531.0271,-270.726C529.2125,-259.682 527.4714,-247.3612 526.5,-236 526.0348,-230.5594 525.6889,-224.9031 525.4366,-219.2258"/>
<polygon fill="none" stroke="#404040" points="525.4236,-218.8324 521.226,-212.969 525.024,-206.8391 529.2216,-212.7025 525.4236,-218.8324"/>
<text text-anchor="middle" x="577.5" y="-228" font-family="Helvetica,sans-Serif" font-size="10.00" fill="#000000"> +noteExpressionValue</text>
</g>
</g>
</svg>
