<?xml version="1.0" encoding="UTF-8" standalone="no"?>
<!DOCTYPE svg PUBLIC "-//W3C//DTD SVG 1.1//EN"
 "http://www.w3.org/Graphics/SVG/1.1/DTD/svg11.dtd">
<!-- Generated by graphviz version 2.40.1 (20161225.0304)
 -->
<!-- Title: /tmp/tmp.RKK8zw89sg/src/main/cpp/include/GenericBioSignalProcessor.hpp Pages: 1 -->
<svg width="387pt" height="162pt"
 viewBox="0.00 0.00 386.50 162.00" xmlns="http://www.w3.org/2000/svg" xmlns:xlink="http://www.w3.org/1999/xlink">
<g id="graph0" class="graph" transform="scale(1 1) rotate(0) translate(4 158)">
<title>/tmp/tmp.RKK8zw89sg/src/main/cpp/include/GenericBioSignalProcessor.hpp</title>
<polygon fill="#ffffff" stroke="transparent" points="-4,4 -4,-158 382.5,-158 382.5,4 -4,4"/>
<!-- Node0 -->
<g id="node1" class="node">
<title>Node0</title>
<polygon fill="#bfbfbf" stroke="#000000" points="130,-112.5 130,-153.5 288,-153.5 288,-112.5 130,-112.5"/>
<text text-anchor="start" x="138" y="-141.5" font-family="Helvetica,sans-Serif" font-size="10.00" fill="#000000">/tmp/tmp.RKK8zw89sg</text>
<text text-anchor="start" x="138" y="-130.5" font-family="Helvetica,sans-Serif" font-size="10.00" fill="#000000">/src/main/cpp/include</text>
<text text-anchor="middle" x="209" y="-119.5" font-family="Helvetica,sans-Serif" font-size="10.00" fill="#000000">/GenericBioSignalProcessor.hpp</text>
</g>
<!-- Node1 -->
<g id="node2" class="node">
<title>Node1</title>
<g id="a_node2"><a xlink:href="_i_bio_signal_processor_callback_8h.html" target="_top" xlink:title="IBioSignalProcessorCallback.h">
<polygon fill="#ffffff" stroke="#000000" points="0,-56.5 0,-75.5 152,-75.5 152,-56.5 0,-56.5"/>
<text text-anchor="middle" x="76" y="-63.5" font-family="Helvetica,sans-Serif" font-size="10.00" fill="#000000">IBioSignalProcessorCallback.h</text>
</a>
</g>
</g>
<!-- Node0&#45;&gt;Node1 -->
<g id="edge1" class="edge">
<title>Node0&#45;&gt;Node1</title>
<path fill="none" stroke="#191970" d="M168.0104,-112.3511C147.3417,-101.9391 122.7978,-89.5748 104.2597,-80.2361"/>
<polygon fill="#191970" stroke="#191970" points="105.6706,-77.0279 95.1652,-75.6546 102.5213,-83.2795 105.6706,-77.0279"/>
</g>
<!-- Node2 -->
<g id="node3" class="node">
<title>Node2</title>
<g id="a_node3"><a xlink:href="_i_input_signal_8h.html" target="_top" xlink:title="IInputSignal.h">
<polygon fill="#ffffff" stroke="#000000" points="170.5,-56.5 170.5,-75.5 247.5,-75.5 247.5,-56.5 170.5,-56.5"/>
<text text-anchor="middle" x="209" y="-63.5" font-family="Helvetica,sans-Serif" font-size="10.00" fill="#000000">IInputSignal.h</text>
</a>
</g>
</g>
<!-- Node0&#45;&gt;Node2 -->
<g id="edge2" class="edge">
<title>Node0&#45;&gt;Node2</title>
<path fill="none" stroke="#191970" d="M209,-112.168C209,-103.8226 209,-94.2471 209,-85.9879"/>
<polygon fill="#191970" stroke="#191970" points="212.5001,-85.7804 209,-75.7805 205.5001,-85.7805 212.5001,-85.7804"/>
</g>
<!-- Node3 -->
<g id="node4" class="node">
<title>Node3</title>
<g id="a_node4"><a xlink:href="_i_bio_signal_processor_8h.html" target="_top" xlink:title="IBioSignalProcessor.h">
<polygon fill="#ffffff" stroke="#000000" points="265.5,-56.5 265.5,-75.5 378.5,-75.5 378.5,-56.5 265.5,-56.5"/>
<text text-anchor="middle" x="322" y="-63.5" font-family="Helvetica,sans-Serif" font-size="10.00" fill="#000000">IBioSignalProcessor.h</text>
</a>
</g>
</g>
<!-- Node0&#45;&gt;Node3 -->
<g id="edge3" class="edge">
<title>Node0&#45;&gt;Node3</title>
<path fill="none" stroke="#191970" d="M243.8258,-112.3511C260.903,-102.2256 281.0941,-90.254 296.678,-81.0139"/>
<polygon fill="#191970" stroke="#191970" points="298.9002,-83.7654 305.7168,-75.6546 295.3301,-77.7442 298.9002,-83.7654"/>
</g>
<!-- Node4 -->
<g id="node5" class="node">
<title>Node4</title>
<g id="a_node5"><a xlink:href="_global_types_8h.html" target="_top" xlink:title="GlobalTypes.h">
<polygon fill="#ffffff" stroke="#000000" points="282,-.5 282,-19.5 362,-19.5 362,-.5 282,-.5"/>
<text text-anchor="middle" x="322" y="-7.5" font-family="Helvetica,sans-Serif" font-size="10.00" fill="#000000">GlobalTypes.h</text>
</a>
</g>
</g>
<!-- Node3&#45;&gt;Node4 -->
<g id="edge4" class="edge">
<title>Node3&#45;&gt;Node4</title>
<path fill="none" stroke="#191970" d="M322,-56.2455C322,-48.9382 322,-38.6944 322,-29.7046"/>
<polygon fill="#191970" stroke="#191970" points="325.5001,-29.6426 322,-19.6427 318.5001,-29.6427 325.5001,-29.6426"/>
</g>
</g>
</svg>
