<?xml version="1.0" encoding="UTF-8" standalone="no"?>
<!DOCTYPE svg PUBLIC "-//W3C//DTD SVG 1.1//EN"
 "http://www.w3.org/Graphics/SVG/1.1/DTD/svg11.dtd">
<!-- Generated by graphviz version 2.40.1 (20161225.0304)
 -->
<!-- Title: /tmp/tmp.RKK8zw89sg/src/main/cpp/include/IInputSignal.h Pages: 1 -->
<svg width="200pt" height="206pt"
 viewBox="0.00 0.00 199.50 206.00" xmlns="http://www.w3.org/2000/svg" xmlns:xlink="http://www.w3.org/1999/xlink">
<g id="graph0" class="graph" transform="scale(1 1) rotate(0) translate(4 202)">
<title>/tmp/tmp.RKK8zw89sg/src/main/cpp/include/IInputSignal.h</title>
<polygon fill="#ffffff" stroke="transparent" points="-4,4 -4,-202 195.5,-202 195.5,4 -4,4"/>
<!-- Node1 -->
<g id="node1" class="node">
<title>Node1</title>
<polygon fill="#bfbfbf" stroke="#000000" points="72.5,-156.5 72.5,-197.5 191.5,-197.5 191.5,-156.5 72.5,-156.5"/>
<text text-anchor="start" x="80.5" y="-185.5" font-family="Helvetica,sans-Serif" font-size="10.00" fill="#000000">/tmp/tmp.RKK8zw89sg</text>
<text text-anchor="start" x="80.5" y="-174.5" font-family="Helvetica,sans-Serif" font-size="10.00" fill="#000000">/src/main/cpp/include</text>
<text text-anchor="middle" x="132" y="-163.5" font-family="Helvetica,sans-Serif" font-size="10.00" fill="#000000">/IInputSignal.h</text>
</g>
<!-- Node2 -->
<g id="node2" class="node">
<title>Node2</title>
<g id="a_node2"><a xlink:href="_generic_bio_signal_processor_8hpp.html" target="_top" xlink:title="/tmp/tmp.RKK8zw89sg\l/src/main/cpp/include\l/GenericBioSignalProcessor.hpp">
<polygon fill="#ffffff" stroke="#000000" points="0,-78.5 0,-119.5 158,-119.5 158,-78.5 0,-78.5"/>
<text text-anchor="start" x="8" y="-107.5" font-family="Helvetica,sans-Serif" font-size="10.00" fill="#000000">/tmp/tmp.RKK8zw89sg</text>
<text text-anchor="start" x="8" y="-96.5" font-family="Helvetica,sans-Serif" font-size="10.00" fill="#000000">/src/main/cpp/include</text>
<text text-anchor="middle" x="79" y="-85.5" font-family="Helvetica,sans-Serif" font-size="10.00" fill="#000000">/GenericBioSignalProcessor.hpp</text>
</a>
</g>
</g>
<!-- Node1&#45;&gt;Node2 -->
<g id="edge1" class="edge">
<title>Node1&#45;&gt;Node2</title>
<path fill="none" stroke="#191970" d="M112.1621,-147.8046C105.8093,-138.4552 98.9103,-128.302 93.0585,-119.6898"/>
<polygon fill="#191970" stroke="#191970" points="109.2818,-149.7933 117.797,-156.0974 115.0717,-145.8591 109.2818,-149.7933"/>
</g>
<!-- Node3 -->
<g id="node3" class="node">
<title>Node3</title>
<g id="a_node3"><a xlink:href="lib_maple_muse_8h.html" target="_top" xlink:title="/tmp/tmp.RKK8zw89sg\l/src/main/cpp/include\l/libMapleMuse.h">
<polygon fill="#ffffff" stroke="#000000" points="72.5,-.5 72.5,-41.5 191.5,-41.5 191.5,-.5 72.5,-.5"/>
<text text-anchor="start" x="80.5" y="-29.5" font-family="Helvetica,sans-Serif" font-size="10.00" fill="#000000">/tmp/tmp.RKK8zw89sg</text>
<text text-anchor="start" x="80.5" y="-18.5" font-family="Helvetica,sans-Serif" font-size="10.00" fill="#000000">/src/main/cpp/include</text>
<text text-anchor="middle" x="132" y="-7.5" font-family="Helvetica,sans-Serif" font-size="10.00" fill="#000000">/libMapleMuse.h</text>
</a>
</g>
</g>
<!-- Node1&#45;&gt;Node3 -->
<g id="edge3" class="edge">
<title>Node1&#45;&gt;Node3</title>
<path fill="none" stroke="#191970" d="M154.0596,-147.9376C159.3498,-139.3831 164.2585,-129.704 167,-120 172.0749,-102.0364 172.0749,-95.9636 167,-78 163.3062,-64.9251 155.678,-51.8955 148.4833,-41.6008"/>
<polygon fill="#191970" stroke="#191970" points="151.0635,-146.1233 148.4833,-156.3992 156.9085,-149.9752 151.0635,-146.1233"/>
</g>
<!-- Node2&#45;&gt;Node3 -->
<g id="edge2" class="edge">
<title>Node2&#45;&gt;Node3</title>
<path fill="none" stroke="#191970" d="M98.8379,-69.8046C105.1907,-60.4552 112.0897,-50.302 117.9415,-41.6898"/>
<polygon fill="#191970" stroke="#191970" points="95.9283,-67.8591 93.203,-78.0974 101.7182,-71.7933 95.9283,-67.8591"/>
</g>
</g>
</svg>
