<?xml version="1.0" encoding="UTF-8" standalone="no"?>
<!DOCTYPE svg PUBLIC "-//W3C//DTD SVG 1.1//EN"
 "http://www.w3.org/Graphics/SVG/1.1/DTD/svg11.dtd">
<!-- Generated by graphviz version 2.40.1 (20161225.0304)
 -->
<!-- Title: medimuse::ISequenceChannel Pages: 1 -->
<svg width="158pt" height="441pt"
 viewBox="0.00 0.00 158.00 441.00" xmlns="http://www.w3.org/2000/svg" xmlns:xlink="http://www.w3.org/1999/xlink">
<g id="graph0" class="graph" transform="scale(1 1) rotate(0) translate(4 437)">
<title>medimuse::ISequenceChannel</title>
<polygon fill="#ffffff" stroke="transparent" points="-4,4 -4,-437 154,-437 154,4 -4,4"/>
<!-- Node3 -->
<g id="node1" class="node">
<title>Node3</title>
<polygon fill="#bfbfbf" stroke="#000000" points="0,-.5 0,-123.5 150,-123.5 150,-.5 0,-.5"/>
<text text-anchor="middle" x="75" y="-111.5" font-family="Helvetica,sans-Serif" font-size="10.00" fill="#000000">medimuse::ISequenceChannel</text>
<polyline fill="none" stroke="#000000" points="0,-104.5 150,-104.5 "/>
<text text-anchor="middle" x="75" y="-92.5" font-family="Helvetica,sans-Serif" font-size="10.00" fill="#000000"> </text>
<polyline fill="none" stroke="#000000" points="0,-85.5 150,-85.5 "/>
<text text-anchor="start" x="8" y="-73.5" font-family="Helvetica,sans-Serif" font-size="10.00" fill="#000000">+ ~ISequenceChannel()</text>
<text text-anchor="start" x="8" y="-62.5" font-family="Helvetica,sans-Serif" font-size="10.00" fill="#000000">+ addNotes()</text>
<text text-anchor="start" x="8" y="-51.5" font-family="Helvetica,sans-Serif" font-size="10.00" fill="#000000">+ addNotes()</text>
<text text-anchor="start" x="8" y="-40.5" font-family="Helvetica,sans-Serif" font-size="10.00" fill="#000000">+ addNote()</text>
<text text-anchor="start" x="8" y="-29.5" font-family="Helvetica,sans-Serif" font-size="10.00" fill="#000000">+ clearNotes()</text>
<text text-anchor="start" x="8" y="-18.5" font-family="Helvetica,sans-Serif" font-size="10.00" fill="#000000">+ clearAllNotes()</text>
<text text-anchor="start" x="8" y="-7.5" font-family="Helvetica,sans-Serif" font-size="10.00" fill="#000000">+ getNoteMap()</text>
</g>
<!-- Node4 -->
<g id="node2" class="node">
<title>Node4</title>
<g id="a_node2"><a xlink:href="classmedimuse_1_1_i_maple_object.html" target="_top" xlink:title="The base object for all factory generated objects. ">
<polygon fill="#ffffff" stroke="#000000" points="6.5,-160.5 6.5,-316.5 143.5,-316.5 143.5,-160.5 6.5,-160.5"/>
<text text-anchor="middle" x="75" y="-304.5" font-family="Helvetica,sans-Serif" font-size="10.00" fill="#000000">medimuse::IMapleObject</text>
<polyline fill="none" stroke="#000000" points="6.5,-297.5 143.5,-297.5 "/>
<text text-anchor="middle" x="75" y="-285.5" font-family="Helvetica,sans-Serif" font-size="10.00" fill="#000000"> </text>
<polyline fill="none" stroke="#000000" points="6.5,-278.5 143.5,-278.5 "/>
<text text-anchor="start" x="14.5" y="-266.5" font-family="Helvetica,sans-Serif" font-size="10.00" fill="#000000">+ ~IMapleObject()</text>
<text text-anchor="start" x="14.5" y="-255.5" font-family="Helvetica,sans-Serif" font-size="10.00" fill="#000000">+ get_name()</text>
<text text-anchor="start" x="14.5" y="-244.5" font-family="Helvetica,sans-Serif" font-size="10.00" fill="#000000">+ get_maple_uuid()</text>
<text text-anchor="start" x="14.5" y="-233.5" font-family="Helvetica,sans-Serif" font-size="10.00" fill="#000000">+ set_name()</text>
<text text-anchor="start" x="14.5" y="-222.5" font-family="Helvetica,sans-Serif" font-size="10.00" fill="#000000">+ get_object_type()</text>
<text text-anchor="start" x="14.5" y="-211.5" font-family="Helvetica,sans-Serif" font-size="10.00" fill="#000000">+ message_subscriptions()</text>
<text text-anchor="start" x="14.5" y="-200.5" font-family="Helvetica,sans-Serif" font-size="10.00" fill="#000000">+ message_emmisions()</text>
<text text-anchor="start" x="14.5" y="-189.5" font-family="Helvetica,sans-Serif" font-size="10.00" fill="#000000">+ emmisions_length()</text>
<text text-anchor="start" x="14.5" y="-178.5" font-family="Helvetica,sans-Serif" font-size="10.00" fill="#000000">+ subscriptions_length()</text>
<text text-anchor="start" x="14.5" y="-167.5" font-family="Helvetica,sans-Serif" font-size="10.00" fill="#000000">+ broadcastStateMessage()</text>
</a>
</g>
</g>
<!-- Node4&#45;&gt;Node3 -->
<g id="edge1" class="edge">
<title>Node4&#45;&gt;Node3</title>
<path fill="none" stroke="#191970" d="M75,-150.2145C75,-141.2522 75,-132.2903 75,-123.6987"/>
<polygon fill="none" stroke="#191970" points="71.5001,-150.3137 75,-160.3138 78.5001,-150.3138 71.5001,-150.3137"/>
</g>
<!-- Node5 -->
<g id="node3" class="node">
<title>Node5</title>
<g id="a_node3"><a xlink:href="classmedimuse_1_1_messaging_queue_listener.html" target="_top" xlink:title="An interface for a message listener. ">
<polygon fill="#ffffff" stroke="#000000" points="1,-353.5 1,-432.5 149,-432.5 149,-353.5 1,-353.5"/>
<text text-anchor="start" x="9" y="-420.5" font-family="Helvetica,sans-Serif" font-size="10.00" fill="#000000">medimuse::MessagingQueue</text>
<text text-anchor="middle" x="75" y="-409.5" font-family="Helvetica,sans-Serif" font-size="10.00" fill="#000000">Listener</text>
<polyline fill="none" stroke="#000000" points="1,-402.5 149,-402.5 "/>
<text text-anchor="middle" x="75" y="-390.5" font-family="Helvetica,sans-Serif" font-size="10.00" fill="#000000"> </text>
<polyline fill="none" stroke="#000000" points="1,-383.5 149,-383.5 "/>
<text text-anchor="start" x="9" y="-371.5" font-family="Helvetica,sans-Serif" font-size="10.00" fill="#000000">+ ~MessagingQueueListener()</text>
<text text-anchor="start" x="9" y="-360.5" font-family="Helvetica,sans-Serif" font-size="10.00" fill="#000000">+ processMessage()</text>
</a>
</g>
</g>
<!-- Node5&#45;&gt;Node4 -->
<g id="edge2" class="edge">
<title>Node5&#45;&gt;Node4</title>
<path fill="none" stroke="#191970" d="M75,-343.1247C75,-334.6207 75,-325.6084 75,-316.581"/>
<polygon fill="none" stroke="#191970" points="71.5001,-343.2124 75,-353.2124 78.5001,-343.2124 71.5001,-343.2124"/>
</g>
</g>
</svg>
