<?xml version="1.0" encoding="UTF-8" standalone="no"?>
<!DOCTYPE svg PUBLIC "-//W3C//DTD SVG 1.1//EN"
 "http://www.w3.org/Graphics/SVG/1.1/DTD/svg11.dtd">
<!-- Generated by graphviz version 2.40.1 (20161225.0304)
 -->
<!-- Title: IInputTrack&lt; T &gt; Pages: 1 -->
<svg width="163pt" height="623pt"
 viewBox="0.00 0.00 163.00 623.00" xmlns="http://www.w3.org/2000/svg" xmlns:xlink="http://www.w3.org/1999/xlink">
<g id="graph0" class="graph" transform="scale(1 1) rotate(0) translate(4 619)">
<title>IInputTrack&lt; T &gt;</title>
<polygon fill="#ffffff" stroke="transparent" points="-4,4 -4,-619 159,-619 159,4 -4,4"/>
<!-- Node0 -->
<g id="node1" class="node">
<title>Node0</title>
<polygon fill="#bfbfbf" stroke="#000000" points="32.5,-.5 32.5,-112.5 122.5,-112.5 122.5,-.5 32.5,-.5"/>
<text text-anchor="middle" x="77.5" y="-100.5" font-family="Helvetica,sans-Serif" font-size="10.00" fill="#000000">IInputTrack&lt; T &gt;</text>
<polyline fill="none" stroke="#000000" points="32.5,-93.5 122.5,-93.5 "/>
<text text-anchor="middle" x="77.5" y="-81.5" font-family="Helvetica,sans-Serif" font-size="10.00" fill="#000000"> </text>
<polyline fill="none" stroke="#000000" points="32.5,-74.5 122.5,-74.5 "/>
<text text-anchor="start" x="40.5" y="-62.5" font-family="Helvetica,sans-Serif" font-size="10.00" fill="#000000">+ ~IInputTrack()</text>
<text text-anchor="start" x="40.5" y="-51.5" font-family="Helvetica,sans-Serif" font-size="10.00" fill="#000000">+ get_data()</text>
<text text-anchor="start" x="40.5" y="-40.5" font-family="Helvetica,sans-Serif" font-size="10.00" fill="#000000">+ push_back()</text>
<text text-anchor="start" x="40.5" y="-29.5" font-family="Helvetica,sans-Serif" font-size="10.00" fill="#000000">+ set_data()</text>
<text text-anchor="start" x="40.5" y="-18.5" font-family="Helvetica,sans-Serif" font-size="10.00" fill="#000000">+ clear()</text>
<text text-anchor="start" x="40.5" y="-7.5" font-family="Helvetica,sans-Serif" font-size="10.00" fill="#000000">+ size()</text>
</g>
<!-- Node1 -->
<g id="node2" class="node">
<title>Node1</title>
<g id="a_node2"><a xlink:href="class_i_input_signal.html" target="_top" xlink:title="Public interface for a real time biometric input signal. ">
<polygon fill="#ffffff" stroke="#000000" points="0,-149.5 0,-316.5 155,-316.5 155,-149.5 0,-149.5"/>
<text text-anchor="middle" x="77.5" y="-304.5" font-family="Helvetica,sans-Serif" font-size="10.00" fill="#000000">IInputSignal&lt; T &gt;</text>
<polyline fill="none" stroke="#000000" points="0,-297.5 155,-297.5 "/>
<text text-anchor="middle" x="77.5" y="-285.5" font-family="Helvetica,sans-Serif" font-size="10.00" fill="#000000"> </text>
<polyline fill="none" stroke="#000000" points="0,-278.5 155,-278.5 "/>
<text text-anchor="start" x="8" y="-266.5" font-family="Helvetica,sans-Serif" font-size="10.00" fill="#000000">+ ~IInputSignal()</text>
<text text-anchor="start" x="8" y="-255.5" font-family="Helvetica,sans-Serif" font-size="10.00" fill="#000000">+ data_tick()</text>
<text text-anchor="start" x="8" y="-244.5" font-family="Helvetica,sans-Serif" font-size="10.00" fill="#000000">+ get_frequency()</text>
<text text-anchor="start" x="8" y="-233.5" font-family="Helvetica,sans-Serif" font-size="10.00" fill="#000000">+ set_frequency()</text>
<text text-anchor="start" x="8" y="-222.5" font-family="Helvetica,sans-Serif" font-size="10.00" fill="#000000">+ get_dimensionality()</text>
<text text-anchor="start" x="8" y="-211.5" font-family="Helvetica,sans-Serif" font-size="10.00" fill="#000000">+ set_dimensionality()</text>
<text text-anchor="start" x="8" y="-200.5" font-family="Helvetica,sans-Serif" font-size="10.00" fill="#000000">+ get_biosignal_type()</text>
<text text-anchor="start" x="8" y="-189.5" font-family="Helvetica,sans-Serif" font-size="10.00" fill="#000000">+ add_biosignal_processor()</text>
<text text-anchor="start" x="8" y="-178.5" font-family="Helvetica,sans-Serif" font-size="10.00" fill="#000000">+ remove_biosignal_processor()</text>
<text text-anchor="start" x="8" y="-167.5" font-family="Helvetica,sans-Serif" font-size="10.00" fill="#000000">+ clearall_biosignal</text>
<text text-anchor="start" x="8" y="-156.5" font-family="Helvetica,sans-Serif" font-size="10.00" fill="#000000">_processor()</text>
</a>
</g>
</g>
<!-- Node1&#45;&gt;Node0 -->
<g id="edge1" class="edge">
<title>Node1&#45;&gt;Node0</title>
<path fill="none" stroke="#191970" d="M77.5,-139.1618C77.5,-130.1035 77.5,-121.124 77.5,-112.6072"/>
<polygon fill="none" stroke="#191970" points="74.0001,-139.4019 77.5,-149.4019 81.0001,-139.4019 74.0001,-139.4019"/>
</g>
<!-- Node2 -->
<g id="node3" class="node">
<title>Node2</title>
<g id="a_node3"><a xlink:href="class_i_maple_object.html" target="_top" xlink:title="The base object for all factory generated objects. ">
<polygon fill="#ffffff" stroke="#000000" points="9,-353.5 9,-509.5 146,-509.5 146,-353.5 9,-353.5"/>
<text text-anchor="middle" x="77.5" y="-497.5" font-family="Helvetica,sans-Serif" font-size="10.00" fill="#000000">IMapleObject</text>
<polyline fill="none" stroke="#000000" points="9,-490.5 146,-490.5 "/>
<text text-anchor="middle" x="77.5" y="-478.5" font-family="Helvetica,sans-Serif" font-size="10.00" fill="#000000"> </text>
<polyline fill="none" stroke="#000000" points="9,-471.5 146,-471.5 "/>
<text text-anchor="start" x="17" y="-459.5" font-family="Helvetica,sans-Serif" font-size="10.00" fill="#000000">+ ~IMapleObject()</text>
<text text-anchor="start" x="17" y="-448.5" font-family="Helvetica,sans-Serif" font-size="10.00" fill="#000000">+ get_name()</text>
<text text-anchor="start" x="17" y="-437.5" font-family="Helvetica,sans-Serif" font-size="10.00" fill="#000000">+ get_maple_uuid()</text>
<text text-anchor="start" x="17" y="-426.5" font-family="Helvetica,sans-Serif" font-size="10.00" fill="#000000">+ set_name()</text>
<text text-anchor="start" x="17" y="-415.5" font-family="Helvetica,sans-Serif" font-size="10.00" fill="#000000">+ get_object_type()</text>
<text text-anchor="start" x="17" y="-404.5" font-family="Helvetica,sans-Serif" font-size="10.00" fill="#000000">+ message_subscriptions()</text>
<text text-anchor="start" x="17" y="-393.5" font-family="Helvetica,sans-Serif" font-size="10.00" fill="#000000">+ message_emmisions()</text>
<text text-anchor="start" x="17" y="-382.5" font-family="Helvetica,sans-Serif" font-size="10.00" fill="#000000">+ emmisions_length()</text>
<text text-anchor="start" x="17" y="-371.5" font-family="Helvetica,sans-Serif" font-size="10.00" fill="#000000">+ subscriptions_length()</text>
<text text-anchor="start" x="17" y="-360.5" font-family="Helvetica,sans-Serif" font-size="10.00" fill="#000000">+ broadcastStateMessage()</text>
</a>
</g>
</g>
<!-- Node2&#45;&gt;Node1 -->
<g id="edge2" class="edge">
<title>Node2&#45;&gt;Node1</title>
<path fill="none" stroke="#191970" d="M77.5,-343.0853C77.5,-334.2971 77.5,-325.3941 77.5,-316.6565"/>
<polygon fill="none" stroke="#191970" points="74.0001,-343.3325 77.5,-353.3325 81.0001,-343.3325 74.0001,-343.3325"/>
</g>
<!-- Node3 -->
<g id="node4" class="node">
<title>Node3</title>
<g id="a_node4"><a xlink:href="class_messaging_queue_listener.html" target="_top" xlink:title="An interface for a message listener. ">
<polygon fill="#ffffff" stroke="#000000" points="3.5,-546.5 3.5,-614.5 151.5,-614.5 151.5,-546.5 3.5,-546.5"/>
<text text-anchor="middle" x="77.5" y="-602.5" font-family="Helvetica,sans-Serif" font-size="10.00" fill="#000000">MessagingQueueListener</text>
<polyline fill="none" stroke="#000000" points="3.5,-595.5 151.5,-595.5 "/>
<text text-anchor="middle" x="77.5" y="-583.5" font-family="Helvetica,sans-Serif" font-size="10.00" fill="#000000"> </text>
<polyline fill="none" stroke="#000000" points="3.5,-576.5 151.5,-576.5 "/>
<text text-anchor="start" x="11.5" y="-564.5" font-family="Helvetica,sans-Serif" font-size="10.00" fill="#000000">+ ~MessagingQueueListener()</text>
<text text-anchor="start" x="11.5" y="-553.5" font-family="Helvetica,sans-Serif" font-size="10.00" fill="#000000">+ processMessage()</text>
</a>
</g>
</g>
<!-- Node3&#45;&gt;Node2 -->
<g id="edge3" class="edge">
<title>Node3&#45;&gt;Node2</title>
<path fill="none" stroke="#191970" d="M77.5,-536.3157C77.5,-527.8287 77.5,-518.7088 77.5,-509.5175"/>
<polygon fill="none" stroke="#191970" points="74.0001,-536.3164 77.5,-546.3164 81.0001,-536.3164 74.0001,-536.3164"/>
</g>
</g>
</svg>
