<?xml version="1.0" encoding="UTF-8" standalone="no"?>
<!DOCTYPE svg PUBLIC "-//W3C//DTD SVG 1.1//EN"
 "http://www.w3.org/Graphics/SVG/1.1/DTD/svg11.dtd">
<!-- Generated by graphviz version 2.40.1 (20161225.0304)
 -->
<!-- Title: ISequenceChannel Pages: 1 -->
<svg width="156pt" height="430pt"
 viewBox="0.00 0.00 156.00 430.00" xmlns="http://www.w3.org/2000/svg" xmlns:xlink="http://www.w3.org/1999/xlink">
<g id="graph0" class="graph" transform="scale(1 1) rotate(0) translate(4 426)">
<title>ISequenceChannel</title>
<polygon fill="#ffffff" stroke="transparent" points="-4,4 -4,-426 152,-426 152,4 -4,4"/>
<!-- Node0 -->
<g id="node1" class="node">
<title>Node0</title>
<polygon fill="#bfbfbf" stroke="#000000" points="14,-.5 14,-123.5 134,-123.5 134,-.5 14,-.5"/>
<text text-anchor="middle" x="74" y="-111.5" font-family="Helvetica,sans-Serif" font-size="10.00" fill="#000000">ISequenceChannel</text>
<polyline fill="none" stroke="#000000" points="14,-104.5 134,-104.5 "/>
<text text-anchor="middle" x="74" y="-92.5" font-family="Helvetica,sans-Serif" font-size="10.00" fill="#000000"> </text>
<polyline fill="none" stroke="#000000" points="14,-85.5 134,-85.5 "/>
<text text-anchor="start" x="22" y="-73.5" font-family="Helvetica,sans-Serif" font-size="10.00" fill="#000000">+ ~ISequenceChannel()</text>
<text text-anchor="start" x="22" y="-62.5" font-family="Helvetica,sans-Serif" font-size="10.00" fill="#000000">+ addNotes()</text>
<text text-anchor="start" x="22" y="-51.5" font-family="Helvetica,sans-Serif" font-size="10.00" fill="#000000">+ addNotes()</text>
<text text-anchor="start" x="22" y="-40.5" font-family="Helvetica,sans-Serif" font-size="10.00" fill="#000000">+ addNote()</text>
<text text-anchor="start" x="22" y="-29.5" font-family="Helvetica,sans-Serif" font-size="10.00" fill="#000000">+ clearNotes()</text>
<text text-anchor="start" x="22" y="-18.5" font-family="Helvetica,sans-Serif" font-size="10.00" fill="#000000">+ clearAllNotes()</text>
<text text-anchor="start" x="22" y="-7.5" font-family="Helvetica,sans-Serif" font-size="10.00" fill="#000000">+ getNoteMap()</text>
</g>
<!-- Node1 -->
<g id="node2" class="node">
<title>Node1</title>
<g id="a_node2"><a xlink:href="class_i_maple_object.html" target="_top" xlink:title="The base object for all factory generated objects. ">
<polygon fill="#ffffff" stroke="#000000" points="5.5,-160.5 5.5,-316.5 142.5,-316.5 142.5,-160.5 5.5,-160.5"/>
<text text-anchor="middle" x="74" y="-304.5" font-family="Helvetica,sans-Serif" font-size="10.00" fill="#000000">IMapleObject</text>
<polyline fill="none" stroke="#000000" points="5.5,-297.5 142.5,-297.5 "/>
<text text-anchor="middle" x="74" y="-285.5" font-family="Helvetica,sans-Serif" font-size="10.00" fill="#000000"> </text>
<polyline fill="none" stroke="#000000" points="5.5,-278.5 142.5,-278.5 "/>
<text text-anchor="start" x="13.5" y="-266.5" font-family="Helvetica,sans-Serif" font-size="10.00" fill="#000000">+ ~IMapleObject()</text>
<text text-anchor="start" x="13.5" y="-255.5" font-family="Helvetica,sans-Serif" font-size="10.00" fill="#000000">+ get_name()</text>
<text text-anchor="start" x="13.5" y="-244.5" font-family="Helvetica,sans-Serif" font-size="10.00" fill="#000000">+ get_maple_uuid()</text>
<text text-anchor="start" x="13.5" y="-233.5" font-family="Helvetica,sans-Serif" font-size="10.00" fill="#000000">+ set_name()</text>
<text text-anchor="start" x="13.5" y="-222.5" font-family="Helvetica,sans-Serif" font-size="10.00" fill="#000000">+ get_object_type()</text>
<text text-anchor="start" x="13.5" y="-211.5" font-family="Helvetica,sans-Serif" font-size="10.00" fill="#000000">+ message_subscriptions()</text>
<text text-anchor="start" x="13.5" y="-200.5" font-family="Helvetica,sans-Serif" font-size="10.00" fill="#000000">+ message_emmisions()</text>
<text text-anchor="start" x="13.5" y="-189.5" font-family="Helvetica,sans-Serif" font-size="10.00" fill="#000000">+ emmisions_length()</text>
<text text-anchor="start" x="13.5" y="-178.5" font-family="Helvetica,sans-Serif" font-size="10.00" fill="#000000">+ subscriptions_length()</text>
<text text-anchor="start" x="13.5" y="-167.5" font-family="Helvetica,sans-Serif" font-size="10.00" fill="#000000">+ broadcastStateMessage()</text>
</a>
</g>
</g>
<!-- Node1&#45;&gt;Node0 -->
<g id="edge1" class="edge">
<title>Node1&#45;&gt;Node0</title>
<path fill="none" stroke="#191970" d="M74,-150.2145C74,-141.2522 74,-132.2903 74,-123.6987"/>
<polygon fill="none" stroke="#191970" points="70.5001,-150.3137 74,-160.3138 77.5001,-150.3138 70.5001,-150.3137"/>
</g>
<!-- Node2 -->
<g id="node3" class="node">
<title>Node2</title>
<g id="a_node3"><a xlink:href="class_messaging_queue_listener.html" target="_top" xlink:title="An interface for a message listener. ">
<polygon fill="#ffffff" stroke="#000000" points="0,-353.5 0,-421.5 148,-421.5 148,-353.5 0,-353.5"/>
<text text-anchor="middle" x="74" y="-409.5" font-family="Helvetica,sans-Serif" font-size="10.00" fill="#000000">MessagingQueueListener</text>
<polyline fill="none" stroke="#000000" points="0,-402.5 148,-402.5 "/>
<text text-anchor="middle" x="74" y="-390.5" font-family="Helvetica,sans-Serif" font-size="10.00" fill="#000000"> </text>
<polyline fill="none" stroke="#000000" points="0,-383.5 148,-383.5 "/>
<text text-anchor="start" x="8" y="-371.5" font-family="Helvetica,sans-Serif" font-size="10.00" fill="#000000">+ ~MessagingQueueListener()</text>
<text text-anchor="start" x="8" y="-360.5" font-family="Helvetica,sans-Serif" font-size="10.00" fill="#000000">+ processMessage()</text>
</a>
</g>
</g>
<!-- Node2&#45;&gt;Node1 -->
<g id="edge2" class="edge">
<title>Node2&#45;&gt;Node1</title>
<path fill="none" stroke="#191970" d="M74,-343.3157C74,-334.8287 74,-325.7088 74,-316.5175"/>
<polygon fill="none" stroke="#191970" points="70.5001,-343.3164 74,-353.3164 77.5001,-343.3164 70.5001,-343.3164"/>
</g>
</g>
</svg>
