<?xml version="1.0" encoding="UTF-8" standalone="no"?>
<!DOCTYPE svg PUBLIC "-//W3C//DTD SVG 1.1//EN"
 "http://www.w3.org/Graphics/SVG/1.1/DTD/svg11.dtd">
<!-- Generated by graphviz version 2.40.1 (20161225.0304)
 -->
<!-- Title: GenericFloatBioSignalProcessor Pages: 1 -->
<svg width="487pt" height="736pt"
 viewBox="0.00 0.00 486.50 736.00" xmlns="http://www.w3.org/2000/svg" xmlns:xlink="http://www.w3.org/1999/xlink">
<g id="graph0" class="graph" transform="scale(1 1) rotate(0) translate(4 732)">
<title>GenericFloatBioSignalProcessor</title>
<polygon fill="#ffffff" stroke="transparent" points="-4,4 -4,-732 482.5,-732 482.5,4 -4,4"/>
<!-- Node3 -->
<g id="node1" class="node">
<title>Node3</title>
<polygon fill="#bfbfbf" stroke="#000000" points="180.5,-.5 180.5,-233.5 384.5,-233.5 384.5,-.5 180.5,-.5"/>
<text text-anchor="middle" x="282.5" y="-221.5" font-family="Helvetica,sans-Serif" font-size="10.00" fill="#000000">GenericFloatBioSignalProcessor</text>
<polyline fill="none" stroke="#000000" points="180.5,-214.5 384.5,-214.5 "/>
<text text-anchor="start" x="188.5" y="-202.5" font-family="Helvetica,sans-Serif" font-size="10.00" fill="#000000">+ DEFAULT_CACHE_BUFFER_SIZE</text>
<text text-anchor="start" x="188.5" y="-191.5" font-family="Helvetica,sans-Serif" font-size="10.00" fill="#000000">+ MAX_BIOPROCESSOR_DIMENSIONS</text>
<text text-anchor="start" x="188.5" y="-180.5" font-family="Helvetica,sans-Serif" font-size="10.00" fill="#000000">+ DEFAULT_FREQUENCY</text>
<text text-anchor="start" x="188.5" y="-169.5" font-family="Helvetica,sans-Serif" font-size="10.00" fill="#000000"># numberOfSamples</text>
<text text-anchor="start" x="188.5" y="-158.5" font-family="Helvetica,sans-Serif" font-size="10.00" fill="#000000"># numberOfDimensions</text>
<text text-anchor="start" x="188.5" y="-147.5" font-family="Helvetica,sans-Serif" font-size="10.00" fill="#000000"># bufferPosition</text>
<text text-anchor="start" x="188.5" y="-136.5" font-family="Helvetica,sans-Serif" font-size="10.00" fill="#000000"># bufferSize</text>
<text text-anchor="start" x="188.5" y="-125.5" font-family="Helvetica,sans-Serif" font-size="10.00" fill="#000000"># frequency</text>
<polyline fill="none" stroke="#000000" points="180.5,-118.5 384.5,-118.5 "/>
<text text-anchor="start" x="188.5" y="-106.5" font-family="Helvetica,sans-Serif" font-size="10.00" fill="#000000">+ GenericFloatBioSignalProcessor()</text>
<text text-anchor="start" x="188.5" y="-95.5" font-family="Helvetica,sans-Serif" font-size="10.00" fill="#000000">+ process_data_point()</text>
<text text-anchor="start" x="188.5" y="-84.5" font-family="Helvetica,sans-Serif" font-size="10.00" fill="#000000">+ process_state_message()</text>
<text text-anchor="start" x="188.5" y="-73.5" font-family="Helvetica,sans-Serif" font-size="10.00" fill="#000000">+ getDimensions()</text>
<text text-anchor="start" x="188.5" y="-62.5" font-family="Helvetica,sans-Serif" font-size="10.00" fill="#000000">+ getCacheBufferSize()</text>
<text text-anchor="start" x="188.5" y="-51.5" font-family="Helvetica,sans-Serif" font-size="10.00" fill="#000000">+ getFrequency()</text>
<text text-anchor="start" x="188.5" y="-40.5" font-family="Helvetica,sans-Serif" font-size="10.00" fill="#000000"># initChannels()</text>
<text text-anchor="start" x="188.5" y="-29.5" font-family="Helvetica,sans-Serif" font-size="10.00" fill="#000000"># resetProcessor()</text>
<text text-anchor="start" x="188.5" y="-18.5" font-family="Helvetica,sans-Serif" font-size="10.00" fill="#000000"># resizeCache()</text>
<text text-anchor="start" x="188.5" y="-7.5" font-family="Helvetica,sans-Serif" font-size="10.00" fill="#000000"># cacheReset()</text>
</g>
<!-- Node4 -->
<g id="node2" class="node">
<title>Node4</title>
<g id="a_node2"><a xlink:href="class_i_bio_signal_processor_callback.html" target="_top" xlink:title="{IBioSignalProcessorCallback\l\&lt; float \&gt;\n||+ ~IBioSignalProcessorCallback()\l+ process_data_point()\l+ process_state_message()\l}">
<polygon fill="#ffffff" stroke="#000000" points="32.5,-291 32.5,-381 196.5,-381 196.5,-291 32.5,-291"/>
<text text-anchor="start" x="40.5" y="-369" font-family="Helvetica,sans-Serif" font-size="10.00" fill="#000000">IBioSignalProcessorCallback</text>
<text text-anchor="middle" x="114.5" y="-358" font-family="Helvetica,sans-Serif" font-size="10.00" fill="#000000">&lt; float &gt;</text>
<polyline fill="none" stroke="#000000" points="32.5,-351 196.5,-351 "/>
<text text-anchor="middle" x="114.5" y="-339" font-family="Helvetica,sans-Serif" font-size="10.00" fill="#000000"> </text>
<polyline fill="none" stroke="#000000" points="32.5,-332 196.5,-332 "/>
<text text-anchor="start" x="40.5" y="-320" font-family="Helvetica,sans-Serif" font-size="10.00" fill="#000000">+ ~IBioSignalProcessorCallback()</text>
<text text-anchor="start" x="40.5" y="-309" font-family="Helvetica,sans-Serif" font-size="10.00" fill="#000000">+ process_data_point()</text>
<text text-anchor="start" x="40.5" y="-298" font-family="Helvetica,sans-Serif" font-size="10.00" fill="#000000">+ process_state_message()</text>
</a>
</g>
</g>
<!-- Node4&#45;&gt;Node3 -->
<g id="edge1" class="edge">
<title>Node4&#45;&gt;Node3</title>
<path fill="none" stroke="#191970" d="M155.3545,-282.7432C166.8929,-267.7021 179.9221,-250.7176 193.1291,-233.5014"/>
<polygon fill="none" stroke="#191970" points="152.4156,-280.8239 149.106,-290.8886 157.9697,-285.0846 152.4156,-280.8239"/>
</g>
<!-- Node5 -->
<g id="node3" class="node">
<title>Node5</title>
<g id="a_node3"><a xlink:href="class_i_bio_signal_processor_callback.html" target="_top" xlink:title="Public interface for a biometric signal processor instance. ">
<polygon fill="#ffffff" stroke="#000000" points="0,-438.5 0,-517.5 167,-517.5 167,-438.5 0,-438.5"/>
<text text-anchor="middle" x="83.5" y="-505.5" font-family="Helvetica,sans-Serif" font-size="10.00" fill="#000000">IBioSignalProcessorCallback&lt; T &gt;</text>
<polyline fill="none" stroke="#000000" points="0,-498.5 167,-498.5 "/>
<text text-anchor="middle" x="83.5" y="-486.5" font-family="Helvetica,sans-Serif" font-size="10.00" fill="#000000"> </text>
<polyline fill="none" stroke="#000000" points="0,-479.5 167,-479.5 "/>
<text text-anchor="start" x="8" y="-467.5" font-family="Helvetica,sans-Serif" font-size="10.00" fill="#000000">+ ~IBioSignalProcessorCallback()</text>
<text text-anchor="start" x="8" y="-456.5" font-family="Helvetica,sans-Serif" font-size="10.00" fill="#000000">+ process_data_point()</text>
<text text-anchor="start" x="8" y="-445.5" font-family="Helvetica,sans-Serif" font-size="10.00" fill="#000000">+ process_state_message()</text>
</a>
</g>
</g>
<!-- Node5&#45;&gt;Node4 -->
<g id="edge2" class="edge">
<title>Node5&#45;&gt;Node4</title>
<path fill="none" stroke="#ffa500" d="M94.2932,-428.56C97.6604,-413.136 101.3551,-396.2122 104.6538,-381.1019"/>
<polygon fill="#ffa500" stroke="#ffa500" points="90.8487,-427.9287 92.1352,-438.4451 97.6876,-429.4217 90.8487,-427.9287"/>
<text text-anchor="middle" x="118.5" y="-412" font-family="Helvetica,sans-Serif" font-size="10.00" fill="#000000"> &lt; float &gt;</text>
</g>
<!-- Node6 -->
<g id="node4" class="node">
<title>Node6</title>
<polygon fill="#ffffff" stroke="#bfbfbf" points="231,-302 231,-370 334,-370 334,-302 231,-302"/>
<text text-anchor="start" x="239" y="-358" font-family="Helvetica,sans-Serif" font-size="10.00" fill="#000000">std::valarray&lt; std</text>
<text text-anchor="middle" x="282.5" y="-347" font-family="Helvetica,sans-Serif" font-size="10.00" fill="#000000">::valarray&lt; float &gt; &gt;</text>
<polyline fill="none" stroke="#bfbfbf" points="231,-340 334,-340 "/>
<text text-anchor="middle" x="282.5" y="-328" font-family="Helvetica,sans-Serif" font-size="10.00" fill="#000000"> </text>
<polyline fill="none" stroke="#bfbfbf" points="231,-321 334,-321 "/>
<text text-anchor="middle" x="282.5" y="-309" font-family="Helvetica,sans-Serif" font-size="10.00" fill="#000000"> </text>
</g>
<!-- Node6&#45;&gt;Node3 -->
<g id="edge3" class="edge">
<title>Node6&#45;&gt;Node3</title>
<path fill="none" stroke="#404040" d="M282.5,-301.7813C282.5,-286.0933 282.5,-266.4097 282.5,-245.7835"/>
<polygon fill="none" stroke="#404040" points="282.5001,-245.5533 278.5,-239.5533 282.5,-233.5533 286.5,-239.5532 282.5001,-245.5533"/>
<text text-anchor="middle" x="313" y="-255" font-family="Helvetica,sans-Serif" font-size="10.00" fill="#000000"> #cacheBuffer</text>
</g>
<!-- Node7 -->
<g id="node5" class="node">
<title>Node7</title>
<polygon fill="#ffffff" stroke="#bfbfbf" points="333,-449.5 333,-506.5 440,-506.5 440,-449.5 333,-449.5"/>
<text text-anchor="middle" x="386.5" y="-494.5" font-family="Helvetica,sans-Serif" font-size="10.00" fill="#000000">std::valarray&lt; float &gt;</text>
<polyline fill="none" stroke="#bfbfbf" points="333,-487.5 440,-487.5 "/>
<text text-anchor="start" x="341" y="-475.5" font-family="Helvetica,sans-Serif" font-size="10.00" fill="#000000">+ elements</text>
<polyline fill="none" stroke="#bfbfbf" points="333,-468.5 440,-468.5 "/>
<text text-anchor="middle" x="386.5" y="-456.5" font-family="Helvetica,sans-Serif" font-size="10.00" fill="#000000"> </text>
</g>
<!-- Node7&#45;&gt;Node3 -->
<g id="edge8" class="edge">
<title>Node7&#45;&gt;Node3</title>
<path fill="none" stroke="#404040" d="M384.1113,-449.2068C379.9269,-405.6596 369.5319,-320.8258 347.5,-252 346.7714,-249.7239 346.0113,-247.4372 345.2231,-245.1437"/>
<polygon fill="none" stroke="#404040" points="345.1427,-244.9213 339.3404,-240.6394 341.0613,-233.6367 346.8635,-237.9185 345.1427,-244.9213"/>
<text text-anchor="middle" x="427.5" y="-383" font-family="Helvetica,sans-Serif" font-size="10.00" fill="#000000"> #minValue</text>
<text text-anchor="middle" x="427.5" y="-372" font-family="Helvetica,sans-Serif" font-size="10.00" fill="#000000">#lastValue</text>
<text text-anchor="start" x="376.5" y="-361" font-family="Helvetica,sans-Serif" font-size="10.00" fill="#000000">#lastSquareSummation</text>
<text text-anchor="middle" x="427.5" y="-350" font-family="Helvetica,sans-Serif" font-size="10.00" fill="#000000">Value</text>
<text text-anchor="middle" x="427.5" y="-339" font-family="Helvetica,sans-Serif" font-size="10.00" fill="#000000">#firstDerivativePeak</text>
<text text-anchor="middle" x="427.5" y="-328" font-family="Helvetica,sans-Serif" font-size="10.00" fill="#000000">#maxValue</text>
<text text-anchor="middle" x="427.5" y="-317" font-family="Helvetica,sans-Serif" font-size="10.00" fill="#000000">#lastAverageValue</text>
<text text-anchor="middle" x="427.5" y="-306" font-family="Helvetica,sans-Serif" font-size="10.00" fill="#000000">#averageValue</text>
<text text-anchor="middle" x="427.5" y="-295" font-family="Helvetica,sans-Serif" font-size="10.00" fill="#000000">#firstDerivative</text>
<text text-anchor="middle" x="427.5" y="-284" font-family="Helvetica,sans-Serif" font-size="10.00" fill="#000000">#rmsValue</text>
</g>
<!-- Node7&#45;&gt;Node6 -->
<g id="edge4" class="edge">
<title>Node7&#45;&gt;Node6</title>
<path fill="none" stroke="#404040" d="M344.0846,-449.2651C333.7299,-440.7605 323.3777,-430.8025 315.5,-420 307.2302,-408.6597 300.7073,-394.9707 295.7213,-381.9652"/>
<polygon fill="none" stroke="#404040" points="295.5933,-381.6054 289.8126,-377.2946 291.5685,-370.3005 297.3492,-374.6113 295.5933,-381.6054"/>
<text text-anchor="middle" x="340" y="-412" font-family="Helvetica,sans-Serif" font-size="10.00" fill="#000000"> +elements</text>
</g>
<!-- Node8 -->
<g id="node6" class="node">
<title>Node8</title>
<g id="a_node6"><a xlink:title="STL class. ">
<polygon fill="#ffffff" stroke="#bfbfbf" points="171,-565.5 171,-622.5 266,-622.5 266,-565.5 171,-565.5"/>
<text text-anchor="middle" x="218.5" y="-610.5" font-family="Helvetica,sans-Serif" font-size="10.00" fill="#000000">std::valarray&lt; T &gt;</text>
<polyline fill="none" stroke="#bfbfbf" points="171,-603.5 266,-603.5 "/>
<text text-anchor="middle" x="218.5" y="-591.5" font-family="Helvetica,sans-Serif" font-size="10.00" fill="#000000"> </text>
<polyline fill="none" stroke="#bfbfbf" points="171,-584.5 266,-584.5 "/>
<text text-anchor="middle" x="218.5" y="-572.5" font-family="Helvetica,sans-Serif" font-size="10.00" fill="#000000"> </text>
</a>
</g>
</g>
<!-- Node8&#45;&gt;Node6 -->
<g id="edge7" class="edge">
<title>Node8&#45;&gt;Node6</title>
<path fill="none" stroke="#ffa500" d="M209.9992,-555.4567C204.551,-523.3011 200.5105,-476.6591 212.5,-438 220.2615,-412.9736 236.5232,-388.6351 251.4205,-370.0126"/>
<polygon fill="#ffa500" stroke="#ffa500" points="206.5672,-556.1464 211.7991,-565.3593 213.4543,-554.8946 206.5672,-556.1464"/>
<text text-anchor="middle" x="268.5" y="-475.5" font-family="Helvetica,sans-Serif" font-size="10.00" fill="#000000"> &lt; std::valarray&lt; float &gt; &gt;</text>
</g>
<!-- Node8&#45;&gt;Node7 -->
<g id="edge5" class="edge">
<title>Node8&#45;&gt;Node7</title>
<path fill="none" stroke="#ffa500" d="M268.4644,-559.5008C292.9095,-542.622 321.983,-522.5474 345.1588,-506.5451"/>
<polygon fill="#ffa500" stroke="#ffa500" points="266.2684,-556.7637 260.0281,-565.3258 270.2458,-562.524 266.2684,-556.7637"/>
<text text-anchor="middle" x="322.5" y="-539" font-family="Helvetica,sans-Serif" font-size="10.00" fill="#000000"> &lt; float &gt;</text>
</g>
<!-- Node9 -->
<g id="node7" class="node">
<title>Node9</title>
<polygon fill="#ffffff" stroke="#bfbfbf" points="204,-670.5 204,-727.5 233,-727.5 233,-670.5 204,-670.5"/>
<text text-anchor="middle" x="218.5" y="-715.5" font-family="Helvetica,sans-Serif" font-size="10.00" fill="#000000">T</text>
<polyline fill="none" stroke="#bfbfbf" points="204,-708.5 233,-708.5 "/>
<text text-anchor="middle" x="218.5" y="-696.5" font-family="Helvetica,sans-Serif" font-size="10.00" fill="#000000"> </text>
<polyline fill="none" stroke="#bfbfbf" points="204,-689.5 233,-689.5 "/>
<text text-anchor="middle" x="218.5" y="-677.5" font-family="Helvetica,sans-Serif" font-size="10.00" fill="#000000"> </text>
</g>
<!-- Node9&#45;&gt;Node8 -->
<g id="edge6" class="edge">
<title>Node9&#45;&gt;Node8</title>
<path fill="none" stroke="#404040" d="M218.5,-670.3083C218.5,-659.4281 218.5,-646.817 218.5,-635.0192"/>
<polygon fill="none" stroke="#404040" points="218.5001,-634.657 214.5,-628.6571 218.5,-622.657 222.5,-628.657 218.5001,-634.657"/>
<text text-anchor="middle" x="243" y="-644" font-family="Helvetica,sans-Serif" font-size="10.00" fill="#000000"> +elements</text>
</g>
</g>
</svg>
