<?xml version="1.0" encoding="UTF-8" standalone="no"?>
<!DOCTYPE svg PUBLIC "-//W3C//DTD SVG 1.1//EN"
 "http://www.w3.org/Graphics/SVG/1.1/DTD/svg11.dtd">
<!-- Generated by graphviz version 2.40.1 (20161225.0304)
 -->
<!-- Title: medimuse::GenericFloatBioSignalProcessor Pages: 1 -->
<!--zoomable 758 -->
<svg id="main" version="1.1" xmlns="http://www.w3.org/2000/svg" xmlns:xlink="http://www.w3.org/1999/xlink" xml:space="preserve" onload="init(evt)">
<style type="text/css"><![CDATA[
.edge:hover path { stroke: red; }
.edge:hover polygon { stroke: red; fill: red; }
]]></style>
<script type="text/javascript"><![CDATA[
var edges = document.getElementsByTagName('g');
if (edges && edges.length) {
  for (var i=0;i<edges.length;i++) {
    if (edges[i].id.substr(0,4)=='edge') {
      edges[i].setAttribute('class','edge');
    }
  }
}
]]></script>
        <defs>
                <circle id="rim" cx="0" cy="0" r="7"/>
                <circle id="rim2" cx="0" cy="0" r="3.5"/>
                <g id="zoomPlus">
                        <use xlink:href="#rim" fill="#404040">
                                <set attributeName="fill" to="#808080" begin="zoomplus.mouseover" end="zoomplus.mouseout"/>
                        </use>
                        <path d="M-4,0h8M0,-4v8" fill="none" stroke="white" stroke-width="1.5" pointer-events="none"/>
                </g>
                <g id="zoomMin">
                        <use xlink:href="#rim" fill="#404040">
                                <set attributeName="fill" to="#808080" begin="zoomminus.mouseover" end="zoomminus.mouseout"/>
                        </use>
                        <path d="M-4,0h8" fill="none" stroke="white" stroke-width="1.5" pointer-events="none"/>
                </g>
                <g id="dirArrow">
                        <path fill="none" stroke="white" stroke-width="1.5" d="M0,-3.0v7 M-2.5,-0.5L0,-3.0L2.5,-0.5"/>
                </g>
               <g id="resetDef">
                       <use xlink:href="#rim2" fill="#404040">
                               <set attributeName="fill" to="#808080" begin="reset.mouseover" end="reset.mouseout"/>
                       </use>
               </g>
        </defs>

<script type="text/javascript">
var viewWidth = 483;
var viewHeight = 758;
var sectionId = 'dynsection-1';
</script>
<script xlink:href="svgpan.js"/>
<svg id="graph" class="graph">
<g id="viewport">
<title>medimuse::GenericFloatBioSignalProcessor</title>
<polygon fill="#ffffff" stroke="transparent" points="-4,4 -4,-754 479,-754 479,4 -4,4"/>
<!-- Node3 -->
<g id="node1" class="node">
<title>Node3</title>
<polygon fill="#bfbfbf" stroke="#000000" points="178,-.5 178,-244.5 382,-244.5 382,-.5 178,-.5"/>
<text text-anchor="start" x="186" y="-232.5" font-family="Helvetica,sans-Serif" font-size="10.00" fill="#000000">medimuse::GenericFloatBio</text>
<text text-anchor="middle" x="280" y="-221.5" font-family="Helvetica,sans-Serif" font-size="10.00" fill="#000000">SignalProcessor</text>
<polyline fill="none" stroke="#000000" points="178,-214.5 382,-214.5 "/>
<text text-anchor="start" x="186" y="-202.5" font-family="Helvetica,sans-Serif" font-size="10.00" fill="#000000">+ DEFAULT_CACHE_BUFFER_SIZE</text>
<text text-anchor="start" x="186" y="-191.5" font-family="Helvetica,sans-Serif" font-size="10.00" fill="#000000">+ MAX_BIOPROCESSOR_DIMENSIONS</text>
<text text-anchor="start" x="186" y="-180.5" font-family="Helvetica,sans-Serif" font-size="10.00" fill="#000000">+ DEFAULT_FREQUENCY</text>
<text text-anchor="start" x="186" y="-169.5" font-family="Helvetica,sans-Serif" font-size="10.00" fill="#000000"># numberOfSamples</text>
<text text-anchor="start" x="186" y="-158.5" font-family="Helvetica,sans-Serif" font-size="10.00" fill="#000000"># numberOfDimensions</text>
<text text-anchor="start" x="186" y="-147.5" font-family="Helvetica,sans-Serif" font-size="10.00" fill="#000000"># bufferPosition</text>
<text text-anchor="start" x="186" y="-136.5" font-family="Helvetica,sans-Serif" font-size="10.00" fill="#000000"># bufferSize</text>
<text text-anchor="start" x="186" y="-125.5" font-family="Helvetica,sans-Serif" font-size="10.00" fill="#000000"># frequency</text>
<polyline fill="none" stroke="#000000" points="178,-118.5 382,-118.5 "/>
<text text-anchor="start" x="186" y="-106.5" font-family="Helvetica,sans-Serif" font-size="10.00" fill="#000000">+ GenericFloatBioSignalProcessor()</text>
<text text-anchor="start" x="186" y="-95.5" font-family="Helvetica,sans-Serif" font-size="10.00" fill="#000000">+ process_data_point()</text>
<text text-anchor="start" x="186" y="-84.5" font-family="Helvetica,sans-Serif" font-size="10.00" fill="#000000">+ process_state_message()</text>
<text text-anchor="start" x="186" y="-73.5" font-family="Helvetica,sans-Serif" font-size="10.00" fill="#000000">+ getDimensions()</text>
<text text-anchor="start" x="186" y="-62.5" font-family="Helvetica,sans-Serif" font-size="10.00" fill="#000000">+ getCacheBufferSize()</text>
<text text-anchor="start" x="186" y="-51.5" font-family="Helvetica,sans-Serif" font-size="10.00" fill="#000000">+ getFrequency()</text>
<text text-anchor="start" x="186" y="-40.5" font-family="Helvetica,sans-Serif" font-size="10.00" fill="#000000"># initChannels()</text>
<text text-anchor="start" x="186" y="-29.5" font-family="Helvetica,sans-Serif" font-size="10.00" fill="#000000"># resetProcessor()</text>
<text text-anchor="start" x="186" y="-18.5" font-family="Helvetica,sans-Serif" font-size="10.00" fill="#000000"># resizeCache()</text>
<text text-anchor="start" x="186" y="-7.5" font-family="Helvetica,sans-Serif" font-size="10.00" fill="#000000"># cacheReset()</text>
</g>
<!-- Node4 -->
<g id="node2" class="node">
<title>Node4</title>
<g id="a_node2"><a xlink:href="classmedimuse_1_1_i_bio_signal_processor_callback.html" target="_top" xlink:title="{medimuse::IBioSignalProcessor\lCallback\&lt; float \&gt;\n||+ ~IBioSignalProcessorCallback()\l+ process_data_point()\l+ process_state_message()\l}">
<polygon fill="#ffffff" stroke="#000000" points="31,-302 31,-392 195,-392 195,-302 31,-302"/>
<text text-anchor="start" x="39" y="-380" font-family="Helvetica,sans-Serif" font-size="10.00" fill="#000000">medimuse::IBioSignalProcessor</text>
<text text-anchor="middle" x="113" y="-369" font-family="Helvetica,sans-Serif" font-size="10.00" fill="#000000">Callback&lt; float &gt;</text>
<polyline fill="none" stroke="#000000" points="31,-362 195,-362 "/>
<text text-anchor="middle" x="113" y="-350" font-family="Helvetica,sans-Serif" font-size="10.00" fill="#000000"> </text>
<polyline fill="none" stroke="#000000" points="31,-343 195,-343 "/>
<text text-anchor="start" x="39" y="-331" font-family="Helvetica,sans-Serif" font-size="10.00" fill="#000000">+ ~IBioSignalProcessorCallback()</text>
<text text-anchor="start" x="39" y="-320" font-family="Helvetica,sans-Serif" font-size="10.00" fill="#000000">+ process_data_point()</text>
<text text-anchor="start" x="39" y="-309" font-family="Helvetica,sans-Serif" font-size="10.00" fill="#000000">+ process_state_message()</text>
</a>
</g>
</g>
<!-- Node4&#45;&gt;Node3 -->
<g id="edge1" class="edge">
<title>Node4&#45;&gt;Node3</title>
<path fill="none" stroke="#191970" d="M152.6071,-293.7557C163.7126,-278.8265 176.2653,-261.9517 189.0529,-244.7612"/>
<polygon fill="none" stroke="#191970" points="149.7544,-291.7266 146.5941,-301.8391 155.3708,-295.9046 149.7544,-291.7266"/>
</g>
<!-- Node5 -->
<g id="node3" class="node">
<title>Node5</title>
<g id="a_node3"><a xlink:href="classmedimuse_1_1_i_bio_signal_processor_callback.html" target="_top" xlink:title="MapleMuse Global Type Definitions. ">
<polygon fill="#ffffff" stroke="#000000" points="0,-449.5 0,-539.5 164,-539.5 164,-449.5 0,-449.5"/>
<text text-anchor="start" x="8" y="-527.5" font-family="Helvetica,sans-Serif" font-size="10.00" fill="#000000">medimuse::IBioSignalProcessor</text>
<text text-anchor="middle" x="82" y="-516.5" font-family="Helvetica,sans-Serif" font-size="10.00" fill="#000000">Callback&lt; T &gt;</text>
<polyline fill="none" stroke="#000000" points="0,-509.5 164,-509.5 "/>
<text text-anchor="middle" x="82" y="-497.5" font-family="Helvetica,sans-Serif" font-size="10.00" fill="#000000"> </text>
<polyline fill="none" stroke="#000000" points="0,-490.5 164,-490.5 "/>
<text text-anchor="start" x="8" y="-478.5" font-family="Helvetica,sans-Serif" font-size="10.00" fill="#000000">+ ~IBioSignalProcessorCallback()</text>
<text text-anchor="start" x="8" y="-467.5" font-family="Helvetica,sans-Serif" font-size="10.00" fill="#000000">+ process_data_point()</text>
<text text-anchor="start" x="8" y="-456.5" font-family="Helvetica,sans-Serif" font-size="10.00" fill="#000000">+ process_state_message()</text>
</a>
</g>
</g>
<!-- Node5&#45;&gt;Node4 -->
<g id="edge2" class="edge">
<title>Node5&#45;&gt;Node4</title>
<path fill="none" stroke="#ffa500" d="M93.5827,-439.3888C96.8636,-423.7778 100.3952,-406.9745 103.5351,-392.0344"/>
<polygon fill="#ffa500" stroke="#ffa500" points="90.1011,-438.9376 91.4695,-449.4437 96.9515,-440.3774 90.1011,-438.9376"/>
<text text-anchor="middle" x="118" y="-423" font-family="Helvetica,sans-Serif" font-size="10.00" fill="#000000"> &lt; float &gt;</text>
</g>
<!-- Node6 -->
<g id="node4" class="node">
<title>Node6</title>
<polygon fill="#ffffff" stroke="#bfbfbf" points="228.5,-313 228.5,-381 331.5,-381 331.5,-313 228.5,-313"/>
<text text-anchor="start" x="236.5" y="-369" font-family="Helvetica,sans-Serif" font-size="10.00" fill="#000000">std::valarray&lt; std</text>
<text text-anchor="middle" x="280" y="-358" font-family="Helvetica,sans-Serif" font-size="10.00" fill="#000000">::valarray&lt; float &gt; &gt;</text>
<polyline fill="none" stroke="#bfbfbf" points="228.5,-351 331.5,-351 "/>
<text text-anchor="middle" x="280" y="-339" font-family="Helvetica,sans-Serif" font-size="10.00" fill="#000000"> </text>
<polyline fill="none" stroke="#bfbfbf" points="228.5,-332 331.5,-332 "/>
<text text-anchor="middle" x="280" y="-320" font-family="Helvetica,sans-Serif" font-size="10.00" fill="#000000"> </text>
</g>
<!-- Node6&#45;&gt;Node3 -->
<g id="edge3" class="edge">
<title>Node6&#45;&gt;Node3</title>
<path fill="none" stroke="#404040" d="M280,-312.9033C280,-297.3175 280,-277.741 280,-257.1144"/>
<polygon fill="none" stroke="#404040" points="280.0001,-256.8707 276,-250.8707 280,-244.8707 284,-250.8707 280.0001,-256.8707"/>
<text text-anchor="middle" x="310.5" y="-266" font-family="Helvetica,sans-Serif" font-size="10.00" fill="#000000"> #cacheBuffer</text>
</g>
<!-- Node7 -->
<g id="node5" class="node">
<title>Node7</title>
<polygon fill="#ffffff" stroke="#bfbfbf" points="330.5,-466 330.5,-523 437.5,-523 437.5,-466 330.5,-466"/>
<text text-anchor="middle" x="384" y="-511" font-family="Helvetica,sans-Serif" font-size="10.00" fill="#000000">std::valarray&lt; float &gt;</text>
<polyline fill="none" stroke="#bfbfbf" points="330.5,-504 437.5,-504 "/>
<text text-anchor="start" x="338.5" y="-492" font-family="Helvetica,sans-Serif" font-size="10.00" fill="#000000">+ elements</text>
<polyline fill="none" stroke="#bfbfbf" points="330.5,-485 437.5,-485 "/>
<text text-anchor="middle" x="384" y="-473" font-family="Helvetica,sans-Serif" font-size="10.00" fill="#000000"> </text>
</g>
<!-- Node7&#45;&gt;Node3 -->
<g id="edge8" class="edge">
<title>Node7&#45;&gt;Node3</title>
<path fill="none" stroke="#404040" d="M381.6392,-465.7811C377.4467,-421.4539 366.9889,-334.0576 345,-263 344.2998,-260.7374 343.5708,-258.4641 342.8159,-256.1834"/>
<polygon fill="none" stroke="#404040" points="342.7766,-256.0703 337.0286,-251.7159 338.8372,-244.7353 344.5852,-249.0897 342.7766,-256.0703"/>
<text text-anchor="middle" x="424" y="-394" font-family="Helvetica,sans-Serif" font-size="10.00" fill="#000000"> #minValue</text>
<text text-anchor="middle" x="424" y="-383" font-family="Helvetica,sans-Serif" font-size="10.00" fill="#000000">#lastValue</text>
<text text-anchor="start" x="373" y="-372" font-family="Helvetica,sans-Serif" font-size="10.00" fill="#000000">#lastSquareSummation</text>
<text text-anchor="middle" x="424" y="-361" font-family="Helvetica,sans-Serif" font-size="10.00" fill="#000000">Value</text>
<text text-anchor="middle" x="424" y="-350" font-family="Helvetica,sans-Serif" font-size="10.00" fill="#000000">#firstDerivativePeak</text>
<text text-anchor="middle" x="424" y="-339" font-family="Helvetica,sans-Serif" font-size="10.00" fill="#000000">#maxValue</text>
<text text-anchor="middle" x="424" y="-328" font-family="Helvetica,sans-Serif" font-size="10.00" fill="#000000">#lastAverageValue</text>
<text text-anchor="middle" x="424" y="-317" font-family="Helvetica,sans-Serif" font-size="10.00" fill="#000000">#averageValue</text>
<text text-anchor="middle" x="424" y="-306" font-family="Helvetica,sans-Serif" font-size="10.00" fill="#000000">#firstDerivative</text>
<text text-anchor="middle" x="424" y="-295" font-family="Helvetica,sans-Serif" font-size="10.00" fill="#000000">#rmsValue</text>
</g>
<!-- Node7&#45;&gt;Node6 -->
<g id="edge4" class="edge">
<title>Node7&#45;&gt;Node6</title>
<path fill="none" stroke="#404040" d="M345.3514,-465.7283C333.8064,-455.7129 321.876,-443.7616 313,-431 304.9858,-419.4776 298.5397,-405.7339 293.5455,-392.7343"/>
<polygon fill="none" stroke="#404040" points="293.4197,-392.3839 287.6272,-388.089 289.3638,-381.0901 295.1564,-385.3851 293.4197,-392.3839"/>
<text text-anchor="middle" x="337.5" y="-423" font-family="Helvetica,sans-Serif" font-size="10.00" fill="#000000"> +elements</text>
</g>
<!-- Node8 -->
<g id="node6" class="node">
<title>Node8</title>
<g id="a_node6"><a xlink:title="STL class. ">
<polygon fill="#ffffff" stroke="#bfbfbf" points="168.5,-587.5 168.5,-644.5 263.5,-644.5 263.5,-587.5 168.5,-587.5"/>
<text text-anchor="middle" x="216" y="-632.5" font-family="Helvetica,sans-Serif" font-size="10.00" fill="#000000">std::valarray&lt; T &gt;</text>
<polyline fill="none" stroke="#bfbfbf" points="168.5,-625.5 263.5,-625.5 "/>
<text text-anchor="middle" x="216" y="-613.5" font-family="Helvetica,sans-Serif" font-size="10.00" fill="#000000"> </text>
<polyline fill="none" stroke="#bfbfbf" points="168.5,-606.5 263.5,-606.5 "/>
<text text-anchor="middle" x="216" y="-594.5" font-family="Helvetica,sans-Serif" font-size="10.00" fill="#000000"> </text>
</a>
</g>
</g>
<!-- Node8&#45;&gt;Node6 -->
<g id="edge7" class="edge">
<title>Node8&#45;&gt;Node6</title>
<path fill="none" stroke="#ffa500" d="M207.5005,-577.3466C201.5725,-542.8716 196.8382,-491.4392 210,-449 217.7615,-423.9736 234.0232,-399.6351 248.9205,-381.0126"/>
<polygon fill="#ffa500" stroke="#ffa500" points="204.1113,-578.2693 209.36,-587.4726 210.9962,-577.0049 204.1113,-578.2693"/>
<text text-anchor="middle" x="266" y="-492" font-family="Helvetica,sans-Serif" font-size="10.00" fill="#000000"> &lt; std::valarray&lt; float &gt; &gt;</text>
</g>
<!-- Node8&#45;&gt;Node7 -->
<g id="edge5" class="edge">
<title>Node8&#45;&gt;Node7</title>
<path fill="none" stroke="#ffa500" d="M264.215,-581.1303C289.6485,-562.7364 320.4653,-540.4492 344.4721,-523.0871"/>
<polygon fill="#ffa500" stroke="#ffa500" points="261.8656,-578.5099 255.8137,-587.2062 265.9677,-584.182 261.8656,-578.5099"/>
<text text-anchor="middle" x="314" y="-561" font-family="Helvetica,sans-Serif" font-size="10.00" fill="#000000"> &lt; float &gt;</text>
</g>
<!-- Node9 -->
<g id="node7" class="node">
<title>Node9</title>
<polygon fill="#ffffff" stroke="#bfbfbf" points="201.5,-692.5 201.5,-749.5 230.5,-749.5 230.5,-692.5 201.5,-692.5"/>
<text text-anchor="middle" x="216" y="-737.5" font-family="Helvetica,sans-Serif" font-size="10.00" fill="#000000">T</text>
<polyline fill="none" stroke="#bfbfbf" points="201.5,-730.5 230.5,-730.5 "/>
<text text-anchor="middle" x="216" y="-718.5" font-family="Helvetica,sans-Serif" font-size="10.00" fill="#000000"> </text>
<polyline fill="none" stroke="#bfbfbf" points="201.5,-711.5 230.5,-711.5 "/>
<text text-anchor="middle" x="216" y="-699.5" font-family="Helvetica,sans-Serif" font-size="10.00" fill="#000000"> </text>
</g>
<!-- Node9&#45;&gt;Node8 -->
<g id="edge6" class="edge">
<title>Node9&#45;&gt;Node8</title>
<path fill="none" stroke="#404040" d="M216,-692.3083C216,-681.4281 216,-668.817 216,-657.0192"/>
<polygon fill="none" stroke="#404040" points="216.0001,-656.657 212,-650.6571 216,-644.657 220,-650.657 216.0001,-656.657"/>
<text text-anchor="middle" x="240.5" y="-666" font-family="Helvetica,sans-Serif" font-size="10.00" fill="#000000"> +elements</text>
</g>
</g>
</svg>
        <g id="navigator" transform="translate(0 0)" fill="#404254">
                <rect fill="#f2f5e9" fill-opacity="0.5" stroke="#606060" stroke-width=".5" x="0" y="0" width="60" height="60"/>
                <use id="zoomplus" xlink:href="#zoomPlus" x="17" y="9" onmousedown="handleZoom(evt,'in')"/>
                <use id="zoomminus" xlink:href="#zoomMin" x="42" y="9" onmousedown="handleZoom(evt,'out')"/>
                <use id="reset" xlink:href="#resetDef" x="30" y="36" onmousedown="handleReset()"/>
                <g id="arrowUp" xlink:href="#dirArrow" transform="translate(30 24)" onmousedown="handlePan(0,-1)">
                  <use xlink:href="#rim" fill="#404040">
                        <set attributeName="fill" to="#808080" begin="arrowUp.mouseover" end="arrowUp.mouseout"/>
                  </use>
                  <path fill="none" stroke="white" stroke-width="1.5" d="M0,-3.0v7 M-2.5,-0.5L0,-3.0L2.5,-0.5"/>
                </g>
                <g id="arrowRight" xlink:href="#dirArrow" transform="rotate(90) translate(36 -43)" onmousedown="handlePan(1,0)">
                  <use xlink:href="#rim" fill="#404040">
                        <set attributeName="fill" to="#808080" begin="arrowRight.mouseover" end="arrowRight.mouseout"/>
                  </use>
                  <path fill="none" stroke="white" stroke-width="1.5" d="M0,-3.0v7 M-2.5,-0.5L0,-3.0L2.5,-0.5"/>
                </g>
                <g id="arrowDown" xlink:href="#dirArrow" transform="rotate(180) translate(-30 -48)" onmousedown="handlePan(0,1)">
                  <use xlink:href="#rim" fill="#404040">
                        <set attributeName="fill" to="#808080" begin="arrowDown.mouseover" end="arrowDown.mouseout"/>
                  </use>
                  <path fill="none" stroke="white" stroke-width="1.5" d="M0,-3.0v7 M-2.5,-0.5L0,-3.0L2.5,-0.5"/>
                </g>
                <g id="arrowLeft" xlink:href="#dirArrow" transform="rotate(270) translate(-36 17)" onmousedown="handlePan(-1,0)">
                  <use xlink:href="#rim" fill="#404040">
                        <set attributeName="fill" to="#808080" begin="arrowLeft.mouseover" end="arrowLeft.mouseout"/>
                  </use>
                  <path fill="none" stroke="white" stroke-width="1.5" d="M0,-3.0v7 M-2.5,-0.5L0,-3.0L2.5,-0.5"/>
                </g>
        </g>
        <svg viewBox="0 0 15 15" width="100%" height="30px" preserveAspectRatio="xMaxYMin meet">
         <g id="arrow_out" transform="scale(0.3 0.3)">
          <a xlink:href="classmedimuse_1_1_generic_float_bio_signal_processor__coll__graph_org.svg" target="_base">
           <rect id="button" ry="5" rx="5" y="6" x="6" height="38" width="38"
                fill="#f2f5e9" fill-opacity="0.5" stroke="#606060" stroke-width="1.0"/>
           <path id="arrow"
             d="M 11.500037,31.436501 C 11.940474,20.09759 22.043105,11.32322 32.158766,21.979434 L 37.068811,17.246167 C 37.068811,17.246167 37.088388,32 37.088388,32 L 22.160133,31.978069 C 22.160133,31.978069 26.997745,27.140456 26.997745,27.140456 C 18.528582,18.264221 13.291696,25.230495 11.500037,31.436501 z"
             style="fill:#404040;"/>
          </a>
         </g>
        </svg>
</svg>
