<?xml version="1.0" encoding="UTF-8" standalone="no"?>
<!DOCTYPE svg PUBLIC "-//W3C//DTD SVG 1.1//EN"
 "http://www.w3.org/Graphics/SVG/1.1/DTD/svg11.dtd">
<!-- Generated by graphviz version 2.40.1 (20161225.0304)
 -->
<!-- Title: Graphical Class Hierarchy Pages: 1 -->
<svg width="337pt" height="39pt"
 viewBox="0.00 0.00 337.00 39.00" xmlns="http://www.w3.org/2000/svg" xmlns:xlink="http://www.w3.org/1999/xlink">
<g id="graph0" class="graph" transform="scale(1 1) rotate(0) translate(4 35)">
<title>Graphical Class Hierarchy</title>
<polygon fill="#ffffff" stroke="transparent" points="-4,4 -4,-35 333,-35 333,4 -4,4"/>
<!-- Node0 -->
<g id="node1" class="node">
<title>Node0</title>
<g id="a_node1"><a xlink:href="classmedimuse_1_1_i_bio_signal_processor_callback.html" target="_top" xlink:title="medimuse::IBioSignalProcessor\lCallback\&lt; float \&gt;">
<polygon fill="#ffffff" stroke="#000000" points="0,-.5 0,-30.5 156,-30.5 156,-.5 0,-.5"/>
<text text-anchor="start" x="8" y="-18.5" font-family="Helvetica,sans-Serif" font-size="10.00" fill="#000000">medimuse::IBioSignalProcessor</text>
<text text-anchor="middle" x="78" y="-7.5" font-family="Helvetica,sans-Serif" font-size="10.00" fill="#000000">Callback&lt; float &gt;</text>
</a>
</g>
</g>
<!-- Node1 -->
<g id="node2" class="node">
<title>Node1</title>
<g id="a_node2"><a xlink:href="classmedimuse_1_1_generic_float_bio_signal_processor.html" target="_top" xlink:title="Public interface for a callback for a biometric processor instance. ">
<polygon fill="#ffffff" stroke="#000000" points="192,-.5 192,-30.5 329,-30.5 329,-.5 192,-.5"/>
<text text-anchor="start" x="200" y="-18.5" font-family="Helvetica,sans-Serif" font-size="10.00" fill="#000000">medimuse::GenericFloatBio</text>
<text text-anchor="middle" x="260.5" y="-7.5" font-family="Helvetica,sans-Serif" font-size="10.00" fill="#000000">SignalProcessor</text>
</a>
</g>
</g>
<!-- Node0&#45;&gt;Node1 -->
<g id="edge1" class="edge">
<title>Node0&#45;&gt;Node1</title>
<path fill="none" stroke="#191970" d="M166.2843,-15.5C174.9121,-15.5 183.5754,-15.5 191.9651,-15.5"/>
<polygon fill="#191970" stroke="#191970" points="166.1907,-12.0001 156.1906,-15.5 166.1906,-19.0001 166.1907,-12.0001"/>
</g>
</g>
</svg>
