<?xml version="1.0" encoding="UTF-8" standalone="no"?>
<!DOCTYPE svg PUBLIC "-//W3C//DTD SVG 1.1//EN"
 "http://www.w3.org/Graphics/SVG/1.1/DTD/svg11.dtd">
<!-- Generated by graphviz version 2.40.1 (20161225.0304)
 -->
<!-- Title: medimuse::MapleEvent Pages: 1 -->
<!--zoomable 571 -->
<svg id="main" version="1.1" xmlns="http://www.w3.org/2000/svg" xmlns:xlink="http://www.w3.org/1999/xlink" xml:space="preserve" onload="init(evt)">
<style type="text/css"><![CDATA[
.edge:hover path { stroke: red; }
.edge:hover polygon { stroke: red; fill: red; }
]]></style>
<script type="text/javascript"><![CDATA[
var edges = document.getElementsByTagName('g');
if (edges && edges.length) {
  for (var i=0;i<edges.length;i++) {
    if (edges[i].id.substr(0,4)=='edge') {
      edges[i].setAttribute('class','edge');
    }
  }
}
]]></script>
        <defs>
                <circle id="rim" cx="0" cy="0" r="7"/>
                <circle id="rim2" cx="0" cy="0" r="3.5"/>
                <g id="zoomPlus">
                        <use xlink:href="#rim" fill="#404040">
                                <set attributeName="fill" to="#808080" begin="zoomplus.mouseover" end="zoomplus.mouseout"/>
                        </use>
                        <path d="M-4,0h8M0,-4v8" fill="none" stroke="white" stroke-width="1.5" pointer-events="none"/>
                </g>
                <g id="zoomMin">
                        <use xlink:href="#rim" fill="#404040">
                                <set attributeName="fill" to="#808080" begin="zoomminus.mouseover" end="zoomminus.mouseout"/>
                        </use>
                        <path d="M-4,0h8" fill="none" stroke="white" stroke-width="1.5" pointer-events="none"/>
                </g>
                <g id="dirArrow">
                        <path fill="none" stroke="white" stroke-width="1.5" d="M0,-3.0v7 M-2.5,-0.5L0,-3.0L2.5,-0.5"/>
                </g>
               <g id="resetDef">
                       <use xlink:href="#rim2" fill="#404040">
                               <set attributeName="fill" to="#808080" begin="reset.mouseover" end="reset.mouseout"/>
                       </use>
               </g>
        </defs>

<script type="text/javascript">
var viewWidth = 1319;
var viewHeight = 571;
var sectionId = 'dynsection-0';
</script>
<script xlink:href="svgpan.js"/>
<svg id="graph" class="graph">
<g id="viewport">
<title>medimuse::MapleEvent</title>
<polygon fill="#ffffff" stroke="transparent" points="-4,4 -4,-567 1314.5,-567 1314.5,4 -4,4"/>
<!-- Node1 -->
<g id="node1" class="node">
<title>Node1</title>
<polygon fill="#bfbfbf" stroke="#000000" points="561,-.5 561,-101.5 680,-101.5 680,-.5 561,-.5"/>
<text text-anchor="middle" x="620.5" y="-89.5" font-family="Helvetica,sans-Serif" font-size="10.00" fill="#000000">medimuse::MapleEvent</text>
<polyline fill="none" stroke="#000000" points="561,-82.5 680,-82.5 "/>
<text text-anchor="start" x="569" y="-70.5" font-family="Helvetica,sans-Serif" font-size="10.00" fill="#000000">+ busIndex</text>
<text text-anchor="start" x="569" y="-59.5" font-family="Helvetica,sans-Serif" font-size="10.00" fill="#000000">+ sampleOffset</text>
<text text-anchor="start" x="569" y="-48.5" font-family="Helvetica,sans-Serif" font-size="10.00" fill="#000000">+ ppqPosition</text>
<text text-anchor="start" x="569" y="-37.5" font-family="Helvetica,sans-Serif" font-size="10.00" fill="#000000">+ eventType</text>
<text text-anchor="start" x="569" y="-26.5" font-family="Helvetica,sans-Serif" font-size="10.00" fill="#000000">+ event</text>
<polyline fill="none" stroke="#000000" points="561,-19.5 680,-19.5 "/>
<text text-anchor="middle" x="620.5" y="-7.5" font-family="Helvetica,sans-Serif" font-size="10.00" fill="#000000"> </text>
</g>
<!-- Node2 -->
<g id="node2" class="node">
<title>Node2</title>
<g id="a_node2"><a xlink:href="structmedimuse_1_1_maple_note_on_event.html" target="_top" xlink:title="Note&#45;on event specific data. ">
<polygon fill="#ffffff" stroke="#000000" points="0,-275 0,-332 153,-332 153,-275 0,-275"/>
<text text-anchor="middle" x="76.5" y="-320" font-family="Helvetica,sans-Serif" font-size="10.00" fill="#000000">medimuse::MapleNoteOnEvent</text>
<polyline fill="none" stroke="#000000" points="0,-313 153,-313 "/>
<text text-anchor="middle" x="76.5" y="-301" font-family="Helvetica,sans-Serif" font-size="10.00" fill="#000000"> </text>
<polyline fill="none" stroke="#000000" points="0,-294 153,-294 "/>
<text text-anchor="middle" x="76.5" y="-282" font-family="Helvetica,sans-Serif" font-size="10.00" fill="#000000"> </text>
</a>
</g>
</g>
<!-- Node2&#45;&gt;Node1 -->
<g id="edge1" class="edge">
<title>Node2&#45;&gt;Node1</title>
<path fill="none" stroke="#404040" d="M72.5931,-274.9326C69.612,-240.9961 70.1113,-184.5197 99.5,-149 155.699,-81.0767 419.5404,-59.9318 548.787,-53.5908"/>
<polygon fill="none" stroke="#404040" points="548.8764,-53.5867 554.6816,-49.3089 560.8631,-53.0223 555.0579,-57.3 548.8764,-53.5867"/>
<text text-anchor="middle" x="120" y="-197.5" font-family="Helvetica,sans-Serif" font-size="10.00" fill="#000000"> +noteOn</text>
</g>
<!-- Node3 -->
<g id="node3" class="node">
<title>Node3</title>
<g id="a_node3"><a xlink:href="structmedimuse_1_1_maple_midi_note_event.html" target="_top" xlink:title="{medimuse::MapleMidiNoteEvent\n|+ channel\l+ pitch\l+ tuning\l+ velocity\l|}">
<polygon fill="#ffffff" stroke="#000000" points="180.5,-472.5 180.5,-562.5 338.5,-562.5 338.5,-472.5 180.5,-472.5"/>
<text text-anchor="middle" x="259.5" y="-550.5" font-family="Helvetica,sans-Serif" font-size="10.00" fill="#000000">medimuse::MapleMidiNoteEvent</text>
<polyline fill="none" stroke="#000000" points="180.5,-543.5 338.5,-543.5 "/>
<text text-anchor="start" x="188.5" y="-531.5" font-family="Helvetica,sans-Serif" font-size="10.00" fill="#000000">+ channel</text>
<text text-anchor="start" x="188.5" y="-520.5" font-family="Helvetica,sans-Serif" font-size="10.00" fill="#000000">+ pitch</text>
<text text-anchor="start" x="188.5" y="-509.5" font-family="Helvetica,sans-Serif" font-size="10.00" fill="#000000">+ tuning</text>
<text text-anchor="start" x="188.5" y="-498.5" font-family="Helvetica,sans-Serif" font-size="10.00" fill="#000000">+ velocity</text>
<polyline fill="none" stroke="#000000" points="180.5,-491.5 338.5,-491.5 "/>
<text text-anchor="middle" x="259.5" y="-479.5" font-family="Helvetica,sans-Serif" font-size="10.00" fill="#000000"> </text>
</a>
</g>
</g>
<!-- Node3&#45;&gt;Node2 -->
<g id="edge2" class="edge">
<title>Node3&#45;&gt;Node2</title>
<path fill="none" stroke="#404040" d="M220.914,-472.3776C187.7038,-433.5416 140.3242,-378.136 109.0107,-341.518"/>
<polygon fill="none" stroke="#404040" points="108.8215,-341.2967 101.882,-339.3364 101.0225,-332.1766 107.9621,-334.137 108.8215,-341.2967"/>
<text text-anchor="middle" x="217.5" y="-446" font-family="Helvetica,sans-Serif" font-size="10.00" fill="#000000"> +note</text>
</g>
<!-- Node5 -->
<g id="node5" class="node">
<title>Node5</title>
<g id="a_node5"><a xlink:href="structmedimuse_1_1_maple_poly_pressure_event.html" target="_top" xlink:title="PolyPressure event specific data. ">
<polygon fill="#ffffff" stroke="#000000" points="158.5,-269.5 158.5,-337.5 310.5,-337.5 310.5,-269.5 158.5,-269.5"/>
<text text-anchor="start" x="166.5" y="-325.5" font-family="Helvetica,sans-Serif" font-size="10.00" fill="#000000">medimuse::MaplePolyPressure</text>
<text text-anchor="middle" x="234.5" y="-314.5" font-family="Helvetica,sans-Serif" font-size="10.00" fill="#000000">Event</text>
<polyline fill="none" stroke="#000000" points="158.5,-307.5 310.5,-307.5 "/>
<text text-anchor="middle" x="234.5" y="-295.5" font-family="Helvetica,sans-Serif" font-size="10.00" fill="#000000"> </text>
<polyline fill="none" stroke="#000000" points="158.5,-288.5 310.5,-288.5 "/>
<text text-anchor="middle" x="234.5" y="-276.5" font-family="Helvetica,sans-Serif" font-size="10.00" fill="#000000"> </text>
</a>
</g>
</g>
<!-- Node3&#45;&gt;Node5 -->
<g id="edge5" class="edge">
<title>Node3&#45;&gt;Node5</title>
<path fill="none" stroke="#404040" d="M254.2287,-472.3776C250.0255,-436.398 244.1608,-386.1964 239.9192,-349.8885"/>
<polygon fill="none" stroke="#404040" points="239.8845,-349.5904 235.2153,-344.0951 238.492,-337.6715 243.1612,-343.1668 239.8845,-349.5904"/>
<text text-anchor="middle" x="266.5" y="-446" font-family="Helvetica,sans-Serif" font-size="10.00" fill="#000000"> +note</text>
</g>
<!-- Node9 -->
<g id="node9" class="node">
<title>Node9</title>
<g id="a_node9"><a xlink:href="structmedimuse_1_1_maple_expressive_event.html" target="_top" xlink:title="Expressive event for note. ">
<polygon fill="#ffffff" stroke="#000000" points="263,-356.5 263,-424.5 406,-424.5 406,-356.5 263,-356.5"/>
<text text-anchor="start" x="271" y="-412.5" font-family="Helvetica,sans-Serif" font-size="10.00" fill="#000000">medimuse::MapleExpressive</text>
<text text-anchor="middle" x="334.5" y="-401.5" font-family="Helvetica,sans-Serif" font-size="10.00" fill="#000000">Event</text>
<polyline fill="none" stroke="#000000" points="263,-394.5 406,-394.5 "/>
<text text-anchor="start" x="271" y="-382.5" font-family="Helvetica,sans-Serif" font-size="10.00" fill="#000000">+ expression_type</text>
<polyline fill="none" stroke="#000000" points="263,-375.5 406,-375.5 "/>
<text text-anchor="middle" x="334.5" y="-363.5" font-family="Helvetica,sans-Serif" font-size="10.00" fill="#000000"> </text>
</a>
</g>
</g>
<!-- Node3&#45;&gt;Node9 -->
<g id="edge10" class="edge">
<title>Node3&#45;&gt;Node9</title>
<path fill="none" stroke="#404040" d="M286.1534,-472.367C293.2452,-460.3581 300.9034,-447.3903 307.9877,-435.3942"/>
<polygon fill="none" stroke="#404040" points="308.1976,-435.0387 307.8044,-427.8383 314.2996,-424.706 314.6929,-431.9064 308.1976,-435.0387"/>
<text text-anchor="middle" x="315.5" y="-446" font-family="Helvetica,sans-Serif" font-size="10.00" fill="#000000"> +note</text>
</g>
<!-- Node11 -->
<g id="node11" class="node">
<title>Node11</title>
<g id="a_node11"><a xlink:href="structmedimuse_1_1_maple_note_off_event.html" target="_top" xlink:title="Note&#45;off event specific data. ">
<polygon fill="#ffffff" stroke="#000000" points="483.5,-362 483.5,-419 637.5,-419 637.5,-362 483.5,-362"/>
<text text-anchor="middle" x="560.5" y="-407" font-family="Helvetica,sans-Serif" font-size="10.00" fill="#000000">medimuse::MapleNoteOffEvent</text>
<polyline fill="none" stroke="#000000" points="483.5,-400 637.5,-400 "/>
<text text-anchor="middle" x="560.5" y="-388" font-family="Helvetica,sans-Serif" font-size="10.00" fill="#000000"> </text>
<polyline fill="none" stroke="#000000" points="483.5,-381 637.5,-381 "/>
<text text-anchor="middle" x="560.5" y="-369" font-family="Helvetica,sans-Serif" font-size="10.00" fill="#000000"> </text>
</a>
</g>
</g>
<!-- Node3&#45;&gt;Node11 -->
<g id="edge13" class="edge">
<title>Node3&#45;&gt;Node11</title>
<path fill="none" stroke="#404040" d="M338.5842,-484.1322C382.6485,-465.5403 437.3456,-442.4621 481.4107,-423.8699"/>
<polygon fill="none" stroke="#404040" points="481.6063,-423.7874 485.5794,-417.7696 492.6624,-419.1225 488.6893,-425.1404 481.6063,-423.7874"/>
<text text-anchor="middle" x="442.5" y="-446" font-family="Helvetica,sans-Serif" font-size="10.00" fill="#000000"> +note</text>
</g>
<!-- Node4 -->
<g id="node4" class="node">
<title>Node4</title>
<g id="a_node4"><a xlink:href="structmedimuse_1_1_maple_m_i_d_i_c_c_out_event.html" target="_top" xlink:title="Legacy MIDI CC Out event specific data. ">
<polygon fill="#ffffff" stroke="#000000" points="680.5,-149.5 680.5,-250.5 826.5,-250.5 826.5,-149.5 680.5,-149.5"/>
<text text-anchor="start" x="688.5" y="-238.5" font-family="Helvetica,sans-Serif" font-size="10.00" fill="#000000">medimuse::MapleMIDICCOut</text>
<text text-anchor="middle" x="753.5" y="-227.5" font-family="Helvetica,sans-Serif" font-size="10.00" fill="#000000">Event</text>
<polyline fill="none" stroke="#000000" points="680.5,-220.5 826.5,-220.5 "/>
<text text-anchor="start" x="688.5" y="-208.5" font-family="Helvetica,sans-Serif" font-size="10.00" fill="#000000">+ controlNumber</text>
<text text-anchor="start" x="688.5" y="-197.5" font-family="Helvetica,sans-Serif" font-size="10.00" fill="#000000">+ channel</text>
<text text-anchor="start" x="688.5" y="-186.5" font-family="Helvetica,sans-Serif" font-size="10.00" fill="#000000">+ value</text>
<text text-anchor="start" x="688.5" y="-175.5" font-family="Helvetica,sans-Serif" font-size="10.00" fill="#000000">+ value2</text>
<polyline fill="none" stroke="#000000" points="680.5,-168.5 826.5,-168.5 "/>
<text text-anchor="middle" x="753.5" y="-156.5" font-family="Helvetica,sans-Serif" font-size="10.00" fill="#000000"> </text>
</a>
</g>
</g>
<!-- Node4&#45;&gt;Node1 -->
<g id="edge3" class="edge">
<title>Node4&#45;&gt;Node1</title>
<path fill="none" stroke="#404040" d="M708.1009,-149.1394C697.08,-136.7927 685.1965,-123.4796 673.8456,-110.7631"/>
<polygon fill="none" stroke="#404040" points="673.6855,-110.5837 666.7059,-108.7712 665.6945,-101.6314 672.6741,-103.4439 673.6855,-110.5837"/>
<text text-anchor="middle" x="720.5" y="-123" font-family="Helvetica,sans-Serif" font-size="10.00" fill="#000000"> +midiCCOut</text>
</g>
<!-- Node5&#45;&gt;Node1 -->
<g id="edge4" class="edge">
<title>Node5&#45;&gt;Node1</title>
<path fill="none" stroke="#404040" d="M176.1425,-269.2878C170.6939,-263.8509 165.9356,-257.7571 162.5,-251 141.9537,-210.5901 133.9947,-184.2499 162.5,-149 210.2288,-89.9781 431.9328,-64.9218 548.4716,-55.6811"/>
<polygon fill="none" stroke="#404040" points="548.8138,-55.6548 554.4888,-51.2058 560.7783,-54.7331 555.1033,-59.1822 548.8138,-55.6548"/>
<text text-anchor="middle" x="196" y="-197.5" font-family="Helvetica,sans-Serif" font-size="10.00" fill="#000000"> +polyPressure</text>
</g>
<!-- Node6 -->
<g id="node6" class="node">
<title>Node6</title>
<g id="a_node6"><a xlink:href="structmedimuse_1_1_maple_data_event.html" target="_top" xlink:title="Data event specific data. Used in MapleEvent (union)*/. ">
<polygon fill="#ffffff" stroke="#000000" points="844.5,-155 844.5,-245 984.5,-245 984.5,-155 844.5,-155"/>
<text text-anchor="middle" x="914.5" y="-233" font-family="Helvetica,sans-Serif" font-size="10.00" fill="#000000">medimuse::MapleDataEvent</text>
<polyline fill="none" stroke="#000000" points="844.5,-226 984.5,-226 "/>
<text text-anchor="start" x="852.5" y="-214" font-family="Helvetica,sans-Serif" font-size="10.00" fill="#000000">+ size</text>
<text text-anchor="start" x="852.5" y="-203" font-family="Helvetica,sans-Serif" font-size="10.00" fill="#000000">+ type</text>
<text text-anchor="start" x="852.5" y="-192" font-family="Helvetica,sans-Serif" font-size="10.00" fill="#000000">+ bytes</text>
<text text-anchor="start" x="852.5" y="-181" font-family="Helvetica,sans-Serif" font-size="10.00" fill="#000000">+ dt</text>
<polyline fill="none" stroke="#000000" points="844.5,-174 984.5,-174 "/>
<text text-anchor="middle" x="914.5" y="-162" font-family="Helvetica,sans-Serif" font-size="10.00" fill="#000000"> </text>
</a>
</g>
</g>
<!-- Node6&#45;&gt;Node1 -->
<g id="edge6" class="edge">
<title>Node6&#45;&gt;Node1</title>
<path fill="none" stroke="#404040" d="M845.9223,-154.8927C842.4248,-152.8557 838.9375,-150.88 835.5,-149 788.5862,-123.3424 733.705,-98.4053 691.1335,-80.1072"/>
<polygon fill="none" stroke="#404040" points="691.0657,-80.0783 683.9768,-81.4003 680.0301,-75.3651 687.119,-74.0431 691.0657,-80.0783"/>
<text text-anchor="middle" x="808.5" y="-123" font-family="Helvetica,sans-Serif" font-size="10.00" fill="#000000"> +data</text>
</g>
<!-- Node7 -->
<g id="node7" class="node">
<title>Node7</title>
<g id="a_node7"><a xlink:href="structmedimuse_1_1_maple_scale_event.html" target="_top" xlink:title="Scale event specific data. ">
<polygon fill="#ffffff" stroke="#000000" points="1002.5,-155 1002.5,-245 1146.5,-245 1146.5,-155 1002.5,-155"/>
<text text-anchor="middle" x="1074.5" y="-233" font-family="Helvetica,sans-Serif" font-size="10.00" fill="#000000">medimuse::MapleScaleEvent</text>
<polyline fill="none" stroke="#000000" points="1002.5,-226 1146.5,-226 "/>
<text text-anchor="start" x="1010.5" y="-214" font-family="Helvetica,sans-Serif" font-size="10.00" fill="#000000">+ root</text>
<text text-anchor="start" x="1010.5" y="-203" font-family="Helvetica,sans-Serif" font-size="10.00" fill="#000000">+ mask</text>
<text text-anchor="start" x="1010.5" y="-192" font-family="Helvetica,sans-Serif" font-size="10.00" fill="#000000">+ textLen</text>
<text text-anchor="start" x="1010.5" y="-181" font-family="Helvetica,sans-Serif" font-size="10.00" fill="#000000">+ text</text>
<polyline fill="none" stroke="#000000" points="1002.5,-174 1146.5,-174 "/>
<text text-anchor="middle" x="1074.5" y="-162" font-family="Helvetica,sans-Serif" font-size="10.00" fill="#000000"> </text>
</a>
</g>
</g>
<!-- Node7&#45;&gt;Node1 -->
<g id="edge7" class="edge">
<title>Node7&#45;&gt;Node1</title>
<path fill="none" stroke="#404040" d="M1005.8936,-154.8699C1001.7647,-152.7628 997.616,-150.7861 993.5,-149 893.075,-105.4208 768.7767,-77.5324 692.0651,-63.0686"/>
<polygon fill="none" stroke="#404040" points="691.9715,-63.0513 685.3425,-65.8896 680.1729,-60.8622 686.8019,-58.0239 691.9715,-63.0513"/>
<text text-anchor="middle" x="961" y="-123" font-family="Helvetica,sans-Serif" font-size="10.00" fill="#000000"> +scale</text>
</g>
<!-- Node8 -->
<g id="node8" class="node">
<title>Node8</title>
<g id="a_node8"><a xlink:href="structmedimuse_1_1_maple_note_expression_value_event.html" target="_top" xlink:title="Expression value event for note. ">
<polygon fill="#ffffff" stroke="#000000" points="238.5,-166 238.5,-234 402.5,-234 402.5,-166 238.5,-166"/>
<text text-anchor="start" x="246.5" y="-222" font-family="Helvetica,sans-Serif" font-size="10.00" fill="#000000">medimuse::MapleNoteExpression</text>
<text text-anchor="middle" x="320.5" y="-211" font-family="Helvetica,sans-Serif" font-size="10.00" fill="#000000">ValueEvent</text>
<polyline fill="none" stroke="#000000" points="238.5,-204 402.5,-204 "/>
<text text-anchor="middle" x="320.5" y="-192" font-family="Helvetica,sans-Serif" font-size="10.00" fill="#000000"> </text>
<polyline fill="none" stroke="#000000" points="238.5,-185 402.5,-185 "/>
<text text-anchor="middle" x="320.5" y="-173" font-family="Helvetica,sans-Serif" font-size="10.00" fill="#000000"> </text>
</a>
</g>
</g>
<!-- Node8&#45;&gt;Node1 -->
<g id="edge8" class="edge">
<title>Node8&#45;&gt;Node1</title>
<path fill="none" stroke="#404040" d="M347.4716,-165.7686C361.5083,-149.9164 379.8297,-131.9832 399.5,-120 445.5055,-91.9734 503.9129,-74.3806 549.1273,-63.9784"/>
<polygon fill="none" stroke="#404040" points="549.1999,-63.9623 554.1895,-58.7562 560.9143,-61.3596 555.9246,-66.5658 549.1999,-63.9623"/>
<text text-anchor="middle" x="450.5" y="-123" font-family="Helvetica,sans-Serif" font-size="10.00" fill="#000000"> +noteExpressionValue</text>
</g>
<!-- Node9&#45;&gt;Node8 -->
<g id="edge9" class="edge">
<title>Node9&#45;&gt;Node8</title>
<path fill="none" stroke="#404040" d="M331.9971,-356.4424C329.7445,-325.7906 326.4143,-280.4774 323.9171,-246.4974"/>
<polygon fill="none" stroke="#404040" points="323.8844,-246.0511 319.4554,-240.3604 323.0048,-234.0833 327.4339,-239.774 323.8844,-246.0511"/>
<text text-anchor="middle" x="369" y="-301" font-family="Helvetica,sans-Serif" font-size="10.00" fill="#000000"> +noteExpression</text>
</g>
<!-- Node12 -->
<g id="node12" class="node">
<title>Node12</title>
<g id="a_node12"><a xlink:href="structmedimuse_1_1_maple_note_expression_text_event.html" target="_top" xlink:title="{medimuse::MapleNoteExpression\lTextEvent\n||}">
<polygon fill="#ffffff" stroke="#000000" points="420.5,-166 420.5,-234 584.5,-234 584.5,-166 420.5,-166"/>
<text text-anchor="start" x="428.5" y="-222" font-family="Helvetica,sans-Serif" font-size="10.00" fill="#000000">medimuse::MapleNoteExpression</text>
<text text-anchor="middle" x="502.5" y="-211" font-family="Helvetica,sans-Serif" font-size="10.00" fill="#000000">TextEvent</text>
<polyline fill="none" stroke="#000000" points="420.5,-204 584.5,-204 "/>
<text text-anchor="middle" x="502.5" y="-192" font-family="Helvetica,sans-Serif" font-size="10.00" fill="#000000"> </text>
<polyline fill="none" stroke="#000000" points="420.5,-185 584.5,-185 "/>
<text text-anchor="middle" x="502.5" y="-173" font-family="Helvetica,sans-Serif" font-size="10.00" fill="#000000"> </text>
</a>
</g>
</g>
<!-- Node9&#45;&gt;Node12 -->
<g id="edge15" class="edge">
<title>Node9&#45;&gt;Node12</title>
<path fill="none" stroke="#404040" d="M390.418,-356.259C397.8824,-350.5999 405.1429,-344.4561 411.5,-338 438.7281,-310.3479 462.5819,-273.4043 479.029,-244.7004"/>
<polygon fill="none" stroke="#404040" points="479.0844,-244.6018 478.5355,-237.4116 484.9615,-234.1394 485.5104,-241.3296 479.0844,-244.6018"/>
<text text-anchor="middle" x="503" y="-301" font-family="Helvetica,sans-Serif" font-size="10.00" fill="#000000"> +noteExpression</text>
</g>
<!-- Node10 -->
<g id="node10" class="node">
<title>Node10</title>
<g id="a_node10"><a xlink:href="structmedimuse_1_1_maple_chord_event.html" target="_top" xlink:title="Chord event specific data. ">
<polygon fill="#ffffff" stroke="#000000" points="1164.5,-149.5 1164.5,-250.5 1310.5,-250.5 1310.5,-149.5 1164.5,-149.5"/>
<text text-anchor="middle" x="1237.5" y="-238.5" font-family="Helvetica,sans-Serif" font-size="10.00" fill="#000000">medimuse::MapleChordEvent</text>
<polyline fill="none" stroke="#000000" points="1164.5,-231.5 1310.5,-231.5 "/>
<text text-anchor="start" x="1172.5" y="-219.5" font-family="Helvetica,sans-Serif" font-size="10.00" fill="#000000">+ root</text>
<text text-anchor="start" x="1172.5" y="-208.5" font-family="Helvetica,sans-Serif" font-size="10.00" fill="#000000">+ bassNote</text>
<text text-anchor="start" x="1172.5" y="-197.5" font-family="Helvetica,sans-Serif" font-size="10.00" fill="#000000">+ mask</text>
<text text-anchor="start" x="1172.5" y="-186.5" font-family="Helvetica,sans-Serif" font-size="10.00" fill="#000000">+ textLen</text>
<text text-anchor="start" x="1172.5" y="-175.5" font-family="Helvetica,sans-Serif" font-size="10.00" fill="#000000">+ text</text>
<polyline fill="none" stroke="#000000" points="1164.5,-168.5 1310.5,-168.5 "/>
<text text-anchor="middle" x="1237.5" y="-156.5" font-family="Helvetica,sans-Serif" font-size="10.00" fill="#000000"> </text>
</a>
</g>
</g>
<!-- Node10&#45;&gt;Node1 -->
<g id="edge11" class="edge">
<title>Node10&#45;&gt;Node1</title>
<path fill="none" stroke="#404040" d="M1164.4275,-152.7535C1161.453,-151.407 1158.4712,-150.1483 1155.5,-149 997.0661,-87.7704 797.1415,-64.2025 692.2541,-55.6004"/>
<polygon fill="none" stroke="#404040" points="692.2132,-55.5973 685.9155,-59.1099 680.2508,-54.6476 686.5486,-51.135 692.2132,-55.5973"/>
<text text-anchor="middle" x="1116.5" y="-123" font-family="Helvetica,sans-Serif" font-size="10.00" fill="#000000"> +chord</text>
</g>
<!-- Node11&#45;&gt;Node1 -->
<g id="edge12" class="edge">
<title>Node11&#45;&gt;Node1</title>
<path fill="none" stroke="#404040" d="M568.1554,-361.8203C575.4439,-333.7401 586.335,-289.6634 593.5,-251 601.9579,-205.36 608.8926,-153.3964 613.6156,-113.8766"/>
<polygon fill="none" stroke="#404040" points="613.6377,-113.6875 610.3663,-107.2612 615.04,-101.7697 618.3115,-108.196 613.6377,-113.6875"/>
<text text-anchor="middle" x="630.5" y="-197.5" font-family="Helvetica,sans-Serif" font-size="10.00" fill="#000000"> +noteOff</text>
</g>
<!-- Node12&#45;&gt;Node1 -->
<g id="edge14" class="edge">
<title>Node12&#45;&gt;Node1</title>
<path fill="none" stroke="#404040" d="M498.8919,-165.9634C498.8814,-150.8874 501.1796,-133.5419 509.5,-120 519.3416,-103.9823 534.4393,-91.1053 550.3601,-81.0138"/>
<polygon fill="none" stroke="#404040" points="550.5673,-80.8913 553.6935,-74.393 560.8943,-74.7795 557.7681,-81.2777 550.5673,-80.8913"/>
<text text-anchor="middle" x="558" y="-123" font-family="Helvetica,sans-Serif" font-size="10.00" fill="#000000"> +noteExpressionText</text>
</g>
</g>
</svg>
        <g id="navigator" transform="translate(0 0)" fill="#404254">
                <rect fill="#f2f5e9" fill-opacity="0.5" stroke="#606060" stroke-width=".5" x="0" y="0" width="60" height="60"/>
                <use id="zoomplus" xlink:href="#zoomPlus" x="17" y="9" onmousedown="handleZoom(evt,'in')"/>
                <use id="zoomminus" xlink:href="#zoomMin" x="42" y="9" onmousedown="handleZoom(evt,'out')"/>
                <use id="reset" xlink:href="#resetDef" x="30" y="36" onmousedown="handleReset()"/>
                <g id="arrowUp" xlink:href="#dirArrow" transform="translate(30 24)" onmousedown="handlePan(0,-1)">
                  <use xlink:href="#rim" fill="#404040">
                        <set attributeName="fill" to="#808080" begin="arrowUp.mouseover" end="arrowUp.mouseout"/>
                  </use>
                  <path fill="none" stroke="white" stroke-width="1.5" d="M0,-3.0v7 M-2.5,-0.5L0,-3.0L2.5,-0.5"/>
                </g>
                <g id="arrowRight" xlink:href="#dirArrow" transform="rotate(90) translate(36 -43)" onmousedown="handlePan(1,0)">
                  <use xlink:href="#rim" fill="#404040">
                        <set attributeName="fill" to="#808080" begin="arrowRight.mouseover" end="arrowRight.mouseout"/>
                  </use>
                  <path fill="none" stroke="white" stroke-width="1.5" d="M0,-3.0v7 M-2.5,-0.5L0,-3.0L2.5,-0.5"/>
                </g>
                <g id="arrowDown" xlink:href="#dirArrow" transform="rotate(180) translate(-30 -48)" onmousedown="handlePan(0,1)">
                  <use xlink:href="#rim" fill="#404040">
                        <set attributeName="fill" to="#808080" begin="arrowDown.mouseover" end="arrowDown.mouseout"/>
                  </use>
                  <path fill="none" stroke="white" stroke-width="1.5" d="M0,-3.0v7 M-2.5,-0.5L0,-3.0L2.5,-0.5"/>
                </g>
                <g id="arrowLeft" xlink:href="#dirArrow" transform="rotate(270) translate(-36 17)" onmousedown="handlePan(-1,0)">
                  <use xlink:href="#rim" fill="#404040">
                        <set attributeName="fill" to="#808080" begin="arrowLeft.mouseover" end="arrowLeft.mouseout"/>
                  </use>
                  <path fill="none" stroke="white" stroke-width="1.5" d="M0,-3.0v7 M-2.5,-0.5L0,-3.0L2.5,-0.5"/>
                </g>
        </g>
        <svg viewBox="0 0 15 15" width="100%" height="30px" preserveAspectRatio="xMaxYMin meet">
         <g id="arrow_out" transform="scale(0.3 0.3)">
          <a xlink:href="structmedimuse_1_1_maple_event__coll__graph_org.svg" target="_base">
           <rect id="button" ry="5" rx="5" y="6" x="6" height="38" width="38"
                fill="#f2f5e9" fill-opacity="0.5" stroke="#606060" stroke-width="1.0"/>
           <path id="arrow"
             d="M 11.500037,31.436501 C 11.940474,20.09759 22.043105,11.32322 32.158766,21.979434 L 37.068811,17.246167 C 37.068811,17.246167 37.088388,32 37.088388,32 L 22.160133,31.978069 C 22.160133,31.978069 26.997745,27.140456 26.997745,27.140456 C 18.528582,18.264221 13.291696,25.230495 11.500037,31.436501 z"
             style="fill:#404040;"/>
          </a>
         </g>
        </svg>
</svg>
