<?xml version="1.0" encoding="UTF-8" standalone="no"?>
<!DOCTYPE svg PUBLIC "-//W3C//DTD SVG 1.1//EN"
 "http://www.w3.org/Graphics/SVG/1.1/DTD/svg11.dtd">
<!-- Generated by graphviz version 2.40.1 (20161225.0304)
 -->
<!-- Title: medimuse::ProcessSlice Pages: 1 -->
<!--zoomable 847 -->
<svg id="main" version="1.1" xmlns="http://www.w3.org/2000/svg" xmlns:xlink="http://www.w3.org/1999/xlink" xml:space="preserve" onload="init(evt)">
<style type="text/css"><![CDATA[
.edge:hover path { stroke: red; }
.edge:hover polygon { stroke: red; fill: red; }
]]></style>
<script type="text/javascript"><![CDATA[
var edges = document.getElementsByTagName('g');
if (edges && edges.length) {
  for (var i=0;i<edges.length;i++) {
    if (edges[i].id.substr(0,4)=='edge') {
      edges[i].setAttribute('class','edge');
    }
  }
}
]]></script>
        <defs>
                <circle id="rim" cx="0" cy="0" r="7"/>
                <circle id="rim2" cx="0" cy="0" r="3.5"/>
                <g id="zoomPlus">
                        <use xlink:href="#rim" fill="#404040">
                                <set attributeName="fill" to="#808080" begin="zoomplus.mouseover" end="zoomplus.mouseout"/>
                        </use>
                        <path d="M-4,0h8M0,-4v8" fill="none" stroke="white" stroke-width="1.5" pointer-events="none"/>
                </g>
                <g id="zoomMin">
                        <use xlink:href="#rim" fill="#404040">
                                <set attributeName="fill" to="#808080" begin="zoomminus.mouseover" end="zoomminus.mouseout"/>
                        </use>
                        <path d="M-4,0h8" fill="none" stroke="white" stroke-width="1.5" pointer-events="none"/>
                </g>
                <g id="dirArrow">
                        <path fill="none" stroke="white" stroke-width="1.5" d="M0,-3.0v7 M-2.5,-0.5L0,-3.0L2.5,-0.5"/>
                </g>
               <g id="resetDef">
                       <use xlink:href="#rim2" fill="#404040">
                               <set attributeName="fill" to="#808080" begin="reset.mouseover" end="reset.mouseout"/>
                       </use>
               </g>
        </defs>

<script type="text/javascript">
var viewWidth = 1319;
var viewHeight = 847;
var sectionId = 'dynsection-0';
</script>
<script xlink:href="svgpan.js"/>
<svg id="graph" class="graph">
<g id="viewport">
<title>medimuse::ProcessSlice</title>
<polygon fill="#ffffff" stroke="transparent" points="-4,4 -4,-843 1314.5,-843 1314.5,4 -4,4"/>
<!-- Node1 -->
<g id="node1" class="node">
<title>Node1</title>
<polygon fill="#bfbfbf" stroke="#000000" points="432,-.5 432,-79.5 557,-79.5 557,-.5 432,-.5"/>
<text text-anchor="middle" x="494.5" y="-67.5" font-family="Helvetica,sans-Serif" font-size="10.00" fill="#000000">medimuse::ProcessSlice</text>
<polyline fill="none" stroke="#000000" points="432,-60.5 557,-60.5 "/>
<text text-anchor="start" x="440" y="-48.5" font-family="Helvetica,sans-Serif" font-size="10.00" fill="#000000">+ sample_size</text>
<text text-anchor="start" x="440" y="-37.5" font-family="Helvetica,sans-Serif" font-size="10.00" fill="#000000">+ input_bus_size</text>
<text text-anchor="start" x="440" y="-26.5" font-family="Helvetica,sans-Serif" font-size="10.00" fill="#000000">+ output_bus_size</text>
<polyline fill="none" stroke="#000000" points="432,-19.5 557,-19.5 "/>
<text text-anchor="middle" x="494.5" y="-7.5" font-family="Helvetica,sans-Serif" font-size="10.00" fill="#000000"> </text>
</g>
<!-- Node2 -->
<g id="node2" class="node">
<title>Node2</title>
<g id="a_node2"><a xlink:href="structmedimuse_1_1_maple_audio_buffer.html" target="_top" xlink:title="Audio buffer. ">
<polygon fill="#ffffff" stroke="#000000" points="390,-138.5 390,-228.5 535,-228.5 535,-138.5 390,-138.5"/>
<text text-anchor="middle" x="462.5" y="-216.5" font-family="Helvetica,sans-Serif" font-size="10.00" fill="#000000">medimuse::MapleAudioBuffer</text>
<polyline fill="none" stroke="#000000" points="390,-209.5 535,-209.5 "/>
<text text-anchor="start" x="398" y="-197.5" font-family="Helvetica,sans-Serif" font-size="10.00" fill="#000000">+ channel_size</text>
<text text-anchor="start" x="398" y="-186.5" font-family="Helvetica,sans-Serif" font-size="10.00" fill="#000000">+ float_channel_buffers</text>
<text text-anchor="start" x="398" y="-175.5" font-family="Helvetica,sans-Serif" font-size="10.00" fill="#000000">+ double_channel_buffers</text>
<text text-anchor="start" x="398" y="-164.5" font-family="Helvetica,sans-Serif" font-size="10.00" fill="#000000">+ @5</text>
<polyline fill="none" stroke="#000000" points="390,-157.5 535,-157.5 "/>
<text text-anchor="middle" x="462.5" y="-145.5" font-family="Helvetica,sans-Serif" font-size="10.00" fill="#000000"> </text>
</a>
</g>
</g>
<!-- Node2&#45;&gt;Node1 -->
<g id="edge1" class="edge">
<title>Node2&#45;&gt;Node1</title>
<path fill="none" stroke="#404040" d="M472.5372,-138.4894C475.8637,-123.5723 479.5914,-106.8558 483.018,-91.4897"/>
<polygon fill="none" stroke="#404040" points="483.0762,-91.2284 480.478,-84.5016 485.688,-79.5161 488.2862,-86.2429 483.0762,-91.2284"/>
<text text-anchor="middle" x="502.5" y="-112" font-family="Helvetica,sans-Serif" font-size="10.00" fill="#000000"> +outputs</text>
<text text-anchor="middle" x="502.5" y="-101" font-family="Helvetica,sans-Serif" font-size="10.00" fill="#000000">+inputs</text>
</g>
<!-- Node3 -->
<g id="node3" class="node">
<title>Node3</title>
<g id="a_node3"><a xlink:href="structmedimuse_1_1_maple_event_list.html" target="_top" xlink:title="Event list structure. ">
<polygon fill="#ffffff" stroke="#000000" points="553,-155 553,-212 688,-212 688,-155 553,-155"/>
<text text-anchor="middle" x="620.5" y="-200" font-family="Helvetica,sans-Serif" font-size="10.00" fill="#000000">medimuse::MapleEventList</text>
<polyline fill="none" stroke="#000000" points="553,-193 688,-193 "/>
<text text-anchor="start" x="561" y="-181" font-family="Helvetica,sans-Serif" font-size="10.00" fill="#000000">+ eventCount</text>
<polyline fill="none" stroke="#000000" points="553,-174 688,-174 "/>
<text text-anchor="middle" x="620.5" y="-162" font-family="Helvetica,sans-Serif" font-size="10.00" fill="#000000"> </text>
</a>
</g>
</g>
<!-- Node3&#45;&gt;Node1 -->
<g id="edge2" class="edge">
<title>Node3&#45;&gt;Node1</title>
<path fill="none" stroke="#404040" d="M595.3049,-154.8055C578.7153,-135.9118 556.5757,-110.6974 537.2712,-88.7116"/>
<polygon fill="none" stroke="#404040" points="537.1134,-88.5319 530.1488,-86.6625 529.1958,-79.5146 536.1604,-81.3841 537.1134,-88.5319"/>
<text text-anchor="middle" x="595" y="-112" font-family="Helvetica,sans-Serif" font-size="10.00" fill="#000000"> +outputEvents</text>
<text text-anchor="middle" x="595" y="-101" font-family="Helvetica,sans-Serif" font-size="10.00" fill="#000000">+inputEvents</text>
</g>
<!-- Node4 -->
<g id="node4" class="node">
<title>Node4</title>
<g id="a_node4"><a xlink:href="structmedimuse_1_1_maple_event.html" target="_top" xlink:title="Event structure. ">
<polygon fill="#ffffff" stroke="#000000" points="561,-276.5 561,-377.5 680,-377.5 680,-276.5 561,-276.5"/>
<text text-anchor="middle" x="620.5" y="-365.5" font-family="Helvetica,sans-Serif" font-size="10.00" fill="#000000">medimuse::MapleEvent</text>
<polyline fill="none" stroke="#000000" points="561,-358.5 680,-358.5 "/>
<text text-anchor="start" x="569" y="-346.5" font-family="Helvetica,sans-Serif" font-size="10.00" fill="#000000">+ busIndex</text>
<text text-anchor="start" x="569" y="-335.5" font-family="Helvetica,sans-Serif" font-size="10.00" fill="#000000">+ sampleOffset</text>
<text text-anchor="start" x="569" y="-324.5" font-family="Helvetica,sans-Serif" font-size="10.00" fill="#000000">+ ppqPosition</text>
<text text-anchor="start" x="569" y="-313.5" font-family="Helvetica,sans-Serif" font-size="10.00" fill="#000000">+ eventType</text>
<text text-anchor="start" x="569" y="-302.5" font-family="Helvetica,sans-Serif" font-size="10.00" fill="#000000">+ event</text>
<polyline fill="none" stroke="#000000" points="561,-295.5 680,-295.5 "/>
<text text-anchor="middle" x="620.5" y="-283.5" font-family="Helvetica,sans-Serif" font-size="10.00" fill="#000000"> </text>
</a>
</g>
</g>
<!-- Node4&#45;&gt;Node3 -->
<g id="edge3" class="edge">
<title>Node4&#45;&gt;Node3</title>
<path fill="none" stroke="#404040" d="M620.5,-276.4073C620.5,-259.4707 620.5,-240.8068 620.5,-224.6781"/>
<polygon fill="none" stroke="#404040" points="620.5001,-224.3681 616.5,-218.3681 620.5,-212.3681 624.5,-218.3681 620.5001,-224.3681"/>
<text text-anchor="middle" x="640" y="-250" font-family="Helvetica,sans-Serif" font-size="10.00" fill="#000000"> +events</text>
</g>
<!-- Node5 -->
<g id="node5" class="node">
<title>Node5</title>
<g id="a_node5"><a xlink:href="structmedimuse_1_1_maple_note_on_event.html" target="_top" xlink:title="Note&#45;on event specific data. ">
<polygon fill="#ffffff" stroke="#000000" points="0,-551 0,-608 153,-608 153,-551 0,-551"/>
<text text-anchor="middle" x="76.5" y="-596" font-family="Helvetica,sans-Serif" font-size="10.00" fill="#000000">medimuse::MapleNoteOnEvent</text>
<polyline fill="none" stroke="#000000" points="0,-589 153,-589 "/>
<text text-anchor="middle" x="76.5" y="-577" font-family="Helvetica,sans-Serif" font-size="10.00" fill="#000000"> </text>
<polyline fill="none" stroke="#000000" points="0,-570 153,-570 "/>
<text text-anchor="middle" x="76.5" y="-558" font-family="Helvetica,sans-Serif" font-size="10.00" fill="#000000"> </text>
</a>
</g>
</g>
<!-- Node5&#45;&gt;Node4 -->
<g id="edge4" class="edge">
<title>Node5&#45;&gt;Node4</title>
<path fill="none" stroke="#404040" d="M72.5931,-550.9326C69.612,-516.9961 70.1113,-460.5197 99.5,-425 155.699,-357.0767 419.5404,-335.9318 548.787,-329.5908"/>
<polygon fill="none" stroke="#404040" points="548.8764,-329.5867 554.6816,-325.3089 560.8631,-329.0223 555.0579,-333.3 548.8764,-329.5867"/>
<text text-anchor="middle" x="120" y="-473.5" font-family="Helvetica,sans-Serif" font-size="10.00" fill="#000000"> +noteOn</text>
</g>
<!-- Node6 -->
<g id="node6" class="node">
<title>Node6</title>
<g id="a_node6"><a xlink:href="structmedimuse_1_1_maple_midi_note_event.html" target="_top" xlink:title="{medimuse::MapleMidiNoteEvent\n|+ channel\l+ pitch\l+ tuning\l+ velocity\l|}">
<polygon fill="#ffffff" stroke="#000000" points="180.5,-748.5 180.5,-838.5 338.5,-838.5 338.5,-748.5 180.5,-748.5"/>
<text text-anchor="middle" x="259.5" y="-826.5" font-family="Helvetica,sans-Serif" font-size="10.00" fill="#000000">medimuse::MapleMidiNoteEvent</text>
<polyline fill="none" stroke="#000000" points="180.5,-819.5 338.5,-819.5 "/>
<text text-anchor="start" x="188.5" y="-807.5" font-family="Helvetica,sans-Serif" font-size="10.00" fill="#000000">+ channel</text>
<text text-anchor="start" x="188.5" y="-796.5" font-family="Helvetica,sans-Serif" font-size="10.00" fill="#000000">+ pitch</text>
<text text-anchor="start" x="188.5" y="-785.5" font-family="Helvetica,sans-Serif" font-size="10.00" fill="#000000">+ tuning</text>
<text text-anchor="start" x="188.5" y="-774.5" font-family="Helvetica,sans-Serif" font-size="10.00" fill="#000000">+ velocity</text>
<polyline fill="none" stroke="#000000" points="180.5,-767.5 338.5,-767.5 "/>
<text text-anchor="middle" x="259.5" y="-755.5" font-family="Helvetica,sans-Serif" font-size="10.00" fill="#000000"> </text>
</a>
</g>
</g>
<!-- Node6&#45;&gt;Node5 -->
<g id="edge5" class="edge">
<title>Node6&#45;&gt;Node5</title>
<path fill="none" stroke="#404040" d="M220.914,-748.3776C187.7038,-709.5416 140.3242,-654.136 109.0107,-617.518"/>
<polygon fill="none" stroke="#404040" points="108.8215,-617.2967 101.882,-615.3364 101.0225,-608.1766 107.9621,-610.137 108.8215,-617.2967"/>
<text text-anchor="middle" x="217.5" y="-722" font-family="Helvetica,sans-Serif" font-size="10.00" fill="#000000"> +note</text>
</g>
<!-- Node8 -->
<g id="node8" class="node">
<title>Node8</title>
<g id="a_node8"><a xlink:href="structmedimuse_1_1_maple_poly_pressure_event.html" target="_top" xlink:title="PolyPressure event specific data. ">
<polygon fill="#ffffff" stroke="#000000" points="158.5,-545.5 158.5,-613.5 310.5,-613.5 310.5,-545.5 158.5,-545.5"/>
<text text-anchor="start" x="166.5" y="-601.5" font-family="Helvetica,sans-Serif" font-size="10.00" fill="#000000">medimuse::MaplePolyPressure</text>
<text text-anchor="middle" x="234.5" y="-590.5" font-family="Helvetica,sans-Serif" font-size="10.00" fill="#000000">Event</text>
<polyline fill="none" stroke="#000000" points="158.5,-583.5 310.5,-583.5 "/>
<text text-anchor="middle" x="234.5" y="-571.5" font-family="Helvetica,sans-Serif" font-size="10.00" fill="#000000"> </text>
<polyline fill="none" stroke="#000000" points="158.5,-564.5 310.5,-564.5 "/>
<text text-anchor="middle" x="234.5" y="-552.5" font-family="Helvetica,sans-Serif" font-size="10.00" fill="#000000"> </text>
</a>
</g>
</g>
<!-- Node6&#45;&gt;Node8 -->
<g id="edge8" class="edge">
<title>Node6&#45;&gt;Node8</title>
<path fill="none" stroke="#404040" d="M254.2287,-748.3776C250.0255,-712.398 244.1608,-662.1964 239.9192,-625.8885"/>
<polygon fill="none" stroke="#404040" points="239.8845,-625.5904 235.2153,-620.0951 238.492,-613.6715 243.1612,-619.1668 239.8845,-625.5904"/>
<text text-anchor="middle" x="266.5" y="-722" font-family="Helvetica,sans-Serif" font-size="10.00" fill="#000000"> +note</text>
</g>
<!-- Node12 -->
<g id="node12" class="node">
<title>Node12</title>
<g id="a_node12"><a xlink:href="structmedimuse_1_1_maple_expressive_event.html" target="_top" xlink:title="Expressive event for note. ">
<polygon fill="#ffffff" stroke="#000000" points="263,-632.5 263,-700.5 406,-700.5 406,-632.5 263,-632.5"/>
<text text-anchor="start" x="271" y="-688.5" font-family="Helvetica,sans-Serif" font-size="10.00" fill="#000000">medimuse::MapleExpressive</text>
<text text-anchor="middle" x="334.5" y="-677.5" font-family="Helvetica,sans-Serif" font-size="10.00" fill="#000000">Event</text>
<polyline fill="none" stroke="#000000" points="263,-670.5 406,-670.5 "/>
<text text-anchor="start" x="271" y="-658.5" font-family="Helvetica,sans-Serif" font-size="10.00" fill="#000000">+ expression_type</text>
<polyline fill="none" stroke="#000000" points="263,-651.5 406,-651.5 "/>
<text text-anchor="middle" x="334.5" y="-639.5" font-family="Helvetica,sans-Serif" font-size="10.00" fill="#000000"> </text>
</a>
</g>
</g>
<!-- Node6&#45;&gt;Node12 -->
<g id="edge13" class="edge">
<title>Node6&#45;&gt;Node12</title>
<path fill="none" stroke="#404040" d="M286.1534,-748.367C293.2452,-736.3581 300.9034,-723.3903 307.9877,-711.3942"/>
<polygon fill="none" stroke="#404040" points="308.1976,-711.0387 307.8044,-703.8383 314.2996,-700.706 314.6929,-707.9064 308.1976,-711.0387"/>
<text text-anchor="middle" x="315.5" y="-722" font-family="Helvetica,sans-Serif" font-size="10.00" fill="#000000"> +note</text>
</g>
<!-- Node14 -->
<g id="node14" class="node">
<title>Node14</title>
<g id="a_node14"><a xlink:href="structmedimuse_1_1_maple_note_off_event.html" target="_top" xlink:title="Note&#45;off event specific data. ">
<polygon fill="#ffffff" stroke="#000000" points="483.5,-638 483.5,-695 637.5,-695 637.5,-638 483.5,-638"/>
<text text-anchor="middle" x="560.5" y="-683" font-family="Helvetica,sans-Serif" font-size="10.00" fill="#000000">medimuse::MapleNoteOffEvent</text>
<polyline fill="none" stroke="#000000" points="483.5,-676 637.5,-676 "/>
<text text-anchor="middle" x="560.5" y="-664" font-family="Helvetica,sans-Serif" font-size="10.00" fill="#000000"> </text>
<polyline fill="none" stroke="#000000" points="483.5,-657 637.5,-657 "/>
<text text-anchor="middle" x="560.5" y="-645" font-family="Helvetica,sans-Serif" font-size="10.00" fill="#000000"> </text>
</a>
</g>
</g>
<!-- Node6&#45;&gt;Node14 -->
<g id="edge16" class="edge">
<title>Node6&#45;&gt;Node14</title>
<path fill="none" stroke="#404040" d="M338.5842,-760.1322C382.6485,-741.5403 437.3456,-718.4621 481.4107,-699.8699"/>
<polygon fill="none" stroke="#404040" points="481.6063,-699.7874 485.5794,-693.7696 492.6624,-695.1225 488.6893,-701.1404 481.6063,-699.7874"/>
<text text-anchor="middle" x="442.5" y="-722" font-family="Helvetica,sans-Serif" font-size="10.00" fill="#000000"> +note</text>
</g>
<!-- Node7 -->
<g id="node7" class="node">
<title>Node7</title>
<g id="a_node7"><a xlink:href="structmedimuse_1_1_maple_m_i_d_i_c_c_out_event.html" target="_top" xlink:title="Legacy MIDI CC Out event specific data. ">
<polygon fill="#ffffff" stroke="#000000" points="680.5,-425.5 680.5,-526.5 826.5,-526.5 826.5,-425.5 680.5,-425.5"/>
<text text-anchor="start" x="688.5" y="-514.5" font-family="Helvetica,sans-Serif" font-size="10.00" fill="#000000">medimuse::MapleMIDICCOut</text>
<text text-anchor="middle" x="753.5" y="-503.5" font-family="Helvetica,sans-Serif" font-size="10.00" fill="#000000">Event</text>
<polyline fill="none" stroke="#000000" points="680.5,-496.5 826.5,-496.5 "/>
<text text-anchor="start" x="688.5" y="-484.5" font-family="Helvetica,sans-Serif" font-size="10.00" fill="#000000">+ controlNumber</text>
<text text-anchor="start" x="688.5" y="-473.5" font-family="Helvetica,sans-Serif" font-size="10.00" fill="#000000">+ channel</text>
<text text-anchor="start" x="688.5" y="-462.5" font-family="Helvetica,sans-Serif" font-size="10.00" fill="#000000">+ value</text>
<text text-anchor="start" x="688.5" y="-451.5" font-family="Helvetica,sans-Serif" font-size="10.00" fill="#000000">+ value2</text>
<polyline fill="none" stroke="#000000" points="680.5,-444.5 826.5,-444.5 "/>
<text text-anchor="middle" x="753.5" y="-432.5" font-family="Helvetica,sans-Serif" font-size="10.00" fill="#000000"> </text>
</a>
</g>
</g>
<!-- Node7&#45;&gt;Node4 -->
<g id="edge6" class="edge">
<title>Node7&#45;&gt;Node4</title>
<path fill="none" stroke="#404040" d="M708.1009,-425.1394C697.08,-412.7927 685.1965,-399.4796 673.8456,-386.7631"/>
<polygon fill="none" stroke="#404040" points="673.6855,-386.5837 666.7059,-384.7712 665.6945,-377.6314 672.6741,-379.4439 673.6855,-386.5837"/>
<text text-anchor="middle" x="720.5" y="-399" font-family="Helvetica,sans-Serif" font-size="10.00" fill="#000000"> +midiCCOut</text>
</g>
<!-- Node8&#45;&gt;Node4 -->
<g id="edge7" class="edge">
<title>Node8&#45;&gt;Node4</title>
<path fill="none" stroke="#404040" d="M176.1425,-545.2878C170.6939,-539.8509 165.9356,-533.7571 162.5,-527 141.9537,-486.5901 133.9947,-460.2499 162.5,-425 210.2288,-365.9781 431.9328,-340.9218 548.4716,-331.6811"/>
<polygon fill="none" stroke="#404040" points="548.8138,-331.6548 554.4888,-327.2058 560.7783,-330.7331 555.1033,-335.1822 548.8138,-331.6548"/>
<text text-anchor="middle" x="196" y="-473.5" font-family="Helvetica,sans-Serif" font-size="10.00" fill="#000000"> +polyPressure</text>
</g>
<!-- Node9 -->
<g id="node9" class="node">
<title>Node9</title>
<g id="a_node9"><a xlink:href="structmedimuse_1_1_maple_data_event.html" target="_top" xlink:title="Data event specific data. Used in MapleEvent (union)*/. ">
<polygon fill="#ffffff" stroke="#000000" points="844.5,-431 844.5,-521 984.5,-521 984.5,-431 844.5,-431"/>
<text text-anchor="middle" x="914.5" y="-509" font-family="Helvetica,sans-Serif" font-size="10.00" fill="#000000">medimuse::MapleDataEvent</text>
<polyline fill="none" stroke="#000000" points="844.5,-502 984.5,-502 "/>
<text text-anchor="start" x="852.5" y="-490" font-family="Helvetica,sans-Serif" font-size="10.00" fill="#000000">+ size</text>
<text text-anchor="start" x="852.5" y="-479" font-family="Helvetica,sans-Serif" font-size="10.00" fill="#000000">+ type</text>
<text text-anchor="start" x="852.5" y="-468" font-family="Helvetica,sans-Serif" font-size="10.00" fill="#000000">+ bytes</text>
<text text-anchor="start" x="852.5" y="-457" font-family="Helvetica,sans-Serif" font-size="10.00" fill="#000000">+ dt</text>
<polyline fill="none" stroke="#000000" points="844.5,-450 984.5,-450 "/>
<text text-anchor="middle" x="914.5" y="-438" font-family="Helvetica,sans-Serif" font-size="10.00" fill="#000000"> </text>
</a>
</g>
</g>
<!-- Node9&#45;&gt;Node4 -->
<g id="edge9" class="edge">
<title>Node9&#45;&gt;Node4</title>
<path fill="none" stroke="#404040" d="M845.9223,-430.8927C842.4248,-428.8557 838.9375,-426.88 835.5,-425 788.5862,-399.3424 733.705,-374.4053 691.1335,-356.1072"/>
<polygon fill="none" stroke="#404040" points="691.0657,-356.0783 683.9768,-357.4003 680.0301,-351.3651 687.119,-350.0431 691.0657,-356.0783"/>
<text text-anchor="middle" x="808.5" y="-399" font-family="Helvetica,sans-Serif" font-size="10.00" fill="#000000"> +data</text>
</g>
<!-- Node10 -->
<g id="node10" class="node">
<title>Node10</title>
<g id="a_node10"><a xlink:href="structmedimuse_1_1_maple_scale_event.html" target="_top" xlink:title="Scale event specific data. ">
<polygon fill="#ffffff" stroke="#000000" points="1002.5,-431 1002.5,-521 1146.5,-521 1146.5,-431 1002.5,-431"/>
<text text-anchor="middle" x="1074.5" y="-509" font-family="Helvetica,sans-Serif" font-size="10.00" fill="#000000">medimuse::MapleScaleEvent</text>
<polyline fill="none" stroke="#000000" points="1002.5,-502 1146.5,-502 "/>
<text text-anchor="start" x="1010.5" y="-490" font-family="Helvetica,sans-Serif" font-size="10.00" fill="#000000">+ root</text>
<text text-anchor="start" x="1010.5" y="-479" font-family="Helvetica,sans-Serif" font-size="10.00" fill="#000000">+ mask</text>
<text text-anchor="start" x="1010.5" y="-468" font-family="Helvetica,sans-Serif" font-size="10.00" fill="#000000">+ textLen</text>
<text text-anchor="start" x="1010.5" y="-457" font-family="Helvetica,sans-Serif" font-size="10.00" fill="#000000">+ text</text>
<polyline fill="none" stroke="#000000" points="1002.5,-450 1146.5,-450 "/>
<text text-anchor="middle" x="1074.5" y="-438" font-family="Helvetica,sans-Serif" font-size="10.00" fill="#000000"> </text>
</a>
</g>
</g>
<!-- Node10&#45;&gt;Node4 -->
<g id="edge10" class="edge">
<title>Node10&#45;&gt;Node4</title>
<path fill="none" stroke="#404040" d="M1005.8936,-430.8699C1001.7647,-428.7628 997.616,-426.7861 993.5,-425 893.075,-381.4208 768.7767,-353.5324 692.0651,-339.0686"/>
<polygon fill="none" stroke="#404040" points="691.9715,-339.0513 685.3425,-341.8896 680.1729,-336.8622 686.8019,-334.0239 691.9715,-339.0513"/>
<text text-anchor="middle" x="961" y="-399" font-family="Helvetica,sans-Serif" font-size="10.00" fill="#000000"> +scale</text>
</g>
<!-- Node11 -->
<g id="node11" class="node">
<title>Node11</title>
<g id="a_node11"><a xlink:href="structmedimuse_1_1_maple_note_expression_value_event.html" target="_top" xlink:title="Expression value event for note. ">
<polygon fill="#ffffff" stroke="#000000" points="238.5,-442 238.5,-510 402.5,-510 402.5,-442 238.5,-442"/>
<text text-anchor="start" x="246.5" y="-498" font-family="Helvetica,sans-Serif" font-size="10.00" fill="#000000">medimuse::MapleNoteExpression</text>
<text text-anchor="middle" x="320.5" y="-487" font-family="Helvetica,sans-Serif" font-size="10.00" fill="#000000">ValueEvent</text>
<polyline fill="none" stroke="#000000" points="238.5,-480 402.5,-480 "/>
<text text-anchor="middle" x="320.5" y="-468" font-family="Helvetica,sans-Serif" font-size="10.00" fill="#000000"> </text>
<polyline fill="none" stroke="#000000" points="238.5,-461 402.5,-461 "/>
<text text-anchor="middle" x="320.5" y="-449" font-family="Helvetica,sans-Serif" font-size="10.00" fill="#000000"> </text>
</a>
</g>
</g>
<!-- Node11&#45;&gt;Node4 -->
<g id="edge11" class="edge">
<title>Node11&#45;&gt;Node4</title>
<path fill="none" stroke="#404040" d="M347.4716,-441.7686C361.5083,-425.9164 379.8297,-407.9832 399.5,-396 445.5055,-367.9734 503.9129,-350.3806 549.1273,-339.9784"/>
<polygon fill="none" stroke="#404040" points="549.1999,-339.9623 554.1895,-334.7562 560.9143,-337.3596 555.9246,-342.5658 549.1999,-339.9623"/>
<text text-anchor="middle" x="450.5" y="-399" font-family="Helvetica,sans-Serif" font-size="10.00" fill="#000000"> +noteExpressionValue</text>
</g>
<!-- Node12&#45;&gt;Node11 -->
<g id="edge12" class="edge">
<title>Node12&#45;&gt;Node11</title>
<path fill="none" stroke="#404040" d="M331.9971,-632.4424C329.7445,-601.7906 326.4143,-556.4774 323.9171,-522.4974"/>
<polygon fill="none" stroke="#404040" points="323.8844,-522.0511 319.4554,-516.3604 323.0048,-510.0833 327.4339,-515.774 323.8844,-522.0511"/>
<text text-anchor="middle" x="369" y="-577" font-family="Helvetica,sans-Serif" font-size="10.00" fill="#000000"> +noteExpression</text>
</g>
<!-- Node15 -->
<g id="node15" class="node">
<title>Node15</title>
<g id="a_node15"><a xlink:href="structmedimuse_1_1_maple_note_expression_text_event.html" target="_top" xlink:title="{medimuse::MapleNoteExpression\lTextEvent\n||}">
<polygon fill="#ffffff" stroke="#000000" points="420.5,-442 420.5,-510 584.5,-510 584.5,-442 420.5,-442"/>
<text text-anchor="start" x="428.5" y="-498" font-family="Helvetica,sans-Serif" font-size="10.00" fill="#000000">medimuse::MapleNoteExpression</text>
<text text-anchor="middle" x="502.5" y="-487" font-family="Helvetica,sans-Serif" font-size="10.00" fill="#000000">TextEvent</text>
<polyline fill="none" stroke="#000000" points="420.5,-480 584.5,-480 "/>
<text text-anchor="middle" x="502.5" y="-468" font-family="Helvetica,sans-Serif" font-size="10.00" fill="#000000"> </text>
<polyline fill="none" stroke="#000000" points="420.5,-461 584.5,-461 "/>
<text text-anchor="middle" x="502.5" y="-449" font-family="Helvetica,sans-Serif" font-size="10.00" fill="#000000"> </text>
</a>
</g>
</g>
<!-- Node12&#45;&gt;Node15 -->
<g id="edge18" class="edge">
<title>Node12&#45;&gt;Node15</title>
<path fill="none" stroke="#404040" d="M390.418,-632.259C397.8824,-626.5999 405.1429,-620.4561 411.5,-614 438.7281,-586.3479 462.5819,-549.4043 479.029,-520.7004"/>
<polygon fill="none" stroke="#404040" points="479.0844,-520.6018 478.5355,-513.4116 484.9615,-510.1394 485.5104,-517.3296 479.0844,-520.6018"/>
<text text-anchor="middle" x="503" y="-577" font-family="Helvetica,sans-Serif" font-size="10.00" fill="#000000"> +noteExpression</text>
</g>
<!-- Node13 -->
<g id="node13" class="node">
<title>Node13</title>
<g id="a_node13"><a xlink:href="structmedimuse_1_1_maple_chord_event.html" target="_top" xlink:title="Chord event specific data. ">
<polygon fill="#ffffff" stroke="#000000" points="1164.5,-425.5 1164.5,-526.5 1310.5,-526.5 1310.5,-425.5 1164.5,-425.5"/>
<text text-anchor="middle" x="1237.5" y="-514.5" font-family="Helvetica,sans-Serif" font-size="10.00" fill="#000000">medimuse::MapleChordEvent</text>
<polyline fill="none" stroke="#000000" points="1164.5,-507.5 1310.5,-507.5 "/>
<text text-anchor="start" x="1172.5" y="-495.5" font-family="Helvetica,sans-Serif" font-size="10.00" fill="#000000">+ root</text>
<text text-anchor="start" x="1172.5" y="-484.5" font-family="Helvetica,sans-Serif" font-size="10.00" fill="#000000">+ bassNote</text>
<text text-anchor="start" x="1172.5" y="-473.5" font-family="Helvetica,sans-Serif" font-size="10.00" fill="#000000">+ mask</text>
<text text-anchor="start" x="1172.5" y="-462.5" font-family="Helvetica,sans-Serif" font-size="10.00" fill="#000000">+ textLen</text>
<text text-anchor="start" x="1172.5" y="-451.5" font-family="Helvetica,sans-Serif" font-size="10.00" fill="#000000">+ text</text>
<polyline fill="none" stroke="#000000" points="1164.5,-444.5 1310.5,-444.5 "/>
<text text-anchor="middle" x="1237.5" y="-432.5" font-family="Helvetica,sans-Serif" font-size="10.00" fill="#000000"> </text>
</a>
</g>
</g>
<!-- Node13&#45;&gt;Node4 -->
<g id="edge14" class="edge">
<title>Node13&#45;&gt;Node4</title>
<path fill="none" stroke="#404040" d="M1164.4275,-428.7535C1161.453,-427.407 1158.4712,-426.1483 1155.5,-425 997.0661,-363.7704 797.1415,-340.2025 692.2541,-331.6004"/>
<polygon fill="none" stroke="#404040" points="692.2132,-331.5973 685.9155,-335.1099 680.2508,-330.6476 686.5486,-327.135 692.2132,-331.5973"/>
<text text-anchor="middle" x="1116.5" y="-399" font-family="Helvetica,sans-Serif" font-size="10.00" fill="#000000"> +chord</text>
</g>
<!-- Node14&#45;&gt;Node4 -->
<g id="edge15" class="edge">
<title>Node14&#45;&gt;Node4</title>
<path fill="none" stroke="#404040" d="M568.1554,-637.8203C575.4439,-609.7401 586.335,-565.6634 593.5,-527 601.9579,-481.36 608.8926,-429.3964 613.6156,-389.8766"/>
<polygon fill="none" stroke="#404040" points="613.6377,-389.6875 610.3663,-383.2612 615.04,-377.7697 618.3115,-384.196 613.6377,-389.6875"/>
<text text-anchor="middle" x="630.5" y="-473.5" font-family="Helvetica,sans-Serif" font-size="10.00" fill="#000000"> +noteOff</text>
</g>
<!-- Node15&#45;&gt;Node4 -->
<g id="edge17" class="edge">
<title>Node15&#45;&gt;Node4</title>
<path fill="none" stroke="#404040" d="M498.8919,-441.9634C498.8814,-426.8874 501.1796,-409.5419 509.5,-396 519.3416,-379.9823 534.4393,-367.1053 550.3601,-357.0138"/>
<polygon fill="none" stroke="#404040" points="550.5673,-356.8913 553.6935,-350.393 560.8943,-350.7795 557.7681,-357.2777 550.5673,-356.8913"/>
<text text-anchor="middle" x="558" y="-399" font-family="Helvetica,sans-Serif" font-size="10.00" fill="#000000"> +noteExpressionText</text>
</g>
</g>
</svg>
        <g id="navigator" transform="translate(0 0)" fill="#404254">
                <rect fill="#f2f5e9" fill-opacity="0.5" stroke="#606060" stroke-width=".5" x="0" y="0" width="60" height="60"/>
                <use id="zoomplus" xlink:href="#zoomPlus" x="17" y="9" onmousedown="handleZoom(evt,'in')"/>
                <use id="zoomminus" xlink:href="#zoomMin" x="42" y="9" onmousedown="handleZoom(evt,'out')"/>
                <use id="reset" xlink:href="#resetDef" x="30" y="36" onmousedown="handleReset()"/>
                <g id="arrowUp" xlink:href="#dirArrow" transform="translate(30 24)" onmousedown="handlePan(0,-1)">
                  <use xlink:href="#rim" fill="#404040">
                        <set attributeName="fill" to="#808080" begin="arrowUp.mouseover" end="arrowUp.mouseout"/>
                  </use>
                  <path fill="none" stroke="white" stroke-width="1.5" d="M0,-3.0v7 M-2.5,-0.5L0,-3.0L2.5,-0.5"/>
                </g>
                <g id="arrowRight" xlink:href="#dirArrow" transform="rotate(90) translate(36 -43)" onmousedown="handlePan(1,0)">
                  <use xlink:href="#rim" fill="#404040">
                        <set attributeName="fill" to="#808080" begin="arrowRight.mouseover" end="arrowRight.mouseout"/>
                  </use>
                  <path fill="none" stroke="white" stroke-width="1.5" d="M0,-3.0v7 M-2.5,-0.5L0,-3.0L2.5,-0.5"/>
                </g>
                <g id="arrowDown" xlink:href="#dirArrow" transform="rotate(180) translate(-30 -48)" onmousedown="handlePan(0,1)">
                  <use xlink:href="#rim" fill="#404040">
                        <set attributeName="fill" to="#808080" begin="arrowDown.mouseover" end="arrowDown.mouseout"/>
                  </use>
                  <path fill="none" stroke="white" stroke-width="1.5" d="M0,-3.0v7 M-2.5,-0.5L0,-3.0L2.5,-0.5"/>
                </g>
                <g id="arrowLeft" xlink:href="#dirArrow" transform="rotate(270) translate(-36 17)" onmousedown="handlePan(-1,0)">
                  <use xlink:href="#rim" fill="#404040">
                        <set attributeName="fill" to="#808080" begin="arrowLeft.mouseover" end="arrowLeft.mouseout"/>
                  </use>
                  <path fill="none" stroke="white" stroke-width="1.5" d="M0,-3.0v7 M-2.5,-0.5L0,-3.0L2.5,-0.5"/>
                </g>
        </g>
        <svg viewBox="0 0 15 15" width="100%" height="30px" preserveAspectRatio="xMaxYMin meet">
         <g id="arrow_out" transform="scale(0.3 0.3)">
          <a xlink:href="structmedimuse_1_1_process_slice__coll__graph_org.svg" target="_base">
           <rect id="button" ry="5" rx="5" y="6" x="6" height="38" width="38"
                fill="#f2f5e9" fill-opacity="0.5" stroke="#606060" stroke-width="1.0"/>
           <path id="arrow"
             d="M 11.500037,31.436501 C 11.940474,20.09759 22.043105,11.32322 32.158766,21.979434 L 37.068811,17.246167 C 37.068811,17.246167 37.088388,32 37.088388,32 L 22.160133,31.978069 C 22.160133,31.978069 26.997745,27.140456 26.997745,27.140456 C 18.528582,18.264221 13.291696,25.230495 11.500037,31.436501 z"
             style="fill:#404040;"/>
          </a>
         </g>
        </svg>
</svg>
