<?xml version="1.0" encoding="UTF-8" standalone="no"?>
<!DOCTYPE svg PUBLIC "-//W3C//DTD SVG 1.1//EN"
 "http://www.w3.org/Graphics/SVG/1.1/DTD/svg11.dtd">
<!-- Generated by graphviz version 2.40.1 (20161225.0304)
 -->
<!-- Title: MapleExpressiveEvent Pages: 1 -->
<svg width="125pt" height="204pt"
 viewBox="0.00 0.00 125.00 204.00" xmlns="http://www.w3.org/2000/svg" xmlns:xlink="http://www.w3.org/1999/xlink">
<g id="graph0" class="graph" transform="scale(1 1) rotate(0) translate(4 200)">
<title>MapleExpressiveEvent</title>
<polygon fill="#ffffff" stroke="transparent" points="-4,4 -4,-200 121,-200 121,4 -4,4"/>
<!-- Node1 -->
<g id="node1" class="node">
<title>Node1</title>
<polygon fill="#bfbfbf" stroke="#000000" points="0,-.5 0,-57.5 117,-57.5 117,-.5 0,-.5"/>
<text text-anchor="middle" x="58.5" y="-45.5" font-family="Helvetica,sans-Serif" font-size="10.00" fill="#000000">MapleExpressiveEvent</text>
<polyline fill="none" stroke="#000000" points="0,-38.5 117,-38.5 "/>
<text text-anchor="start" x="8" y="-26.5" font-family="Helvetica,sans-Serif" font-size="10.00" fill="#000000">+ expression_type</text>
<polyline fill="none" stroke="#000000" points="0,-19.5 117,-19.5 "/>
<text text-anchor="middle" x="58.5" y="-7.5" font-family="Helvetica,sans-Serif" font-size="10.00" fill="#000000"> </text>
</g>
<!-- Node2 -->
<g id="node2" class="node">
<title>Node2</title>
<g id="a_node2"><a xlink:href="struct_maple_midi_note_event.html" target="_top" xlink:title="{MapleMidiNoteEvent\n|+ channel\l+ pitch\l+ tuning\l+ velocity\l|}">
<polygon fill="#ffffff" stroke="#000000" points="5,-105.5 5,-195.5 112,-195.5 112,-105.5 5,-105.5"/>
<text text-anchor="middle" x="58.5" y="-183.5" font-family="Helvetica,sans-Serif" font-size="10.00" fill="#000000">MapleMidiNoteEvent</text>
<polyline fill="none" stroke="#000000" points="5,-176.5 112,-176.5 "/>
<text text-anchor="start" x="13" y="-164.5" font-family="Helvetica,sans-Serif" font-size="10.00" fill="#000000">+ channel</text>
<text text-anchor="start" x="13" y="-153.5" font-family="Helvetica,sans-Serif" font-size="10.00" fill="#000000">+ pitch</text>
<text text-anchor="start" x="13" y="-142.5" font-family="Helvetica,sans-Serif" font-size="10.00" fill="#000000">+ tuning</text>
<text text-anchor="start" x="13" y="-131.5" font-family="Helvetica,sans-Serif" font-size="10.00" fill="#000000">+ velocity</text>
<polyline fill="none" stroke="#000000" points="5,-124.5 112,-124.5 "/>
<text text-anchor="middle" x="58.5" y="-112.5" font-family="Helvetica,sans-Serif" font-size="10.00" fill="#000000"> </text>
</a>
</g>
</g>
<!-- Node2&#45;&gt;Node1 -->
<g id="edge1" class="edge">
<title>Node2&#45;&gt;Node1</title>
<path fill="none" stroke="#404040" d="M58.5,-105.2579C58.5,-93.689 58.5,-81.3161 58.5,-69.9751"/>
<polygon fill="none" stroke="#404040" points="58.5001,-69.7072 54.5,-63.7073 58.5,-57.7072 62.5,-63.7072 58.5001,-69.7072"/>
<text text-anchor="middle" x="72.5" y="-79" font-family="Helvetica,sans-Serif" font-size="10.00" fill="#000000"> +note</text>
</g>
</g>
</svg>
