<?xml version="1.0" encoding="UTF-8" standalone="no"?>
<!DOCTYPE svg PUBLIC "-//W3C//DTD SVG 1.1//EN"
 "http://www.w3.org/Graphics/SVG/1.1/DTD/svg11.dtd">
<!-- Generated by graphviz version 2.40.1 (20161225.0304)
 -->
<!-- Title: medimuse::MapleEventList Pages: 1 -->
<!--zoomable 676 -->
<svg id="main" version="1.1" xmlns="http://www.w3.org/2000/svg" xmlns:xlink="http://www.w3.org/1999/xlink" xml:space="preserve" onload="init(evt)">
<style type="text/css"><![CDATA[
.edge:hover path { stroke: red; }
.edge:hover polygon { stroke: red; fill: red; }
]]></style>
<script type="text/javascript"><![CDATA[
var edges = document.getElementsByTagName('g');
if (edges && edges.length) {
  for (var i=0;i<edges.length;i++) {
    if (edges[i].id.substr(0,4)=='edge') {
      edges[i].setAttribute('class','edge');
    }
  }
}
]]></script>
        <defs>
                <circle id="rim" cx="0" cy="0" r="7"/>
                <circle id="rim2" cx="0" cy="0" r="3.5"/>
                <g id="zoomPlus">
                        <use xlink:href="#rim" fill="#404040">
                                <set attributeName="fill" to="#808080" begin="zoomplus.mouseover" end="zoomplus.mouseout"/>
                        </use>
                        <path d="M-4,0h8M0,-4v8" fill="none" stroke="white" stroke-width="1.5" pointer-events="none"/>
                </g>
                <g id="zoomMin">
                        <use xlink:href="#rim" fill="#404040">
                                <set attributeName="fill" to="#808080" begin="zoomminus.mouseover" end="zoomminus.mouseout"/>
                        </use>
                        <path d="M-4,0h8" fill="none" stroke="white" stroke-width="1.5" pointer-events="none"/>
                </g>
                <g id="dirArrow">
                        <path fill="none" stroke="white" stroke-width="1.5" d="M0,-3.0v7 M-2.5,-0.5L0,-3.0L2.5,-0.5"/>
                </g>
               <g id="resetDef">
                       <use xlink:href="#rim2" fill="#404040">
                               <set attributeName="fill" to="#808080" begin="reset.mouseover" end="reset.mouseout"/>
                       </use>
               </g>
        </defs>

<script type="text/javascript">
var viewWidth = 1319;
var viewHeight = 676;
var sectionId = 'dynsection-0';
</script>
<script xlink:href="svgpan.js"/>
<svg id="graph" class="graph">
<g id="viewport">
<title>medimuse::MapleEventList</title>
<polygon fill="#ffffff" stroke="transparent" points="-4,4 -4,-672 1314.5,-672 1314.5,4 -4,4"/>
<!-- Node1 -->
<g id="node1" class="node">
<title>Node1</title>
<polygon fill="#bfbfbf" stroke="#000000" points="553,-.5 553,-57.5 688,-57.5 688,-.5 553,-.5"/>
<text text-anchor="middle" x="620.5" y="-45.5" font-family="Helvetica,sans-Serif" font-size="10.00" fill="#000000">medimuse::MapleEventList</text>
<polyline fill="none" stroke="#000000" points="553,-38.5 688,-38.5 "/>
<text text-anchor="start" x="561" y="-26.5" font-family="Helvetica,sans-Serif" font-size="10.00" fill="#000000">+ eventCount</text>
<polyline fill="none" stroke="#000000" points="553,-19.5 688,-19.5 "/>
<text text-anchor="middle" x="620.5" y="-7.5" font-family="Helvetica,sans-Serif" font-size="10.00" fill="#000000"> </text>
</g>
<!-- Node2 -->
<g id="node2" class="node">
<title>Node2</title>
<g id="a_node2"><a xlink:href="structmedimuse_1_1_maple_event.html" target="_top" xlink:title="Event structure. ">
<polygon fill="#ffffff" stroke="#000000" points="561,-105.5 561,-206.5 680,-206.5 680,-105.5 561,-105.5"/>
<text text-anchor="middle" x="620.5" y="-194.5" font-family="Helvetica,sans-Serif" font-size="10.00" fill="#000000">medimuse::MapleEvent</text>
<polyline fill="none" stroke="#000000" points="561,-187.5 680,-187.5 "/>
<text text-anchor="start" x="569" y="-175.5" font-family="Helvetica,sans-Serif" font-size="10.00" fill="#000000">+ busIndex</text>
<text text-anchor="start" x="569" y="-164.5" font-family="Helvetica,sans-Serif" font-size="10.00" fill="#000000">+ sampleOffset</text>
<text text-anchor="start" x="569" y="-153.5" font-family="Helvetica,sans-Serif" font-size="10.00" fill="#000000">+ ppqPosition</text>
<text text-anchor="start" x="569" y="-142.5" font-family="Helvetica,sans-Serif" font-size="10.00" fill="#000000">+ eventType</text>
<text text-anchor="start" x="569" y="-131.5" font-family="Helvetica,sans-Serif" font-size="10.00" fill="#000000">+ event</text>
<polyline fill="none" stroke="#000000" points="561,-124.5 680,-124.5 "/>
<text text-anchor="middle" x="620.5" y="-112.5" font-family="Helvetica,sans-Serif" font-size="10.00" fill="#000000"> </text>
</a>
</g>
</g>
<!-- Node2&#45;&gt;Node1 -->
<g id="edge1" class="edge">
<title>Node2&#45;&gt;Node1</title>
<path fill="none" stroke="#404040" d="M620.5,-105.4413C620.5,-93.681 620.5,-81.3021 620.5,-70.0123"/>
<polygon fill="none" stroke="#404040" points="620.5001,-69.8195 616.5,-63.8195 620.5,-57.8195 624.5,-63.8195 620.5001,-69.8195"/>
<text text-anchor="middle" x="640" y="-79" font-family="Helvetica,sans-Serif" font-size="10.00" fill="#000000"> +events</text>
</g>
<!-- Node3 -->
<g id="node3" class="node">
<title>Node3</title>
<g id="a_node3"><a xlink:href="structmedimuse_1_1_maple_note_on_event.html" target="_top" xlink:title="Note&#45;on event specific data. ">
<polygon fill="#ffffff" stroke="#000000" points="0,-380 0,-437 153,-437 153,-380 0,-380"/>
<text text-anchor="middle" x="76.5" y="-425" font-family="Helvetica,sans-Serif" font-size="10.00" fill="#000000">medimuse::MapleNoteOnEvent</text>
<polyline fill="none" stroke="#000000" points="0,-418 153,-418 "/>
<text text-anchor="middle" x="76.5" y="-406" font-family="Helvetica,sans-Serif" font-size="10.00" fill="#000000"> </text>
<polyline fill="none" stroke="#000000" points="0,-399 153,-399 "/>
<text text-anchor="middle" x="76.5" y="-387" font-family="Helvetica,sans-Serif" font-size="10.00" fill="#000000"> </text>
</a>
</g>
</g>
<!-- Node3&#45;&gt;Node2 -->
<g id="edge2" class="edge">
<title>Node3&#45;&gt;Node2</title>
<path fill="none" stroke="#404040" d="M72.5931,-379.9326C69.612,-345.9961 70.1113,-289.5197 99.5,-254 155.699,-186.0767 419.5404,-164.9318 548.787,-158.5908"/>
<polygon fill="none" stroke="#404040" points="548.8764,-158.5867 554.6816,-154.3089 560.8631,-158.0223 555.0579,-162.3 548.8764,-158.5867"/>
<text text-anchor="middle" x="120" y="-302.5" font-family="Helvetica,sans-Serif" font-size="10.00" fill="#000000"> +noteOn</text>
</g>
<!-- Node4 -->
<g id="node4" class="node">
<title>Node4</title>
<g id="a_node4"><a xlink:href="structmedimuse_1_1_maple_midi_note_event.html" target="_top" xlink:title="{medimuse::MapleMidiNoteEvent\n|+ channel\l+ pitch\l+ tuning\l+ velocity\l|}">
<polygon fill="#ffffff" stroke="#000000" points="180.5,-577.5 180.5,-667.5 338.5,-667.5 338.5,-577.5 180.5,-577.5"/>
<text text-anchor="middle" x="259.5" y="-655.5" font-family="Helvetica,sans-Serif" font-size="10.00" fill="#000000">medimuse::MapleMidiNoteEvent</text>
<polyline fill="none" stroke="#000000" points="180.5,-648.5 338.5,-648.5 "/>
<text text-anchor="start" x="188.5" y="-636.5" font-family="Helvetica,sans-Serif" font-size="10.00" fill="#000000">+ channel</text>
<text text-anchor="start" x="188.5" y="-625.5" font-family="Helvetica,sans-Serif" font-size="10.00" fill="#000000">+ pitch</text>
<text text-anchor="start" x="188.5" y="-614.5" font-family="Helvetica,sans-Serif" font-size="10.00" fill="#000000">+ tuning</text>
<text text-anchor="start" x="188.5" y="-603.5" font-family="Helvetica,sans-Serif" font-size="10.00" fill="#000000">+ velocity</text>
<polyline fill="none" stroke="#000000" points="180.5,-596.5 338.5,-596.5 "/>
<text text-anchor="middle" x="259.5" y="-584.5" font-family="Helvetica,sans-Serif" font-size="10.00" fill="#000000"> </text>
</a>
</g>
</g>
<!-- Node4&#45;&gt;Node3 -->
<g id="edge3" class="edge">
<title>Node4&#45;&gt;Node3</title>
<path fill="none" stroke="#404040" d="M220.914,-577.3776C187.7038,-538.5416 140.3242,-483.136 109.0107,-446.518"/>
<polygon fill="none" stroke="#404040" points="108.8215,-446.2967 101.882,-444.3364 101.0225,-437.1766 107.9621,-439.137 108.8215,-446.2967"/>
<text text-anchor="middle" x="217.5" y="-551" font-family="Helvetica,sans-Serif" font-size="10.00" fill="#000000"> +note</text>
</g>
<!-- Node6 -->
<g id="node6" class="node">
<title>Node6</title>
<g id="a_node6"><a xlink:href="structmedimuse_1_1_maple_poly_pressure_event.html" target="_top" xlink:title="PolyPressure event specific data. ">
<polygon fill="#ffffff" stroke="#000000" points="158.5,-374.5 158.5,-442.5 310.5,-442.5 310.5,-374.5 158.5,-374.5"/>
<text text-anchor="start" x="166.5" y="-430.5" font-family="Helvetica,sans-Serif" font-size="10.00" fill="#000000">medimuse::MaplePolyPressure</text>
<text text-anchor="middle" x="234.5" y="-419.5" font-family="Helvetica,sans-Serif" font-size="10.00" fill="#000000">Event</text>
<polyline fill="none" stroke="#000000" points="158.5,-412.5 310.5,-412.5 "/>
<text text-anchor="middle" x="234.5" y="-400.5" font-family="Helvetica,sans-Serif" font-size="10.00" fill="#000000"> </text>
<polyline fill="none" stroke="#000000" points="158.5,-393.5 310.5,-393.5 "/>
<text text-anchor="middle" x="234.5" y="-381.5" font-family="Helvetica,sans-Serif" font-size="10.00" fill="#000000"> </text>
</a>
</g>
</g>
<!-- Node4&#45;&gt;Node6 -->
<g id="edge6" class="edge">
<title>Node4&#45;&gt;Node6</title>
<path fill="none" stroke="#404040" d="M254.2287,-577.3776C250.0255,-541.398 244.1608,-491.1964 239.9192,-454.8885"/>
<polygon fill="none" stroke="#404040" points="239.8845,-454.5904 235.2153,-449.0951 238.492,-442.6715 243.1612,-448.1668 239.8845,-454.5904"/>
<text text-anchor="middle" x="266.5" y="-551" font-family="Helvetica,sans-Serif" font-size="10.00" fill="#000000"> +note</text>
</g>
<!-- Node10 -->
<g id="node10" class="node">
<title>Node10</title>
<g id="a_node10"><a xlink:href="structmedimuse_1_1_maple_expressive_event.html" target="_top" xlink:title="Expressive event for note. ">
<polygon fill="#ffffff" stroke="#000000" points="263,-461.5 263,-529.5 406,-529.5 406,-461.5 263,-461.5"/>
<text text-anchor="start" x="271" y="-517.5" font-family="Helvetica,sans-Serif" font-size="10.00" fill="#000000">medimuse::MapleExpressive</text>
<text text-anchor="middle" x="334.5" y="-506.5" font-family="Helvetica,sans-Serif" font-size="10.00" fill="#000000">Event</text>
<polyline fill="none" stroke="#000000" points="263,-499.5 406,-499.5 "/>
<text text-anchor="start" x="271" y="-487.5" font-family="Helvetica,sans-Serif" font-size="10.00" fill="#000000">+ expression_type</text>
<polyline fill="none" stroke="#000000" points="263,-480.5 406,-480.5 "/>
<text text-anchor="middle" x="334.5" y="-468.5" font-family="Helvetica,sans-Serif" font-size="10.00" fill="#000000"> </text>
</a>
</g>
</g>
<!-- Node4&#45;&gt;Node10 -->
<g id="edge11" class="edge">
<title>Node4&#45;&gt;Node10</title>
<path fill="none" stroke="#404040" d="M286.1534,-577.367C293.2452,-565.3581 300.9034,-552.3903 307.9877,-540.3942"/>
<polygon fill="none" stroke="#404040" points="308.1976,-540.0387 307.8044,-532.8383 314.2996,-529.706 314.6929,-536.9064 308.1976,-540.0387"/>
<text text-anchor="middle" x="315.5" y="-551" font-family="Helvetica,sans-Serif" font-size="10.00" fill="#000000"> +note</text>
</g>
<!-- Node12 -->
<g id="node12" class="node">
<title>Node12</title>
<g id="a_node12"><a xlink:href="structmedimuse_1_1_maple_note_off_event.html" target="_top" xlink:title="Note&#45;off event specific data. ">
<polygon fill="#ffffff" stroke="#000000" points="483.5,-467 483.5,-524 637.5,-524 637.5,-467 483.5,-467"/>
<text text-anchor="middle" x="560.5" y="-512" font-family="Helvetica,sans-Serif" font-size="10.00" fill="#000000">medimuse::MapleNoteOffEvent</text>
<polyline fill="none" stroke="#000000" points="483.5,-505 637.5,-505 "/>
<text text-anchor="middle" x="560.5" y="-493" font-family="Helvetica,sans-Serif" font-size="10.00" fill="#000000"> </text>
<polyline fill="none" stroke="#000000" points="483.5,-486 637.5,-486 "/>
<text text-anchor="middle" x="560.5" y="-474" font-family="Helvetica,sans-Serif" font-size="10.00" fill="#000000"> </text>
</a>
</g>
</g>
<!-- Node4&#45;&gt;Node12 -->
<g id="edge14" class="edge">
<title>Node4&#45;&gt;Node12</title>
<path fill="none" stroke="#404040" d="M338.5842,-589.1322C382.6485,-570.5403 437.3456,-547.4621 481.4107,-528.8699"/>
<polygon fill="none" stroke="#404040" points="481.6063,-528.7874 485.5794,-522.7696 492.6624,-524.1225 488.6893,-530.1404 481.6063,-528.7874"/>
<text text-anchor="middle" x="442.5" y="-551" font-family="Helvetica,sans-Serif" font-size="10.00" fill="#000000"> +note</text>
</g>
<!-- Node5 -->
<g id="node5" class="node">
<title>Node5</title>
<g id="a_node5"><a xlink:href="structmedimuse_1_1_maple_m_i_d_i_c_c_out_event.html" target="_top" xlink:title="Legacy MIDI CC Out event specific data. ">
<polygon fill="#ffffff" stroke="#000000" points="680.5,-254.5 680.5,-355.5 826.5,-355.5 826.5,-254.5 680.5,-254.5"/>
<text text-anchor="start" x="688.5" y="-343.5" font-family="Helvetica,sans-Serif" font-size="10.00" fill="#000000">medimuse::MapleMIDICCOut</text>
<text text-anchor="middle" x="753.5" y="-332.5" font-family="Helvetica,sans-Serif" font-size="10.00" fill="#000000">Event</text>
<polyline fill="none" stroke="#000000" points="680.5,-325.5 826.5,-325.5 "/>
<text text-anchor="start" x="688.5" y="-313.5" font-family="Helvetica,sans-Serif" font-size="10.00" fill="#000000">+ controlNumber</text>
<text text-anchor="start" x="688.5" y="-302.5" font-family="Helvetica,sans-Serif" font-size="10.00" fill="#000000">+ channel</text>
<text text-anchor="start" x="688.5" y="-291.5" font-family="Helvetica,sans-Serif" font-size="10.00" fill="#000000">+ value</text>
<text text-anchor="start" x="688.5" y="-280.5" font-family="Helvetica,sans-Serif" font-size="10.00" fill="#000000">+ value2</text>
<polyline fill="none" stroke="#000000" points="680.5,-273.5 826.5,-273.5 "/>
<text text-anchor="middle" x="753.5" y="-261.5" font-family="Helvetica,sans-Serif" font-size="10.00" fill="#000000"> </text>
</a>
</g>
</g>
<!-- Node5&#45;&gt;Node2 -->
<g id="edge4" class="edge">
<title>Node5&#45;&gt;Node2</title>
<path fill="none" stroke="#404040" d="M708.1009,-254.1394C697.08,-241.7927 685.1965,-228.4796 673.8456,-215.7631"/>
<polygon fill="none" stroke="#404040" points="673.6855,-215.5837 666.7059,-213.7712 665.6945,-206.6314 672.6741,-208.4439 673.6855,-215.5837"/>
<text text-anchor="middle" x="720.5" y="-228" font-family="Helvetica,sans-Serif" font-size="10.00" fill="#000000"> +midiCCOut</text>
</g>
<!-- Node6&#45;&gt;Node2 -->
<g id="edge5" class="edge">
<title>Node6&#45;&gt;Node2</title>
<path fill="none" stroke="#404040" d="M176.1425,-374.2878C170.6939,-368.8509 165.9356,-362.7571 162.5,-356 141.9537,-315.5901 133.9947,-289.2499 162.5,-254 210.2288,-194.9781 431.9328,-169.9218 548.4716,-160.6811"/>
<polygon fill="none" stroke="#404040" points="548.8138,-160.6548 554.4888,-156.2058 560.7783,-159.7331 555.1033,-164.1822 548.8138,-160.6548"/>
<text text-anchor="middle" x="196" y="-302.5" font-family="Helvetica,sans-Serif" font-size="10.00" fill="#000000"> +polyPressure</text>
</g>
<!-- Node7 -->
<g id="node7" class="node">
<title>Node7</title>
<g id="a_node7"><a xlink:href="structmedimuse_1_1_maple_data_event.html" target="_top" xlink:title="Data event specific data. Used in MapleEvent (union)*/. ">
<polygon fill="#ffffff" stroke="#000000" points="844.5,-260 844.5,-350 984.5,-350 984.5,-260 844.5,-260"/>
<text text-anchor="middle" x="914.5" y="-338" font-family="Helvetica,sans-Serif" font-size="10.00" fill="#000000">medimuse::MapleDataEvent</text>
<polyline fill="none" stroke="#000000" points="844.5,-331 984.5,-331 "/>
<text text-anchor="start" x="852.5" y="-319" font-family="Helvetica,sans-Serif" font-size="10.00" fill="#000000">+ size</text>
<text text-anchor="start" x="852.5" y="-308" font-family="Helvetica,sans-Serif" font-size="10.00" fill="#000000">+ type</text>
<text text-anchor="start" x="852.5" y="-297" font-family="Helvetica,sans-Serif" font-size="10.00" fill="#000000">+ bytes</text>
<text text-anchor="start" x="852.5" y="-286" font-family="Helvetica,sans-Serif" font-size="10.00" fill="#000000">+ dt</text>
<polyline fill="none" stroke="#000000" points="844.5,-279 984.5,-279 "/>
<text text-anchor="middle" x="914.5" y="-267" font-family="Helvetica,sans-Serif" font-size="10.00" fill="#000000"> </text>
</a>
</g>
</g>
<!-- Node7&#45;&gt;Node2 -->
<g id="edge7" class="edge">
<title>Node7&#45;&gt;Node2</title>
<path fill="none" stroke="#404040" d="M845.9223,-259.8927C842.4248,-257.8557 838.9375,-255.88 835.5,-254 788.5862,-228.3424 733.705,-203.4053 691.1335,-185.1072"/>
<polygon fill="none" stroke="#404040" points="691.0657,-185.0783 683.9768,-186.4003 680.0301,-180.3651 687.119,-179.0431 691.0657,-185.0783"/>
<text text-anchor="middle" x="808.5" y="-228" font-family="Helvetica,sans-Serif" font-size="10.00" fill="#000000"> +data</text>
</g>
<!-- Node8 -->
<g id="node8" class="node">
<title>Node8</title>
<g id="a_node8"><a xlink:href="structmedimuse_1_1_maple_scale_event.html" target="_top" xlink:title="Scale event specific data. ">
<polygon fill="#ffffff" stroke="#000000" points="1002.5,-260 1002.5,-350 1146.5,-350 1146.5,-260 1002.5,-260"/>
<text text-anchor="middle" x="1074.5" y="-338" font-family="Helvetica,sans-Serif" font-size="10.00" fill="#000000">medimuse::MapleScaleEvent</text>
<polyline fill="none" stroke="#000000" points="1002.5,-331 1146.5,-331 "/>
<text text-anchor="start" x="1010.5" y="-319" font-family="Helvetica,sans-Serif" font-size="10.00" fill="#000000">+ root</text>
<text text-anchor="start" x="1010.5" y="-308" font-family="Helvetica,sans-Serif" font-size="10.00" fill="#000000">+ mask</text>
<text text-anchor="start" x="1010.5" y="-297" font-family="Helvetica,sans-Serif" font-size="10.00" fill="#000000">+ textLen</text>
<text text-anchor="start" x="1010.5" y="-286" font-family="Helvetica,sans-Serif" font-size="10.00" fill="#000000">+ text</text>
<polyline fill="none" stroke="#000000" points="1002.5,-279 1146.5,-279 "/>
<text text-anchor="middle" x="1074.5" y="-267" font-family="Helvetica,sans-Serif" font-size="10.00" fill="#000000"> </text>
</a>
</g>
</g>
<!-- Node8&#45;&gt;Node2 -->
<g id="edge8" class="edge">
<title>Node8&#45;&gt;Node2</title>
<path fill="none" stroke="#404040" d="M1005.8936,-259.8699C1001.7647,-257.7628 997.616,-255.7861 993.5,-254 893.075,-210.4208 768.7767,-182.5324 692.0651,-168.0686"/>
<polygon fill="none" stroke="#404040" points="691.9715,-168.0513 685.3425,-170.8896 680.1729,-165.8622 686.8019,-163.0239 691.9715,-168.0513"/>
<text text-anchor="middle" x="961" y="-228" font-family="Helvetica,sans-Serif" font-size="10.00" fill="#000000"> +scale</text>
</g>
<!-- Node9 -->
<g id="node9" class="node">
<title>Node9</title>
<g id="a_node9"><a xlink:href="structmedimuse_1_1_maple_note_expression_value_event.html" target="_top" xlink:title="Expression value event for note. ">
<polygon fill="#ffffff" stroke="#000000" points="238.5,-271 238.5,-339 402.5,-339 402.5,-271 238.5,-271"/>
<text text-anchor="start" x="246.5" y="-327" font-family="Helvetica,sans-Serif" font-size="10.00" fill="#000000">medimuse::MapleNoteExpression</text>
<text text-anchor="middle" x="320.5" y="-316" font-family="Helvetica,sans-Serif" font-size="10.00" fill="#000000">ValueEvent</text>
<polyline fill="none" stroke="#000000" points="238.5,-309 402.5,-309 "/>
<text text-anchor="middle" x="320.5" y="-297" font-family="Helvetica,sans-Serif" font-size="10.00" fill="#000000"> </text>
<polyline fill="none" stroke="#000000" points="238.5,-290 402.5,-290 "/>
<text text-anchor="middle" x="320.5" y="-278" font-family="Helvetica,sans-Serif" font-size="10.00" fill="#000000"> </text>
</a>
</g>
</g>
<!-- Node9&#45;&gt;Node2 -->
<g id="edge9" class="edge">
<title>Node9&#45;&gt;Node2</title>
<path fill="none" stroke="#404040" d="M347.4716,-270.7686C361.5083,-254.9164 379.8297,-236.9832 399.5,-225 445.5055,-196.9734 503.9129,-179.3806 549.1273,-168.9784"/>
<polygon fill="none" stroke="#404040" points="549.1999,-168.9623 554.1895,-163.7562 560.9143,-166.3596 555.9246,-171.5658 549.1999,-168.9623"/>
<text text-anchor="middle" x="450.5" y="-228" font-family="Helvetica,sans-Serif" font-size="10.00" fill="#000000"> +noteExpressionValue</text>
</g>
<!-- Node10&#45;&gt;Node9 -->
<g id="edge10" class="edge">
<title>Node10&#45;&gt;Node9</title>
<path fill="none" stroke="#404040" d="M331.9971,-461.4424C329.7445,-430.7906 326.4143,-385.4774 323.9171,-351.4974"/>
<polygon fill="none" stroke="#404040" points="323.8844,-351.0511 319.4554,-345.3604 323.0048,-339.0833 327.4339,-344.774 323.8844,-351.0511"/>
<text text-anchor="middle" x="369" y="-406" font-family="Helvetica,sans-Serif" font-size="10.00" fill="#000000"> +noteExpression</text>
</g>
<!-- Node13 -->
<g id="node13" class="node">
<title>Node13</title>
<g id="a_node13"><a xlink:href="structmedimuse_1_1_maple_note_expression_text_event.html" target="_top" xlink:title="{medimuse::MapleNoteExpression\lTextEvent\n||}">
<polygon fill="#ffffff" stroke="#000000" points="420.5,-271 420.5,-339 584.5,-339 584.5,-271 420.5,-271"/>
<text text-anchor="start" x="428.5" y="-327" font-family="Helvetica,sans-Serif" font-size="10.00" fill="#000000">medimuse::MapleNoteExpression</text>
<text text-anchor="middle" x="502.5" y="-316" font-family="Helvetica,sans-Serif" font-size="10.00" fill="#000000">TextEvent</text>
<polyline fill="none" stroke="#000000" points="420.5,-309 584.5,-309 "/>
<text text-anchor="middle" x="502.5" y="-297" font-family="Helvetica,sans-Serif" font-size="10.00" fill="#000000"> </text>
<polyline fill="none" stroke="#000000" points="420.5,-290 584.5,-290 "/>
<text text-anchor="middle" x="502.5" y="-278" font-family="Helvetica,sans-Serif" font-size="10.00" fill="#000000"> </text>
</a>
</g>
</g>
<!-- Node10&#45;&gt;Node13 -->
<g id="edge16" class="edge">
<title>Node10&#45;&gt;Node13</title>
<path fill="none" stroke="#404040" d="M390.418,-461.259C397.8824,-455.5999 405.1429,-449.4561 411.5,-443 438.7281,-415.3479 462.5819,-378.4043 479.029,-349.7004"/>
<polygon fill="none" stroke="#404040" points="479.0844,-349.6018 478.5355,-342.4116 484.9615,-339.1394 485.5104,-346.3296 479.0844,-349.6018"/>
<text text-anchor="middle" x="503" y="-406" font-family="Helvetica,sans-Serif" font-size="10.00" fill="#000000"> +noteExpression</text>
</g>
<!-- Node11 -->
<g id="node11" class="node">
<title>Node11</title>
<g id="a_node11"><a xlink:href="structmedimuse_1_1_maple_chord_event.html" target="_top" xlink:title="Chord event specific data. ">
<polygon fill="#ffffff" stroke="#000000" points="1164.5,-254.5 1164.5,-355.5 1310.5,-355.5 1310.5,-254.5 1164.5,-254.5"/>
<text text-anchor="middle" x="1237.5" y="-343.5" font-family="Helvetica,sans-Serif" font-size="10.00" fill="#000000">medimuse::MapleChordEvent</text>
<polyline fill="none" stroke="#000000" points="1164.5,-336.5 1310.5,-336.5 "/>
<text text-anchor="start" x="1172.5" y="-324.5" font-family="Helvetica,sans-Serif" font-size="10.00" fill="#000000">+ root</text>
<text text-anchor="start" x="1172.5" y="-313.5" font-family="Helvetica,sans-Serif" font-size="10.00" fill="#000000">+ bassNote</text>
<text text-anchor="start" x="1172.5" y="-302.5" font-family="Helvetica,sans-Serif" font-size="10.00" fill="#000000">+ mask</text>
<text text-anchor="start" x="1172.5" y="-291.5" font-family="Helvetica,sans-Serif" font-size="10.00" fill="#000000">+ textLen</text>
<text text-anchor="start" x="1172.5" y="-280.5" font-family="Helvetica,sans-Serif" font-size="10.00" fill="#000000">+ text</text>
<polyline fill="none" stroke="#000000" points="1164.5,-273.5 1310.5,-273.5 "/>
<text text-anchor="middle" x="1237.5" y="-261.5" font-family="Helvetica,sans-Serif" font-size="10.00" fill="#000000"> </text>
</a>
</g>
</g>
<!-- Node11&#45;&gt;Node2 -->
<g id="edge12" class="edge">
<title>Node11&#45;&gt;Node2</title>
<path fill="none" stroke="#404040" d="M1164.4275,-257.7535C1161.453,-256.407 1158.4712,-255.1483 1155.5,-254 997.0661,-192.7704 797.1415,-169.2025 692.2541,-160.6004"/>
<polygon fill="none" stroke="#404040" points="692.2132,-160.5973 685.9155,-164.1099 680.2508,-159.6476 686.5486,-156.135 692.2132,-160.5973"/>
<text text-anchor="middle" x="1116.5" y="-228" font-family="Helvetica,sans-Serif" font-size="10.00" fill="#000000"> +chord</text>
</g>
<!-- Node12&#45;&gt;Node2 -->
<g id="edge13" class="edge">
<title>Node12&#45;&gt;Node2</title>
<path fill="none" stroke="#404040" d="M568.1554,-466.8203C575.4439,-438.7401 586.335,-394.6634 593.5,-356 601.9579,-310.36 608.8926,-258.3964 613.6156,-218.8766"/>
<polygon fill="none" stroke="#404040" points="613.6377,-218.6875 610.3663,-212.2612 615.04,-206.7697 618.3115,-213.196 613.6377,-218.6875"/>
<text text-anchor="middle" x="630.5" y="-302.5" font-family="Helvetica,sans-Serif" font-size="10.00" fill="#000000"> +noteOff</text>
</g>
<!-- Node13&#45;&gt;Node2 -->
<g id="edge15" class="edge">
<title>Node13&#45;&gt;Node2</title>
<path fill="none" stroke="#404040" d="M498.8919,-270.9634C498.8814,-255.8874 501.1796,-238.5419 509.5,-225 519.3416,-208.9823 534.4393,-196.1053 550.3601,-186.0138"/>
<polygon fill="none" stroke="#404040" points="550.5673,-185.8913 553.6935,-179.393 560.8943,-179.7795 557.7681,-186.2777 550.5673,-185.8913"/>
<text text-anchor="middle" x="558" y="-228" font-family="Helvetica,sans-Serif" font-size="10.00" fill="#000000"> +noteExpressionText</text>
</g>
</g>
</svg>
        <g id="navigator" transform="translate(0 0)" fill="#404254">
                <rect fill="#f2f5e9" fill-opacity="0.5" stroke="#606060" stroke-width=".5" x="0" y="0" width="60" height="60"/>
                <use id="zoomplus" xlink:href="#zoomPlus" x="17" y="9" onmousedown="handleZoom(evt,'in')"/>
                <use id="zoomminus" xlink:href="#zoomMin" x="42" y="9" onmousedown="handleZoom(evt,'out')"/>
                <use id="reset" xlink:href="#resetDef" x="30" y="36" onmousedown="handleReset()"/>
                <g id="arrowUp" xlink:href="#dirArrow" transform="translate(30 24)" onmousedown="handlePan(0,-1)">
                  <use xlink:href="#rim" fill="#404040">
                        <set attributeName="fill" to="#808080" begin="arrowUp.mouseover" end="arrowUp.mouseout"/>
                  </use>
                  <path fill="none" stroke="white" stroke-width="1.5" d="M0,-3.0v7 M-2.5,-0.5L0,-3.0L2.5,-0.5"/>
                </g>
                <g id="arrowRight" xlink:href="#dirArrow" transform="rotate(90) translate(36 -43)" onmousedown="handlePan(1,0)">
                  <use xlink:href="#rim" fill="#404040">
                        <set attributeName="fill" to="#808080" begin="arrowRight.mouseover" end="arrowRight.mouseout"/>
                  </use>
                  <path fill="none" stroke="white" stroke-width="1.5" d="M0,-3.0v7 M-2.5,-0.5L0,-3.0L2.5,-0.5"/>
                </g>
                <g id="arrowDown" xlink:href="#dirArrow" transform="rotate(180) translate(-30 -48)" onmousedown="handlePan(0,1)">
                  <use xlink:href="#rim" fill="#404040">
                        <set attributeName="fill" to="#808080" begin="arrowDown.mouseover" end="arrowDown.mouseout"/>
                  </use>
                  <path fill="none" stroke="white" stroke-width="1.5" d="M0,-3.0v7 M-2.5,-0.5L0,-3.0L2.5,-0.5"/>
                </g>
                <g id="arrowLeft" xlink:href="#dirArrow" transform="rotate(270) translate(-36 17)" onmousedown="handlePan(-1,0)">
                  <use xlink:href="#rim" fill="#404040">
                        <set attributeName="fill" to="#808080" begin="arrowLeft.mouseover" end="arrowLeft.mouseout"/>
                  </use>
                  <path fill="none" stroke="white" stroke-width="1.5" d="M0,-3.0v7 M-2.5,-0.5L0,-3.0L2.5,-0.5"/>
                </g>
        </g>
        <svg viewBox="0 0 15 15" width="100%" height="30px" preserveAspectRatio="xMaxYMin meet">
         <g id="arrow_out" transform="scale(0.3 0.3)">
          <a xlink:href="structmedimuse_1_1_maple_event_list__coll__graph_org.svg" target="_base">
           <rect id="button" ry="5" rx="5" y="6" x="6" height="38" width="38"
                fill="#f2f5e9" fill-opacity="0.5" stroke="#606060" stroke-width="1.0"/>
           <path id="arrow"
             d="M 11.500037,31.436501 C 11.940474,20.09759 22.043105,11.32322 32.158766,21.979434 L 37.068811,17.246167 C 37.068811,17.246167 37.088388,32 37.088388,32 L 22.160133,31.978069 C 22.160133,31.978069 26.997745,27.140456 26.997745,27.140456 C 18.528582,18.264221 13.291696,25.230495 11.500037,31.436501 z"
             style="fill:#404040;"/>
          </a>
         </g>
        </svg>
</svg>
