<?xml version="1.0" encoding="UTF-8" standalone="no"?>
<!DOCTYPE svg PUBLIC "-//W3C//DTD SVG 1.1//EN"
 "http://www.w3.org/Graphics/SVG/1.1/DTD/svg11.dtd">
<!-- Generated by graphviz version 2.40.1 (20161225.0304)
 -->
<!-- Title: medimuse::MaplePolyPressureEvent Pages: 1 -->
<svg width="166pt" height="215pt"
 viewBox="0.00 0.00 166.00 215.00" xmlns="http://www.w3.org/2000/svg" xmlns:xlink="http://www.w3.org/1999/xlink">
<g id="graph0" class="graph" transform="scale(1 1) rotate(0) translate(4 211)">
<title>medimuse::MaplePolyPressureEvent</title>
<polygon fill="#ffffff" stroke="transparent" points="-4,4 -4,-211 162,-211 162,4 -4,4"/>
<!-- Node1 -->
<g id="node1" class="node">
<title>Node1</title>
<polygon fill="#bfbfbf" stroke="#000000" points="3,-.5 3,-68.5 155,-68.5 155,-.5 3,-.5"/>
<text text-anchor="start" x="11" y="-56.5" font-family="Helvetica,sans-Serif" font-size="10.00" fill="#000000">medimuse::MaplePolyPressure</text>
<text text-anchor="middle" x="79" y="-45.5" font-family="Helvetica,sans-Serif" font-size="10.00" fill="#000000">Event</text>
<polyline fill="none" stroke="#000000" points="3,-38.5 155,-38.5 "/>
<text text-anchor="middle" x="79" y="-26.5" font-family="Helvetica,sans-Serif" font-size="10.00" fill="#000000"> </text>
<polyline fill="none" stroke="#000000" points="3,-19.5 155,-19.5 "/>
<text text-anchor="middle" x="79" y="-7.5" font-family="Helvetica,sans-Serif" font-size="10.00" fill="#000000"> </text>
</g>
<!-- Node2 -->
<g id="node2" class="node">
<title>Node2</title>
<g id="a_node2"><a xlink:href="structmedimuse_1_1_maple_midi_note_event.html" target="_top" xlink:title="{medimuse::MapleMidiNoteEvent\n|+ channel\l+ pitch\l+ tuning\l+ velocity\l|}">
<polygon fill="#ffffff" stroke="#000000" points="0,-116.5 0,-206.5 158,-206.5 158,-116.5 0,-116.5"/>
<text text-anchor="middle" x="79" y="-194.5" font-family="Helvetica,sans-Serif" font-size="10.00" fill="#000000">medimuse::MapleMidiNoteEvent</text>
<polyline fill="none" stroke="#000000" points="0,-187.5 158,-187.5 "/>
<text text-anchor="start" x="8" y="-175.5" font-family="Helvetica,sans-Serif" font-size="10.00" fill="#000000">+ channel</text>
<text text-anchor="start" x="8" y="-164.5" font-family="Helvetica,sans-Serif" font-size="10.00" fill="#000000">+ pitch</text>
<text text-anchor="start" x="8" y="-153.5" font-family="Helvetica,sans-Serif" font-size="10.00" fill="#000000">+ tuning</text>
<text text-anchor="start" x="8" y="-142.5" font-family="Helvetica,sans-Serif" font-size="10.00" fill="#000000">+ velocity</text>
<polyline fill="none" stroke="#000000" points="0,-135.5 158,-135.5 "/>
<text text-anchor="middle" x="79" y="-123.5" font-family="Helvetica,sans-Serif" font-size="10.00" fill="#000000"> </text>
</a>
</g>
</g>
<!-- Node2&#45;&gt;Node1 -->
<g id="edge1" class="edge">
<title>Node2&#45;&gt;Node1</title>
<path fill="none" stroke="#404040" d="M79,-116.367C79,-104.8482 79,-92.4473 79,-80.8678"/>
<polygon fill="none" stroke="#404040" points="79.0001,-80.706 75,-74.706 79,-68.706 83,-74.7059 79.0001,-80.706"/>
<text text-anchor="middle" x="93" y="-90" font-family="Helvetica,sans-Serif" font-size="10.00" fill="#000000"> +note</text>
</g>
</g>
</svg>
