<?xml version="1.0" encoding="UTF-8" standalone="no"?>
<!DOCTYPE svg PUBLIC "-//W3C//DTD SVG 1.1//EN"
 "http://www.w3.org/Graphics/SVG/1.1/DTD/svg11.dtd">
<!-- Generated by graphviz version 2.40.1 (20161225.0304)
 -->
<!-- Title: midi_track Pages: 1 -->
<svg width="80pt" height="182pt"
 viewBox="0.00 0.00 80.00 182.00" xmlns="http://www.w3.org/2000/svg" xmlns:xlink="http://www.w3.org/1999/xlink">
<g id="graph0" class="graph" transform="scale(1 1) rotate(0) translate(4 178)">
<title>midi_track</title>
<polygon fill="#ffffff" stroke="transparent" points="-4,4 -4,-178 76,-178 76,4 -4,4"/>
<!-- Node1 -->
<g id="node1" class="node">
<title>Node1</title>
<polygon fill="#bfbfbf" stroke="#000000" points="2,-.5 2,-57.5 64,-57.5 64,-.5 2,-.5"/>
<text text-anchor="middle" x="33" y="-45.5" font-family="Helvetica,sans-Serif" font-size="10.00" fill="#000000">midi_track</text>
<polyline fill="none" stroke="#000000" points="2,-38.5 64,-38.5 "/>
<text text-anchor="middle" x="33" y="-26.5" font-family="Helvetica,sans-Serif" font-size="10.00" fill="#000000"> </text>
<polyline fill="none" stroke="#000000" points="2,-19.5 64,-19.5 "/>
<text text-anchor="middle" x="33" y="-7.5" font-family="Helvetica,sans-Serif" font-size="10.00" fill="#000000"> </text>
</g>
<!-- Node2 -->
<g id="node2" class="node">
<title>Node2</title>
<g id="a_node2"><a xlink:href="structmidi__chunk.html" target="_top" xlink:title="{midi_chunk\n|+ header\l+ length\l|}">
<polygon fill="#ffffff" stroke="#000000" points="0,-105.5 0,-173.5 66,-173.5 66,-105.5 0,-105.5"/>
<text text-anchor="middle" x="33" y="-161.5" font-family="Helvetica,sans-Serif" font-size="10.00" fill="#000000">midi_chunk</text>
<polyline fill="none" stroke="#000000" points="0,-154.5 66,-154.5 "/>
<text text-anchor="start" x="8" y="-142.5" font-family="Helvetica,sans-Serif" font-size="10.00" fill="#000000">+ header</text>
<text text-anchor="start" x="8" y="-131.5" font-family="Helvetica,sans-Serif" font-size="10.00" fill="#000000">+ length</text>
<polyline fill="none" stroke="#000000" points="0,-124.5 66,-124.5 "/>
<text text-anchor="middle" x="33" y="-112.5" font-family="Helvetica,sans-Serif" font-size="10.00" fill="#000000"> </text>
</a>
</g>
</g>
<!-- Node2&#45;&gt;Node1 -->
<g id="edge1" class="edge">
<title>Node2&#45;&gt;Node1</title>
<path fill="none" stroke="#404040" d="M33,-105.4447C33,-94.175 33,-81.5186 33,-69.7959"/>
<polygon fill="none" stroke="#404040" points="33.0001,-69.5519 29,-63.5519 33,-57.5519 37,-63.5519 33.0001,-69.5519"/>
<text text-anchor="middle" x="52.5" y="-79" font-family="Helvetica,sans-Serif" font-size="10.00" fill="#000000"> +header</text>
</g>
</g>
</svg>
