<?xml version="1.0" encoding="UTF-8" standalone="no"?>
<!DOCTYPE svg PUBLIC "-//W3C//DTD SVG 1.1//EN"
 "http://www.w3.org/Graphics/SVG/1.1/DTD/svg11.dtd">
<!-- Generated by graphviz version 2.40.1 (20161225.0304)
 -->
<!-- Title: medimuse::MapleNoteExpressionTextEvent Pages: 1 -->
<svg width="172pt" height="331pt"
 viewBox="0.00 0.00 172.00 331.00" xmlns="http://www.w3.org/2000/svg" xmlns:xlink="http://www.w3.org/1999/xlink">
<g id="graph0" class="graph" transform="scale(1 1) rotate(0) translate(4 327)">
<title>medimuse::MapleNoteExpressionTextEvent</title>
<polygon fill="#ffffff" stroke="transparent" points="-4,4 -4,-327 168,-327 168,4 -4,4"/>
<!-- Node1 -->
<g id="node1" class="node">
<title>Node1</title>
<polygon fill="#bfbfbf" stroke="#000000" points="0,-.5 0,-68.5 164,-68.5 164,-.5 0,-.5"/>
<text text-anchor="start" x="8" y="-56.5" font-family="Helvetica,sans-Serif" font-size="10.00" fill="#000000">medimuse::MapleNoteExpression</text>
<text text-anchor="middle" x="82" y="-45.5" font-family="Helvetica,sans-Serif" font-size="10.00" fill="#000000">TextEvent</text>
<polyline fill="none" stroke="#000000" points="0,-38.5 164,-38.5 "/>
<text text-anchor="middle" x="82" y="-26.5" font-family="Helvetica,sans-Serif" font-size="10.00" fill="#000000"> </text>
<polyline fill="none" stroke="#000000" points="0,-19.5 164,-19.5 "/>
<text text-anchor="middle" x="82" y="-7.5" font-family="Helvetica,sans-Serif" font-size="10.00" fill="#000000"> </text>
</g>
<!-- Node2 -->
<g id="node2" class="node">
<title>Node2</title>
<g id="a_node2"><a xlink:href="structmedimuse_1_1_maple_expressive_event.html" target="_top" xlink:title="Expressive event for note. ">
<polygon fill="#ffffff" stroke="#000000" points="10.5,-116.5 10.5,-184.5 153.5,-184.5 153.5,-116.5 10.5,-116.5"/>
<text text-anchor="start" x="18.5" y="-172.5" font-family="Helvetica,sans-Serif" font-size="10.00" fill="#000000">medimuse::MapleExpressive</text>
<text text-anchor="middle" x="82" y="-161.5" font-family="Helvetica,sans-Serif" font-size="10.00" fill="#000000">Event</text>
<polyline fill="none" stroke="#000000" points="10.5,-154.5 153.5,-154.5 "/>
<text text-anchor="start" x="18.5" y="-142.5" font-family="Helvetica,sans-Serif" font-size="10.00" fill="#000000">+ expression_type</text>
<polyline fill="none" stroke="#000000" points="10.5,-135.5 153.5,-135.5 "/>
<text text-anchor="middle" x="82" y="-123.5" font-family="Helvetica,sans-Serif" font-size="10.00" fill="#000000"> </text>
</a>
</g>
</g>
<!-- Node2&#45;&gt;Node1 -->
<g id="edge1" class="edge">
<title>Node2&#45;&gt;Node1</title>
<path fill="none" stroke="#404040" d="M82,-116.3236C82,-105.213 82,-92.6908 82,-80.8451"/>
<polygon fill="none" stroke="#404040" points="82.0001,-80.833 78,-74.833 82,-68.833 86,-74.833 82.0001,-80.833"/>
<text text-anchor="middle" x="120.5" y="-90" font-family="Helvetica,sans-Serif" font-size="10.00" fill="#000000"> +noteExpression</text>
</g>
<!-- Node3 -->
<g id="node3" class="node">
<title>Node3</title>
<g id="a_node3"><a xlink:href="structmedimuse_1_1_maple_midi_note_event.html" target="_top" xlink:title="{medimuse::MapleMidiNoteEvent\n|+ channel\l+ pitch\l+ tuning\l+ velocity\l|}">
<polygon fill="#ffffff" stroke="#000000" points="3,-232.5 3,-322.5 161,-322.5 161,-232.5 3,-232.5"/>
<text text-anchor="middle" x="82" y="-310.5" font-family="Helvetica,sans-Serif" font-size="10.00" fill="#000000">medimuse::MapleMidiNoteEvent</text>
<polyline fill="none" stroke="#000000" points="3,-303.5 161,-303.5 "/>
<text text-anchor="start" x="11" y="-291.5" font-family="Helvetica,sans-Serif" font-size="10.00" fill="#000000">+ channel</text>
<text text-anchor="start" x="11" y="-280.5" font-family="Helvetica,sans-Serif" font-size="10.00" fill="#000000">+ pitch</text>
<text text-anchor="start" x="11" y="-269.5" font-family="Helvetica,sans-Serif" font-size="10.00" fill="#000000">+ tuning</text>
<text text-anchor="start" x="11" y="-258.5" font-family="Helvetica,sans-Serif" font-size="10.00" fill="#000000">+ velocity</text>
<polyline fill="none" stroke="#000000" points="3,-251.5 161,-251.5 "/>
<text text-anchor="middle" x="82" y="-239.5" font-family="Helvetica,sans-Serif" font-size="10.00" fill="#000000"> </text>
</a>
</g>
</g>
<!-- Node3&#45;&gt;Node2 -->
<g id="edge2" class="edge">
<title>Node3&#45;&gt;Node2</title>
<path fill="none" stroke="#404040" d="M82,-232.367C82,-220.8482 82,-208.4473 82,-196.8678"/>
<polygon fill="none" stroke="#404040" points="82.0001,-196.706 78,-190.706 82,-184.706 86,-190.7059 82.0001,-196.706"/>
<text text-anchor="middle" x="96" y="-206" font-family="Helvetica,sans-Serif" font-size="10.00" fill="#000000"> +note</text>
</g>
</g>
</svg>
